<svg xmlns="http://www.w3.org/2000/svg" xmlns:xlink="http://www.w3.org/1999/xlink" version="1.1" viewBox="0 0 1000 1000">
   <path 
d="M691.5 794.5q-43 -75 -91 -146.5t-95 -135.5t-89 -115q-28 -34 -51 -62.5t-42.5 -52.5t-35.5 -43t-29 -34h79q18 21 38 46t46 57t60 75q42 54 91.5 121.5t99.5 141.5t94 148h-75zM233.5 794.5l24 -168q8 -60 25.5 -108t49.5 -84.5t84 -60.5l24 44q-38 20 -61.5 50.5
t-36 70t-20.5 88.5l-24 168h-65zM583.5 547.5l-24 -43q40 -21 66 -50.5t41 -69t18 -88.5l9 -91h66l-9 91q-5 60 -24.5 107.5t-55 83t-87.5 60.5z" />
</svg>
