<svg xmlns="http://www.w3.org/2000/svg" xmlns:xlink="http://www.w3.org/1999/xlink" version="1.1" viewBox="0 0 1000 1000">
   <path 
d="M707.5 304q0 48 -20 85t-54.5 60.5t-78.5 32.5v2q84 11 129.5 54.5t45.5 122.5q0 59 -28.5 106t-85.5 73.5t-142 26.5q-61 0 -112 -11.5t-91 -29.5v-56q40 20 92.5 32.5t104.5 12.5q100 0 149 -42.5t49 -114.5q0 -52 -25.5 -84.5t-72.5 -47t-113 -14.5h-74v-50h75
q53 0 96.5 -16t69 -49t25.5 -83q0 -65 -41 -96.5t-109 -31.5q-36 0 -69.5 7.5t-63.5 22t-58 35.5l-28 -44q44 -34 98.5 -54t126.5 -20q93 0 149 45t56 126z" />
</svg>
