<svg xmlns="http://www.w3.org/2000/svg" xmlns:xlink="http://www.w3.org/1999/xlink" version="1.1" viewBox="0 0 1000 1000">
   <path 
d="M269.5 555q0 -85 13 -153t39.5 -118t64.5 -84t87.5 -51t110.5 -17q28 0 53.5 3.5t45.5 8.5v54q-19 -7 -44 -10.5t-56 -3.5q-78 0 -134.5 35t-88.5 109t-35 193h3q13 -27 38 -52.5t64.5 -41.5t92.5 -16q98 0 152.5 58.5t54.5 159.5q0 71 -26 125t-76 84t-120 30
q-62 0 -107.5 -25t-74.5 -69t-43 -100.5t-14 -118.5zM507.5 816q78 0 120 -49.5t42 -136.5q0 -78 -39 -123t-119 -45q-54 0 -94 22.5t-61 54.5t-21 63q0 27 7.5 63.5t26.5 71t52.5 57t85.5 22.5z" />
</svg>
