<svg xmlns="http://www.w3.org/2000/svg" xmlns:xlink="http://www.w3.org/1999/xlink" version="1.1" viewBox="0 0 1000 1000">
   <path 
d="M500.5 133q93 0 148.5 43t55.5 122q0 44 -19 76.5t-54 57.5t-83 44q54 20 94.5 46.5t63 63.5t22.5 88q0 60 -29.5 103.5t-81.5 66.5t-121 23t-119.5 -24t-78 -66t-27.5 -98q0 -54 22 -92t61.5 -64t91.5 -45q-42 -18 -76 -41t-55 -56.5t-21 -80.5q0 -52 26.5 -89t73 -57.5
t106.5 -20.5zM330.5 678q0 64 45.5 102t120.5 38q77 0 125 -37t48 -107q0 -40 -17.5 -69t-50.5 -51.5t-79 -38.5l-25 -10q-46 16 -84 38.5t-60.5 54.5t-22.5 80zM499.5 182q-62 0 -103.5 31.5t-41.5 90.5q0 55 40.5 88t106.5 57q47 -20 79 -40t48.5 -46t16.5 -61
q0 -59 -39 -89.5t-107 -30.5z" />
</svg>
