<svg xmlns="http://www.w3.org/2000/svg" xmlns:xlink="http://www.w3.org/1999/xlink" version="1.1" viewBox="0 0 1000 1000">
   <path 
d="M730.5 446q0 111 -22 190.5t-63.5 131t-99.5 76t-130 24.5q-27 0 -56.5 -3t-49.5 -9v-54q19 6 46.5 10t57.5 4q79 0 136.5 -35.5t89 -110.5t34.5 -192h-2q-13 27 -38.5 52.5t-65 42t-93.5 16.5q-97 0 -151 -59.5t-54 -160.5q0 -71 26 -124.5t76 -83t120 -29.5
q63 0 108 25t74 68t43 100t14 121zM492.5 184q-79 0 -120.5 49t-41.5 136q0 78 39.5 123.5t118.5 45.5q54 0 93.5 -22.5t61 -55t21.5 -63.5q0 -27 -7.5 -63.5t-26.5 -70.5t-52.5 -56.5t-85.5 -22.5z" />
</svg>
