<svg xmlns="http://www.w3.org/2000/svg" xmlns:xlink="http://www.w3.org/1999/xlink" version="1.1" viewBox="0 0 1000 1000">
   <path 
d="M430 648.5q0 -46 7 -76t26 -53.5t53 -46.5q35 -25 59.5 -48t36.5 -50t12 -66q0 -63 -38.5 -93t-100.5 -30q-37 0 -72.5 9t-74.5 28l-22 -48q46 -21 85.5 -31t86.5 -10q90 0 143 43.5t53 128.5q0 47 -15.5 82t-44 62.5t-69.5 54.5q-26 19 -42.5 37.5t-23.5 44.5t-7 66v14
h-52v-18zM417 822.5q0 -21 10.5 -33t30.5 -12q23 0 33 12t10 33q0 20 -10 32t-33 12q-20 0 -30.5 -12t-10.5 -32z" />
</svg>
