<svg xmlns="http://www.w3.org/2000/svg" xmlns:xlink="http://www.w3.org/1999/xlink" version="1.1" viewBox="0 0 1000 1000">
   <path 
d="M707 308q0 47 -19 83t-53 59t-78 31v3q84 11 128 55t44 119q0 61 -28.5 108.5t-86 74t-145.5 26.5q-57 0 -107 -10.5t-91 -30.5v-55q42 21 94.5 33.5t104.5 12.5q102 0 150.5 -43t48.5 -117q0 -52 -26 -84t-74 -46.5t-113 -14.5h-76v-50h77q56 0 99 -17.5t67.5 -51
t24.5 -82.5q0 -64 -40.5 -96.5t-109.5 -32.5q-37 0 -70 7.5t-62.5 22t-59.5 35.5l-29 -40q41 -32 96.5 -53t124.5 -21q100 0 154.5 47.5t54.5 127.5z" />
</svg>
