<svg xmlns="http://www.w3.org/2000/svg" xmlns:xlink="http://www.w3.org/1999/xlink" version="1.1" viewBox="0 0 1000 1000">
   <path 
d="M499 133q62 0 108 19.5t71.5 56.5t25.5 91q0 43 -19 75.5t-53 57t-78 44.5q51 20 90.5 47t61.5 63t22 87q0 60 -29.5 103t-81 66.5t-118.5 23.5q-70 0 -121 -23.5t-78.5 -65.5t-27.5 -100q0 -52 21.5 -89.5t60 -64t85.5 -44.5q-40 -19 -72.5 -43t-52 -57t-19.5 -80
q0 -52 26.5 -89.5t72.5 -57.5t105 -20zM328 679q0 63 44.5 101.5t125.5 38.5q79 0 126 -38t47 -107q0 -39 -18.5 -68.5t-54 -52.5t-85.5 -41l-22 -8q-49 18 -85.5 41.5t-57 55.5t-20.5 78zM499 181q-64 0 -106 31t-42 90q0 40 19.5 67.5t54 47.5t78.5 37q45 -19 77 -39.5
t49.5 -48t17.5 -65.5q0 -59 -39.5 -89.5t-108.5 -30.5z" />
</svg>
