<svg xmlns="http://www.w3.org/2000/svg" xmlns:xlink="http://www.w3.org/1999/xlink" version="1.1" viewBox="0 0 1000 1000">
   <path 
d="M728.5 445.5q0 76 -11.5 141.5t-35.5 117t-61 88t-88 56t-117 19.5q-25 0 -53 -3t-46 -9v-51q18 6 44.5 10t53.5 4q64 0 111.5 -22t79 -65t48 -105.5t18.5 -141.5h-4q-14 25 -39 48.5t-62.5 38t-88.5 14.5q-64 0 -110 -26t-71 -74.5t-25 -115.5q0 -72 26.5 -125.5
t76 -82.5t118.5 -29q58 0 102 23t74 64.5t45 99t15 126.5zM492.5 181.5q-77 0 -120.5 48.5t-43.5 138.5q0 79 39.5 124.5t119.5 45.5q56 0 96 -22.5t62.5 -56t22.5 -66.5q0 -30 -9 -67t-29.5 -70t-54.5 -54t-83 -21z" />
</svg>
