<svg xmlns="http://www.w3.org/2000/svg" xmlns:xlink="http://www.w3.org/1999/xlink" version="1.1" viewBox="0 0 1000 1000">
   <path 
d="M434 649.5q0 -44 7.5 -73.5t26 -54t51.5 -50.5q37 -29 61 -52.5t36 -49.5t12 -64q0 -61 -38 -91.5t-102 -30.5q-43 0 -79 10t-71 28l-21 -48q42 -20 83 -30.5t91 -10.5q89 0 140.5 44.5t51.5 127.5q0 48 -15.5 81.5t-43.5 60.5t-66 56q-29 23 -46 43.5t-23.5 45.5
t-6.5 63v14h-48v-19zM417 817.5q0 -24 11.5 -36.5t32.5 -12.5t32.5 12.5t11.5 36.5q0 25 -11.5 37.5t-32.5 12.5t-32.5 -12.5t-11.5 -37.5z" />
</svg>
