<svg xmlns="http://www.w3.org/2000/svg" xmlns:xlink="http://www.w3.org/1999/xlink" version="1.1" viewBox="0 0 1000 1000">
   <path 
d="M889.5 454q0 48 -10 92.5t-31 79t-51.5 54.5t-72.5 20q-45 0 -72.5 -27t-31.5 -69h-3q-20 46 -58.5 71t-89.5 25q-74 0 -115 -48.5t-41 -133.5q0 -65 26.5 -115t74 -79t111.5 -29q40 0 77.5 6t63.5 16l-9 174q-1 18 -1.5 34.5t-0.5 30.5q0 53 18.5 76.5t53.5 23.5
q38 0 63 -26.5t37.5 -72.5t12.5 -104q0 -96 -37.5 -165.5t-107.5 -107t-165 -37.5q-85 0 -153.5 26.5t-117 76.5t-74 120t-25.5 158q0 105 37.5 179.5t108.5 114t173 39.5q55 0 109 -12t99 -30v48q-43 18 -95 28.5t-113 10.5q-115 0 -197.5 -45.5t-127 -130t-44.5 -200.5
q0 -98 29.5 -177t85 -135t132.5 -86t173 -30q81 0 146.5 24.5t113.5 71t73.5 112t25.5 148.5zM366.5 519q0 68 28 102.5t82 34.5q63 0 94.5 -43t36.5 -124l7 -138q-18 -6 -40 -9t-48 -3q-52 0 -88 24t-54 64.5t-18 91.5z" />
</svg>
