<svg xmlns="http://www.w3.org/2000/svg" xmlns:xlink="http://www.w3.org/1999/xlink" version="1.1" viewBox="0 0 1000 1000">
   <path 
d="M598 132.5q48 0 86 9.5t74 28.5l-23 49q-29 -15 -63.5 -25.5t-73.5 -10.5q-41 0 -76.5 14.5t-62.5 43.5t-46 71.5t-27 98.5h254v45h-259q-1 10 -1 23v27v26.5t1 23.5h244v45h-239q11 68 38 116t71.5 73t106.5 25q38 0 74.5 -9t66.5 -22v53q-29 12 -64.5 21t-79.5 9
q-76 0 -131.5 -29.5t-90.5 -89t-49 -147.5h-86v-45h81q-1 -11 -1 -23v-26t0.5 -28.5t0.5 -22.5h-81v-45h86q12 -84 46 -146.5t90.5 -97.5t133.5 -35z" />
</svg>
