<svg xmlns="http://www.w3.org/2000/svg" xmlns:xlink="http://www.w3.org/1999/xlink" version="1.1" viewBox="0 0 1000 1000">
   <path 
d="M471.5 857v-90q-86 -1 -146.5 -23t-98.5 -60.5t-56 -89t-18 -108.5q0 -59 17.5 -109t55.5 -86.5t98.5 -57.5t147.5 -23v-67h57v67q85 1 145.5 20.5t98.5 55t56.5 85.5t18.5 112q0 59 -18 110.5t-56.5 89.5t-99 60.5t-145.5 23.5v90h-57zM471.5 718v-457
q-93 1 -150.5 28.5t-83.5 77t-26 118.5q0 72 27.5 123.5t85 79t147.5 30.5zM528.5 718q91 -3 148 -31.5t84.5 -80.5t27.5 -124q0 -70 -25.5 -118.5t-82.5 -75t-152 -27.5v457z" />
</svg>
