<svg xmlns="http://www.w3.org/2000/svg" xmlns:xlink="http://www.w3.org/1999/xlink" version="1.1" viewBox="0 0 1000 1000">
   <path 
d="M454 776q-69 0 -118 -31.5t-75 -92.5t-26 -150q0 -135 59 -206.5t160 -71.5q44 0 77.5 12.5t57.5 34.5t39 51h3l9 -88h46v413q0 46 12 63t34 17q9 0 18 -1.5t15 -3.5v44q-4 2 -12 4.5t-17 4t-18 1.5q-40 0 -60.5 -23.5t-25.5 -78.5h-5q-14 29 -37.5 52t-57 36.5
t-78.5 13.5zM463 727q59 0 95.5 -25.5t53.5 -75t17 -120.5v-14q0 -108 -40 -163.5t-128 -55.5q-81 0 -124 59.5t-43 169.5t42.5 167.5t126.5 57.5z" />
</svg>
