<svg xmlns="http://www.w3.org/2000/svg" xmlns:xlink="http://www.w3.org/1999/xlink" version="1.1" viewBox="0 0 1000 1000">
   <path 
d="M273 1000.5v-771q0 -77 26 -128t74.5 -76.5t113.5 -25.5q63 0 108 20.5t69 62t24 104.5q0 44 -16.5 80t-45.5 60t-70 33v3q49 6 87.5 29t61 64t22.5 103q0 66 -28.5 114t-80 73.5t-121.5 25.5q-52 0 -89.5 -11.5t-77.5 -34.5v275h-57zM493 722.5q83 0 130 -44.5
t47 -122.5q0 -53 -20.5 -90.5t-59.5 -58t-95 -20.5h-71v-46h66q46 0 77 -20t46.5 -54.5t15.5 -77.5q0 -72 -39.5 -106t-103.5 -34q-47 0 -82 19t-54.5 59.5t-19.5 106.5v439q40 24 76.5 37t86.5 13z" />
</svg>
