<svg xmlns="http://www.w3.org/2000/svg" xmlns:xlink="http://www.w3.org/1999/xlink" version="1.1" viewBox="0 0 1000 1000">
   <path 
d="M502 887.5q-70 0 -123.5 -29t-83.5 -81.5t-30 -122.5q0 -62 22 -110.5t66.5 -83.5t112.5 -58q-34 -21 -60 -40.5t-40.5 -45.5t-14.5 -63q0 -39 20 -71t60 -51t100 -19q41 0 74.5 8.5t60 21.5t42.5 27l-25 46q-30 -23 -67.5 -39t-84.5 -16q-44 0 -71.5 12t-40 32.5
t-12.5 46.5q0 25 12 45t40 39.5t76 46.5q71 39 115 78.5t64.5 85t20.5 103.5q0 74 -30 127t-82.5 82t-120.5 29zM503 838.5q56 0 95.5 -24t60 -67t20.5 -97q0 -55 -20.5 -95.5t-57 -72t-85.5 -56.5q-45 14 -80.5 34t-60.5 47t-38 62t-13 81q0 56 22 98.5t62.5 66t94.5 23.5z
" />
</svg>
