<svg xmlns="http://www.w3.org/2000/svg" xmlns:xlink="http://www.w3.org/1999/xlink" version="1.1" viewBox="0 0 1000 1000">
   <path 
d="M702 887q-18 0 -32 -6.5t-24 -20.5t-18 -36l-103 -297q-5 -15 -10.5 -32t-11.5 -34t-10.5 -32.5t-8.5 -28.5h-3q-7 27 -17.5 59.5t-20.5 61.5l-128 357h-60l201 -537l-31 -89q-16 -47 -41.5 -69t-70.5 -22q-17 0 -31 3t-24 6v-48q8 -3 17.5 -5t20.5 -3t23 -1
q43 0 73.5 14t52 44t37.5 76l196 550q7 16 12.5 25t13 12.5t15.5 3.5t14.5 -1.5t11.5 -2.5v44q-5 2 -11.5 4.5t-14 3.5t-17.5 1z" />
</svg>
