<svg xmlns="http://www.w3.org/2000/svg" xmlns:xlink="http://www.w3.org/1999/xlink" version="1.1" viewBox="0 0 1000 1000">
   <path 
d="M590.5 981q17 -31 27.5 -60.5t10.5 -56.5q-1 -18 -7.5 -34t-28 -30t-68.5 -22q-70 -13 -117.5 -37.5t-71.5 -65t-24 -100.5q0 -56 21.5 -95.5t57.5 -63.5t78 -34v-4q-36 -8 -64.5 -26t-44.5 -49t-16 -75q0 -51 21.5 -84.5t57.5 -53.5t79 -29l-34 2t-36.5 1.5t-43.5 0.5
h-50v-46h351v43h-35q-48 0 -94 7t-82 24.5t-57 49.5t-21 82q0 40 18.5 69.5t57 45t98.5 15.5h101v46h-102q-65 0 -110 20.5t-68.5 57.5t-23.5 90q0 50 19 81t59 49t102 31q56 11 84.5 29.5t39 42t10.5 51.5q0 23 -4.5 44t-13 41t-20.5 43h-56z" />
</svg>
