<svg xmlns="http://www.w3.org/2000/svg" xmlns:xlink="http://www.w3.org/1999/xlink" version="1.1" viewBox="0 0 1000 1000">
   <path 
d="M354.46 771q-58 0 -96 -30t-56.5 -86t-19.5 -135q0 -105 26.5 -177.5t61.5 -113.5h60q-28 32 -48.5 74.5t-31.5 97t-10 119.5q1 104 29 153t88 49q33 0 59 -17t41 -51t15 -85v-159h55v159q0 53 15.5 87t41 50t56.5 16q42 0 68 -22t38.5 -67t13.5 -113q0 -64 -10 -117.5
t-30 -97t-50 -76.5h59q25 28 45.5 70t32 97t10.5 124q0 79 -19.5 135t-57.5 86t-96 30q-53 0 -91.5 -28.5t-50.5 -87.5h-5q-7 39 -27.5 65t-50.5 38.5t-65 12.5z" />
</svg>
