<svg xmlns="http://www.w3.org/2000/svg" xmlns:xlink="http://www.w3.org/1999/xlink" version="1.1" viewBox="0 0 1000 1000">
   <path 
d="M334.5 167q31 9 76 16.5t94 14t90 10.5t64 5l-7 48q-26 -3 -67.5 -7.5t-89.5 -11.5t-92.5 -15t-76.5 -15zM668.5 389q-8 6 -16.5 12.5t-14.5 10.5q-7 7 -29 26.5t-49.5 46.5t-53 52t-41.5 41q4 -1 11 -0.5t12 1.5q34 1 51.5 20.5t24.5 48.5q4 12 9.5 30.5t11 35.5t8.5 28
q8 24 27.5 34.5t48.5 10.5q22 0 50.5 -2.5t55.5 -7.5t45 -9l-3 51q-12 2 -29.5 4.5t-38.5 4.5t-43 3.5t-42 1.5q-46 0 -74.5 -16.5t-39.5 -54.5q-4 -13 -9.5 -32t-10 -37.5t-8.5 -28.5q-7 -22 -18.5 -36t-37.5 -14q-16 0 -32 7.5t-30 21.5q-12 10 -35 33.5t-50 53t-51.5 57
t-39.5 46.5l-47 -34q7 -6 13 -11.5t15 -14.5q26 -25 63 -61.5t78.5 -77t83.5 -82t78.5 -78l63.5 -63.5q-16 2 -44 4.5t-61.5 5l-67 5t-61 5t-42.5 3.5q-19 1 -34.5 3.5t-28.5 5.5l-5 -55q13 1 30 1t34 -1q15 -1 45 -2.5t68.5 -4.5t77 -5.5t70.5 -6t49 -5.5q9 -2 17 -4t14 -4
z" />
</svg>
