<svg xmlns="http://www.w3.org/2000/svg" xmlns:xlink="http://www.w3.org/1999/xlink" version="1.1" viewBox="0 0 1000 1000">
   <path 
d="M755.5 529q0 -48 -24.5 -83.5t-66.5 -55.5t-96 -20q-60 0 -111.5 9t-93.5 21t-75 22q-24 7 -42.5 13.5t-34.5 13.5l-18 -62q19 -2 39.5 -6t42.5 -8q35 -8 82 -20t102.5 -21t112.5 -9q66 0 119.5 24t84 70t30.5 114q0 82 -33 145t-93 108.5t-140 75t-173 44.5l-31 -47
q90 -11 166.5 -37.5t133 -66.5t88 -96t31.5 -128zM319.5 96q40 9 95.5 17.5t115 15t112 10.5t88.5 4l-8 50q-40 -3 -93.5 -7.5t-111 -11t-111.5 -14t-96 -14.5z" />
</svg>
