<svg xmlns="http://www.w3.org/2000/svg" xmlns:xlink="http://www.w3.org/1999/xlink" version="1.1" viewBox="0 0 1000 1000">
   <path 
d="M450 88q-2 6 -5 18t-5 21q-7 39 -15 103t-13 139t-5 148q0 56 8 114.5t21.5 113.5t28.5 100l-48 15q-14 -45 -26.5 -102.5t-20.5 -120t-8 -119.5q0 -53 3.5 -109t8.5 -109.5t10 -98t8 -74.5q1 -12 1.5 -23t0.5 -18zM299 219q84 0 171 -5.5t168 -15.5t146 -24l1 50
q-56 9 -117.5 16.5t-125.5 13t-126 8.5t-117 3q-18 0 -47 -1.5t-57.5 -3l-47.5 -2.5l-2 -51q17 3 47.5 6t60.5 4.5t46 1.5zM707 319q-2 5 -4.5 12l-5 14t-5.5 14q-30 93 -72 171t-92 139.5t-105 105.5q-48 38 -102 60.5t-100 22.5q-30 0 -55 -12.5t-39 -38t-14 -62.5
q0 -51 22 -100t59.5 -93.5t86 -79t102.5 -56.5q49 -19 105.5 -30t100.5 -11q95 0 161.5 33t101.5 88t35 120q0 54 -19.5 102t-59.5 87.5t-101.5 67t-145.5 41.5l-29 -44q87 -9 155.5 -42t109 -87t40.5 -128q0 -52 -29 -97t-83 -72.5t-134 -27.5q-60 0 -113.5 15t-92.5 32
q-60 25 -110.5 70.5t-81 99.5t-30.5 107q0 34 17 51t47 17q38 0 84.5 -19.5t96.5 -61.5q74 -63 137.5 -155.5t99.5 -224.5q2 -6 3.5 -13t3 -15t1.5 -14z" />
</svg>
