<svg xmlns="http://www.w3.org/2000/svg" xmlns:xlink="http://www.w3.org/1999/xlink" version="1.1" viewBox="0 0 1000 1000">
   <path 
d="M232.5 210q0 5 -1 20t-2.5 30.5t-1.5 24.5q0 18 0.5 48.5t2 66t4 70t6.5 60.5q9 61 27 108t42 73t51 26q16 0 32 -14.5t30.5 -39.5t26.5 -56.5t21 -66.5l41 40q-35 101 -71.5 146t-79.5 45q-26 0 -51.5 -13.5t-48 -43t-39.5 -78.5t-27 -119q-4 -24 -6.5 -60t-4 -74
t-2.5 -70t-1 -48v-24.5t-0.5 -30.5t-2.5 -21zM676.5 238q32 39 57.5 91.5t44 110t30 111t14.5 94.5l-50 21q-3 -44 -14 -99t-29 -112t-44 -109t-58 -91z" />
</svg>
