<svg xmlns="http://www.w3.org/2000/svg" xmlns:xlink="http://www.w3.org/1999/xlink" version="1.1" viewBox="0 0 1000 1000">
   <path 
d="M708 527q0 -46 -22 -75t-57 -43t-73 -14q-45 0 -88.5 7.5t-81 17.5t-65.5 18q-19 5 -35 11t-26 11l-18 -57q16 -2 33.5 -4.5t33.5 -6.5q29 -7 70.5 -16.5t88.5 -17.5t90 -8q58 0 103.5 20.5t71 60t25.5 97.5q0 85 -46 148t-129 103.5t-195 58.5l-26 -44q99 -13 177 -46.5
t123.5 -88.5t45.5 -132zM349 162q32 6 78 12.5t95 12.5t94.5 9.5t78.5 4.5l-8 47q-29 -1 -74 -5.5t-95.5 -10.5t-97.5 -12.5t-80 -12.5z" />
</svg>
