<svg xmlns="http://www.w3.org/2000/svg" xmlns:xlink="http://www.w3.org/1999/xlink" version="1.1" viewBox="0 0 1000 1000">
   <path 
d="M462.5 154.5q-1 6 -3.5 15.5t-4.5 18.5q-5 31 -12 82t-12 111.5t-5 119.5q0 83 15 155.5t33 127.5l-44 14q-12 -37 -23.5 -85.5t-18 -102.5t-6.5 -107q0 -60 5 -120.5t11.5 -112t8.5 -83.5q1 -9 1.5 -18.5t0.5 -14.5h54zM334.5 265.5q100 0 205.5 -9.5t198.5 -28.5l2 46
q-46 7 -97.5 13.5t-106 11t-106 7.5t-96.5 3q-15 0 -40.5 -1t-50 -2.5t-41.5 -2.5l-1 -48q15 2 41 5t52.5 4.5t39.5 1.5zM673.5 347.5q-1 4 -3 10t-3.5 12t-4.5 12q-38 117 -96 204t-126 142q-41 32 -88 52t-84 20q-27 0 -48.5 -11t-33 -31.5t-11.5 -52.5q0 -61 32.5 -115.5
t85 -97t109.5 -64.5q42 -17 88.5 -25.5t83.5 -8.5q83 0 138.5 28t83.5 75t28 103q0 55 -27.5 106t-88.5 88t-160 52l-27 -41q71 -7 128.5 -33.5t92.5 -71.5t35 -104q0 -45 -24 -82t-69 -58.5t-109 -21.5q-49 0 -93 11t-77 26q-47 20 -90 56.5t-70 81.5t-27 92q0 28 16.5 41
t40.5 13q29 0 68.5 -17.5t78.5 -50.5q61 -52 112 -128.5t82 -184.5q1 -5 2.5 -12t3.5 -14t2 -11z" />
</svg>
