<svg xmlns="http://www.w3.org/2000/svg" xmlns:xlink="http://www.w3.org/1999/xlink" version="1.1" viewBox="0 0 1000 1000">
   <path 
d="M179 156.5q-2 9 -3 23.5t-2 30.5t-2 28q0 31 0.5 72.5t2 88t5.5 90.5q9 90 31 157.5t53.5 104.5t69.5 37q19 0 38.5 -16.5t37 -45t33 -66.5t26.5 -79l40 41q-28 83 -57.5 132t-59 70t-59.5 21q-43 0 -84 -33.5t-72 -109t-45 -202.5q-4 -42 -6.5 -92.5t-3.5 -97t-1 -74.5
q0 -15 -0.5 -41.5t-4.5 -40.5zM712 187.5q25 35 48.5 78t43.5 92t36.5 101.5t27.5 106t16 107.5l-50 21q-7 -72 -22.5 -141t-37.5 -132t-50.5 -118t-60.5 -97z" />
</svg>
