<svg xmlns="http://www.w3.org/2000/svg" xmlns:xlink="http://www.w3.org/1999/xlink" version="1.1" viewBox="0 0 1000 1000">
   <path 
d="M177.5 207.5q101 12 198.5 13.5t173.5 -5.5q57 -7 116 -19.5t108 -28.5l8 48q-46 13 -105 25t-116 18q-75 8 -175.5 7.5t-203.5 -9.5zM157.5 409.5q82 9 165 11.5t158 -0.5t131 -11q66 -8 126 -21t97 -26l8 49q-38 11 -94 22.5t-120 19.5q-61 7 -138 11t-162 2.5
t-168 -7.5zM503.5 170.5q-4 -20 -10.5 -39.5t-12.5 -35.5l56 -9q5 39 16.5 84.5t25.5 90t25 77.5q15 42 34 85.5t42 87t50 84.5q7 10 15.5 19.5t17.5 18.5l-30 42q-28 -8 -64 -13.5t-72.5 -10t-70.5 -7.5l4 -40q46 4 93 9.5t71 9.5q-42 -63 -75.5 -135.5t-57.5 -136.5
q-12 -34 -22.5 -65.5t-19 -61.5t-15.5 -54zM275.5 615.5q-18 26 -29.5 53t-11.5 61q0 66 59.5 101t187.5 35q69 0 123 -5t108 -16l-1 52q-52 8 -107 12.5t-121 4.5q-97 0 -163 -19.5t-99.5 -59t-33.5 -99.5q0 -40 10 -70.5t27 -62.5z" />
</svg>
