<svg xmlns="http://www.w3.org/2000/svg" xmlns:xlink="http://www.w3.org/1999/xlink" version="1.1" viewBox="0 0 1000 1000">
   <path 
d="M388 168.5q-1 6 -1.5 15t-1 16.5t-1.5 14.5q-1 16 -2 48.5t-2 73t-1.5 82.5t-0.5 78q0 31 1 67t1.5 71t1.5 64.5t1 48.5q0 45 -17 64.5t-50 19.5q-21 0 -49 -10.5t-54 -28t-43 -40t-17 -45.5q0 -34 20 -64t50.5 -54.5t64 -43.5t61.5 -29q52 -20 108 -32.5t113 -12.5
q60 0 106.5 19t73 55t26.5 85q0 47 -21 85t-63 64.5t-105 37.5q-25 5 -50 7t-40 2l-16 -46q21 1 46.5 0t49.5 -6q64 -11 108.5 -47.5t44.5 -96.5q0 -40 -23 -66t-59.5 -38.5t-77.5 -12.5q-63 0 -114.5 12.5t-100.5 33.5q-25 11 -52.5 26.5t-51 35t-37.5 40t-14 40.5
q0 15 11.5 29.5t28 26.5t34.5 18.5t31 6.5q18 0 26 -11.5t8 -30.5q0 -23 -1 -64t-2.5 -88.5t-1.5 -88.5q0 -35 0.5 -78t1.5 -85t2 -74.5t1 -46.5q0 -9 -0.5 -17.5t-1 -16.5t-1.5 -13h52zM662 240.5q27 14 63 37.5t69.5 47t52.5 40.5l-30 40q-14 -15 -36 -32.5t-48 -36
t-51 -34t-44 -25.5zM162 307.5q38 5 60.5 6.5t36.5 1.5q51 0 105.5 -5.5t106 -14.5t93.5 -22l1 48q-18 4 -51.5 11t-76.5 14t-89 11.5t-89 4.5q-19 0 -38.5 -1t-57.5 -4z" />
</svg>
