<svg xmlns="http://www.w3.org/2000/svg" xmlns:xlink="http://www.w3.org/1999/xlink" version="1.1" viewBox="0 0 1000 1000">
   <path 
d="M723 90q-1 9 -1.5 22.5t-1.5 30.5q0 10 0.5 32.5t1.5 51.5t1.5 59.5t0.5 56.5v43q0 85 -2 159.5t-19.5 140t-61.5 121.5t-126 103l-47 -37q20 -8 44 -22.5t41 -30.5q47 -37 72.5 -81t36.5 -96.5t13 -116t2 -140.5q0 -22 -1 -57.5t-2.5 -73.5t-2.5 -68.5t-2 -43.5
q-1 -16 -3.5 -29t-4.5 -24h62zM375 303q20 3 48.5 6t60 4.5t58.5 1.5q60 0 122 -3t121 -10.5t109 -20.5v53q-49 9 -107 15.5t-121 9.5t-124 3q-25 0 -57 -1t-61 -2.5t-49 -3.5v-52zM212 103q-2 11 -6 26.5t-7 28.5q-14 62 -25.5 133.5t-17.5 147t-2.5 150.5t20.5 146
q11 -37 26.5 -84.5t30.5 -90.5l31 18q-10 30 -22.5 70t-24 78t-16.5 60q-2 11 -3 22.5t-1 20.5q1 7 2 15t2 14l-43 6q-9 -30 -21 -79.5t-20.5 -110t-8.5 -123.5q0 -81 8 -156t18 -138t15 -105q3 -15 4 -30t1 -26z" />
</svg>
