<svg xmlns="http://www.w3.org/2000/svg" xmlns:xlink="http://www.w3.org/1999/xlink" version="1.1" viewBox="0 0 1000 1000">
   <path 
d="M402 104q-2 10 -4 21.5t-5 24.5q-2 15 -7 48t-12 71.5t-15 73.5q-11 42 -25 93.5t-33 109t-43 117.5t-53 120.5t-65 117.5l-52 -21q33 -44 63 -100.5t55 -117.5t45 -120.5t34.5 -111t22.5 -87.5q14 -55 23.5 -120.5t10.5 -123.5zM746 219q24 29 50.5 73.5t52.5 95.5
t48.5 98t34.5 82l-48 24q-12 -37 -32 -85t-45.5 -98t-52.5 -94.5t-53 -73.5zM68 332q22 1 40 1t39 -1q22 -1 57.5 -3.5t77.5 -6t83 -7t75.5 -5.5t53.5 -2q40 0 74 11.5t55.5 45.5t21.5 99q0 59 -5.5 127t-18.5 129t-34 102q-23 49 -57 63.5t-79 14.5q-28 0 -60.5 -4.5
t-55.5 -10.5l-8 -54q22 6 45 10.5t43 7t35 2.5q29 0 53 -10t42 -47q17 -37 28.5 -91t17 -115t5.5 -118q0 -49 -14 -74t-39.5 -34.5t-57.5 -9.5q-27 0 -72.5 3.5t-97 8.5t-95.5 9.5t-68 6.5q-14 2 -37 5t-40 5z" />
</svg>
