<svg xmlns="http://www.w3.org/2000/svg" xmlns:xlink="http://www.w3.org/1999/xlink" version="1.1" viewBox="0 0 1000 1000">
   <path 
d="M299 96q40 10 92 19t107.5 16.5t105 12.5t83.5 7l-8 48q-37 -3 -84.5 -9t-100 -13t-105 -16t-99.5 -17zM698 364q-11 7 -27 20.5t-23 20.5q-13 12 -39 36.5t-57.5 55t-60 57.5t-45.5 45q8 -1 20 -1.5t19 0.5q34 1 54.5 21t30.5 52q5 16 11.5 38t13 45.5t12.5 41.5
q10 31 31 45t65 14q30 0 64.5 -3t66 -8t54.5 -12l-3 57q-21 4 -53.5 7.5t-67 5.5t-62.5 2q-54 0 -90 -17t-51 -68q-4 -15 -10.5 -39l-13 -48t-12.5 -39q-9 -26 -25.5 -41t-40.5 -15q-23 0 -42.5 9t-36.5 24q-12 11 -32.5 32t-46.5 47.5t-51.5 55t-48.5 54.5t-38 45l-51 -36
q7 -6 17 -14.5t22 -19.5q8 -9 37 -38l71 -71t90 -90.5t96 -95.5t88.5 -87.5l65.5 -65.5q-25 2 -61.5 5t-77.5 6.5t-81 7t-72.5 6t-51.5 4.5q-24 1 -42 3t-35 5l-5 -58q17 1 37 1.5t42 -0.5q19 -1 55.5 -3t81.5 -5t90.5 -7.5t83.5 -8t59 -6.5q12 -2 24 -4.5t19 -5.5z" />
</svg>
