<svg xmlns="http://www.w3.org/2000/svg" xmlns:xlink="http://www.w3.org/1999/xlink" version="1.1" viewBox="0 0 1000 1000">
   <path 
d="M384 132.5q-1 10 -3 21.5t-5 23.5q-2 15 -7.5 48t-12 71.5t-14.5 73.5q-11 42 -25.5 93.5t-33 109t-42.5 117.5t-53 120.5t-65 118.5l-52 -21q33 -44 62.5 -100.5t54.5 -118t45.5 -121t35 -110.5t22.5 -88q14 -55 23.5 -120.5t10.5 -123.5zM728 256.5q24 29 50.5 74
t53 95t48.5 97t35 82l-48 24q-12 -37 -32 -84.5t-46 -97.5t-53 -94t-53 -73zM51 360.5q21 1 39.5 1t39.5 -1q22 -1 57.5 -3.5t77 -6l83 -7t76 -6t52.5 -2.5q41 0 75 12t55.5 45.5t21.5 98.5q0 60 -6 127.5t-18.5 129t-34.5 101.5q-22 49 -56.5 64t-78.5 15q-28 0 -60.5 -5
t-55.5 -10l-8 -55q22 7 44.5 11.5t43 6.5t34.5 2q30 0 54 -9.5t41 -46.5q18 -38 29 -92t17 -114.5t6 -117.5q0 -50 -14.5 -75t-39.5 -34t-58 -9q-27 0 -72 3.5t-96.5 8.5t-95.5 9.5t-68 6.5q-15 1 -37.5 4t-40.5 6zM757 107.5q13 17 27.5 41.5t30 50t26.5 46.5l-40 18
q-9 -20 -23.5 -45.5t-30 -50.5t-29.5 -43zM862 70.5q14 18 30 42.5t31.5 49.5t25.5 45l-40 18q-17 -34 -39.5 -72t-45.5 -66z" />
</svg>
