<svg xmlns="http://www.w3.org/2000/svg" xmlns:xlink="http://www.w3.org/1999/xlink" version="1.1" viewBox="0 0 1000 1000">
   <path 
d="M367 94.5q-2 9 -2.5 18t-1.5 19t-2 22q0 18 -1.5 56.5t-3 88.5t-2.5 100.5t-1 91.5q0 38 1 82.5t2 87.5t1.5 81t0.5 62q0 37 -9 59.5t-26 32.5t-41 10q-25 0 -57.5 -12.5t-63.5 -34t-51 -48.5t-20 -57q0 -42 33.5 -82.5t86.5 -75.5t110 -58q68 -28 138.5 -42.5
t131.5 -14.5q71 0 124 24t83 66.5t30 97.5q0 61 -26.5 105t-73.5 72.5t-109 43.5q-33 7 -64.5 9.5t-54.5 2.5l-18 -51q25 1 54.5 0t59.5 -7q46 -10 87.5 -30.5t67.5 -56t26 -87.5q0 -48 -26 -80t-68.5 -48t-91.5 -16q-69 0 -131 14t-130 42q-50 20 -93 49t-68.5 61t-25.5 60
q0 20 13.5 38t34 32t43 22.5t39.5 8.5q19 0 29 -14.5t10 -38.5q0 -31 -1 -83t-2 -111.5t-1 -111.5q0 -43 0.5 -95.5t1.5 -103t2 -88.5t1 -51q0 -11 -0.5 -21.5t-1.5 -21t-3 -18.5h60zM692 206.5q34 19 76.5 46.5t81 55t60.5 47.5l-28 42q-19 -19 -45.5 -40t-56.5 -41.5
t-59.5 -39t-54.5 -31.5zM100 283.5q40 5 67 7t55 2q36 0 81.5 -4t94 -11t95 -17t82.5 -21l1 51q-36 10 -83 18t-96.5 15t-95 11t-78.5 4q-39 0 -67.5 -1.5t-53.5 -3.5z" />
</svg>
