<svg xmlns="http://www.w3.org/2000/svg" xmlns:xlink="http://www.w3.org/1999/xlink" version="1.1" viewBox="0 0 1000 1000">
   <path 
d="M717 101.5q17 24 42 65t42 76l-38 19q-16 -34 -38 -73.5t-45 -69.5zM819 64.5q12 16 28 40t32 50.5t27 49.5l-37 18q-17 -34 -39.5 -72.5t-46.5 -67.5zM114 229.5q101 12 198.5 14t173.5 -6q57 -7 113.5 -19t101.5 -27l8 48q-43 13 -99 24t-113 18q-75 7 -175.5 6.5
t-203.5 -9.5zM94 432.5q82 9 165 11.5t158 -1t131 -10.5q66 -8 125.5 -21.5t97.5 -25.5l8 49q-38 11 -94 22t-120 19q-61 8 -138 11.5t-162 2t-169 -6.5zM440 192.5q-4 -19 -10.5 -38.5t-12.5 -36.5l56 -8q5 38 16.5 84t25.5 90t25 78q15 41 34 85t42 87.5t50 83.5
q7 10 15.5 19.5t17.5 18.5l-30 43q-28 -9 -64 -14.5t-72.5 -9.5t-70.5 -7l4 -41q46 5 93 10.5t71 8.5q-42 -63 -75.5 -135t-57.5 -137q-12 -33 -22.5 -65t-19 -61.5t-15.5 -54.5zM212 637.5q-18 27 -29.5 53.5t-11.5 61.5q0 65 59.5 100.5t187.5 35.5q69 0 123 -5.5
t108 -15.5l-1 51q-52 9 -107 13t-121 4q-97 0 -163 -19t-99.5 -59t-33.5 -100q0 -39 10 -69.5t27 -62.5z" />
</svg>
