<svg xmlns="http://www.w3.org/2000/svg" xmlns:xlink="http://www.w3.org/1999/xlink" version="1.1" viewBox="0 0 1000 1000">
   <path 
d="M607.983 305.5q12 18 28.5 45t32.5 54t27 46l-40 17q-10 -20 -25.5 -46t-31 -53t-28.5 -46zM721.983 261.5q13 17 30 42t33 51.5t28 48.5l-39 17q-12 -21 -28 -47t-31.5 -51t-29.5 -43zM651.983 120.5q-11 9 -29 25.5t-28 25.5q-27 24 -66 57t-82 68t-83 67.5t-69 56.5
q-32 28 -43 46.5t0.5 36.5t46.5 48q30 24 67.5 54.5t78 65t81.5 70.5t80 72t71 69l-44 40q-12 -14 -27 -29.5t-31 -31.5q-28 -29 -69 -66.5t-86.5 -77t-89.5 -77t-80 -66.5q-46 -38 -58 -65.5t5 -55t59 -62.5q27 -24 68 -57t85.5 -69.5t84 -71t64.5 -60.5q10 -12 24.5 -28.5
t20.5 -27.5z" />
</svg>
