<svg xmlns="http://www.w3.org/2000/svg" xmlns:xlink="http://www.w3.org/1999/xlink" version="1.1" viewBox="0 0 1000 1000">
   <path 
d="M708 89.4336q13 17 27.5 41.5t29.5 50t26 46.5l-39 18q-9 -20 -23.5 -45.5t-30 -50.5t-29.5 -43zM813 52.4336q14 18 30 43t31 50t25 44l-39 19q-16 -35 -39 -73t-46 -66zM468 207.434q-4 -15 -9.5 -34t-11.5 -37l56 -7q3 23 12 58.5t21 73.5t23 71q23 66 60 133.5
t73 116.5q8 12 18 23l20 22l-29 37q-16 -5 -44 -8.5t-61 -7t-65 -6t-56 -3.5l3 -44q31 2 64.5 5.5t64 6t49.5 5.5q-23 -34 -49 -78.5t-51 -94.5t-42 -97q-16 -44 -27 -78t-19 -57zM101 303.434q78 9 155 13t147 2.5t125 -7.5q37 -4 82 -11t90.5 -18.5t83.5 -24.5l6 51
q-37 11 -80.5 19.5t-86.5 15.5t-77 11q-93 11 -208 11t-235 -10zM228 609.434q-21 37 -33.5 70.5t-12.5 71.5q0 75 66.5 111t182.5 37q73 1 136.5 -5.5t115.5 -19.5l-1 53q-50 8 -112 14.5t-141 5.5q-90 -1 -157 -22t-103.5 -64.5t-36.5 -107.5q0 -40 13.5 -77.5t32.5 -77.5
z" />
</svg>
