<svg xmlns="http://www.w3.org/2000/svg" xmlns:xlink="http://www.w3.org/1999/xlink" version="1.1" viewBox="0 0 1000 1000">
   <path 
d="M682.5 115.5q-1 10 -1.5 23t-0.5 30q0 10 0.5 32.5t1 51.5t1 59.5t1 57t0.5 42.5q0 85 -2.5 160t-19.5 140.5t-61 121.5t-126 102l-48 -37q21 -8 45 -22.5t41 -29.5q47 -38 72.5 -81.5t36.5 -96.5t13 -116.5t2 -140.5q0 -22 -1 -57.5t-2.5 -73.5t-2.5 -68.5t-2 -42.5
q-1 -17 -4 -30t-5 -24h62zM345.5 328.5q20 3 48.5 6t60 4.5t58.5 1.5q60 0 122 -3t120.5 -10t109.5 -20v52q-49 10 -107.5 16t-121 9t-124.5 3q-25 0 -56.5 -1t-60.5 -2.5t-49 -2.5v-53zM182.5 129.5q-3 11 -6.5 26t-7.5 29q-13 61 -25 132.5t-17.5 147t-2 151t20.5 146.5
q11 -38 26.5 -85t30.5 -90l31 18q-10 29 -22.5 69.5t-24 78t-16.5 60.5q-2 10 -3.5 21.5t-0.5 20.5q1 7 2 15t2 14l-43 7q-9 -31 -21 -80.5t-20.5 -109.5t-8.5 -123q0 -81 8 -156.5t18 -138.5t15 -104q2 -16 3 -31t1 -25zM763.5 93.5q14 26 31.5 66.5t28.5 71.5l-39 14
q-11 -32 -27.5 -72t-30.5 -67zM861.5 64.5q14 26 31.5 65t30.5 71l-39 14q-13 -34 -28.5 -72.5t-31.5 -65.5z" />
</svg>
