<svg xmlns="http://www.w3.org/2000/svg" xmlns:xlink="http://www.w3.org/1999/xlink" version="1.1" viewBox="0 0 1000 1000">
   <path 
d="M741 115q-1 8 -2 19.5t-1.5 23t-0.5 21.5v63.5t-0.5 66.5t-1.5 58q-1 35 -3 79t-4.5 84.5t-8.5 67.5q-5 29 -21.5 40.5t-48.5 11.5q-19 0 -43 -2.5t-45.5 -5.5t-32.5 -5l1 -46q28 7 57 10.5t47 3.5q21 0 30.5 -6t12.5 -24q4 -20 6 -54.5t4.5 -75.5t2.5 -77q1 -29 1 -62.5
v-66.5v-59q0 -10 -1 -22t-1.5 -23.5t-2.5 -19.5h56zM344 147q-1 13 -2 31.5t-1 35.5q0 35 -0.5 87t-1 109t-0.5 111v95.5t1 59.5q2 43 5.5 73t20 49.5t55 29t107.5 9.5q58 0 114.5 -3t104.5 -8.5t78 -10.5l-2 53q-33 3 -82 7t-104 7t-108 3q-80 0 -127 -10.5t-69.5 -34.5
t-30 -63t-9.5 -95q0 -21 -0.5 -60.5t-0.5 -89v-101t0.5 -97t0.5 -77.5v-41q0 -18 -1 -33.5t-4 -35.5h56zM66 394q25 0 48 -1.5t43 -2.5q34 -3 96.5 -9t141 -14t163 -15.5t165 -14t143.5 -9.5q20 -1 36.5 -1.5t31.5 -1.5v52q-7 -1 -18 -0.5t-24 0.5h-26q-40 0 -98.5 3.5
t-126 9t-138 12t-136 13.5t-119 13t-86.5 10q-16 2 -31.5 3.5t-30 4t-28.5 4.5z" />
</svg>
