<svg xmlns="http://www.w3.org/2000/svg" xmlns:xlink="http://www.w3.org/1999/xlink" version="1.1" viewBox="0 0 1000 1000">
   <path 
d="M599 87.5q0 4 -1.5 14t-2 20t-0.5 16q-1 19 -1 51v70t0.5 77t1 73.5t0.5 58.5l-48 -37v-37t-0.5 -64t-1 -74.5t-1 -69t-1.5 -48.5q-1 -14 -2.5 -29.5t-2.5 -20.5h60zM88 235.5q38 -1 88 -2.5t107.5 -3.5t118 -3.5t118 -2.5t109.5 -1q50 0 94.5 0.5t81 0.5t64 0.5
t43.5 0.5l-1 48q-39 -2 -105.5 -3t-176.5 -1q-63 0 -133 1t-142.5 3.5t-140.5 6t-124 8.5zM603 522.5q0 58 -19.5 97t-51 58.5t-70.5 19.5q-33 0 -62 -10t-51 -31t-34.5 -50t-12.5 -67q0 -46 22.5 -83t59.5 -60t81 -23q54 0 89.5 24.5t53 67.5t17.5 98q0 52 -13 103
t-45 97.5t-87 84.5t-140 64l-44 -41q71 -17 123.5 -45t87.5 -66t52 -87t17 -109q0 -79 -32 -113t-78 -34q-30 0 -56.5 15.5t-42.5 42.5t-16 63q0 55 34 84.5t82 29.5q36 0 60 -19t35.5 -54.5t8.5 -85.5z" />
</svg>
