<svg xmlns="http://www.w3.org/2000/svg" xmlns:xlink="http://www.w3.org/1999/xlink" version="1.1" viewBox="0 0 1000 1000">
   <path 
d="M541.5 176q11 16 29 45t36.5 59.5t30.5 55.5l-41 19q-11 -24 -27.5 -53t-34 -58t-32.5 -50zM667.5 128q13 16 31 44t37 58.5t31 54.5l-41 19q-11 -23 -28 -52t-35 -57.5t-33 -48.5zM253.5 94q-4 21 -5.5 40t-2.5 41q-1 43 -3.5 107.5t-4 137t-3 145.5t-1.5 134
q0 58 23 92.5t63.5 50t93.5 15.5q72 0 129 -18.5t101 -48.5t77.5 -67t60.5 -75l36 43q-27 35 -64 73t-86 70.5t-113 52.5t-144 20q-66 0 -117.5 -20t-81 -66t-29.5 -126q0 -47 1 -102.5t3 -114t3.5 -115t2.5 -105t1 -83.5q0 -23 -1.5 -43.5t-5.5 -38.5z" />
</svg>
