<svg xmlns="http://www.w3.org/2000/svg" xmlns:xlink="http://www.w3.org/1999/xlink" version="1.1" viewBox="0 0 1000 1000">
   <path 
d="M159.5 226q54 6 120.5 9t139.5 3q47 0 93 -2t88 -5t77 -7v52q-33 3 -76 6t-89.5 4.5t-92.5 1.5q-73 0 -137.5 -3t-122.5 -8v-51zM173.5 617q-11 31 -16.5 61t-5.5 59q0 63 64.5 101.5t192.5 38.5q70 0 134 -4.5t116.5 -13.5t85.5 -21l1 54q-31 9 -82.5 17.5t-117 13
t-136.5 4.5q-95 0 -164 -20t-106.5 -60t-37.5 -100q0 -36 6.5 -70t14.5 -66zM706.5 110q13 17 28 41t30 49.5t26 47.5l-40 19q-14 -31 -38 -71.5t-44 -68.5zM811.5 73q14 18 30.5 42.5t31.5 49.5t25 45l-39 18q-17 -34 -40 -72t-45 -66z" />
</svg>
