<svg xmlns="http://www.w3.org/2000/svg" xmlns:xlink="http://www.w3.org/1999/xlink" version="1.1" viewBox="0 0 1000 1000">
   <path 
d="M523 168.934q-4 -16 -10 -35t-12 -36l57 -7q3 23 11.5 58t20.5 73.5t24 70.5q23 67 59.5 134t72.5 117q9 11 18.5 22.5t19.5 21.5l-28 38q-17 -5 -45 -8.5t-60.5 -7t-64.5 -6t-57 -4.5l4 -43q30 2 63.5 5.5t64.5 5.5t50 5q-23 -33 -49.5 -78t-51 -94.5t-42.5 -96.5
q-16 -45 -27 -79t-18 -56zM156 264.934q78 9 154.5 13t147 2t125.5 -7q37 -4 82 -11.5t90.5 -18.5t83.5 -24l5 51q-36 10 -80 19t-86.5 16t-76.5 11q-93 10 -208 10t-235 -9zM283 570.934q-21 37 -34 70.5t-13 70.5q0 76 66.5 111.5t183.5 37.5q73 1 136 -5.5t116 -19.5
l-2 52q-49 9 -111 15.5t-142 5.5q-90 -1 -156.5 -22t-103 -64.5t-36.5 -108.5q0 -39 13.5 -77t31.5 -78z" />
</svg>
