<svg xmlns="http://www.w3.org/2000/svg" xmlns:xlink="http://www.w3.org/1999/xlink" version="1.1" viewBox="0 0 1000 1000">
   <path 
d="M588 107q0 3 -1 13t-1.5 20t-0.5 16q-1 19 -1.5 51t-0.5 70.5t0.5 77t1 73t0.5 58.5l-47 -37v-37t-0.5 -63.5t-1 -74.5t-1 -69.5t-1.5 -48.5q-1 -14 -2.5 -29.5t-2.5 -19.5h59zM77 254q39 0 89 -2t107.5 -4t117.5 -3t118 -2t110 -1h94.5h81t63.5 0.5t44 0.5l-1 48
q-39 -2 -105.5 -3t-176.5 -1q-63 0 -133.5 1t-143 3.5t-140 6.5t-123.5 8zM592 542q0 58 -19 97t-51 58.5t-70 19.5q-33 0 -62 -10.5t-51 -31t-34.5 -50t-12.5 -67.5q0 -46 22.5 -83t59.5 -59.5t81 -22.5q54 0 89.5 24t53 67t17.5 99q0 51 -13 102t-45 97.5t-87 85
t-140 64.5l-44 -42q71 -17 123.5 -44.5t87.5 -66t52 -87.5t17 -109q0 -79 -32 -113t-78 -34q-30 0 -56.5 15.5t-42.5 42.5t-16 64q0 54 34 84t82 30q35 0 59.5 -19t36 -55t8.5 -85zM731 92q17 23 39.5 58.5t38.5 63.5l-40 20q-16 -30 -37.5 -65t-39.5 -60zM845 68
q17 23 39 57t39 64l-41 19q-16 -31 -36.5 -64.5t-39.5 -58.5z" />
</svg>
