<svg xmlns="http://www.w3.org/2000/svg" xmlns:xlink="http://www.w3.org/1999/xlink" version="1.1" viewBox="0 0 1000 1000">
   <path 
d="M249.5 125.102q15 2 32.5 3t38.5 1q14 0 44.5 -1t70 -2.5t79.5 -3.5t73 -4.5t50 -4.5q14 -1 26 -3t19 -5l34 37q-7 4 -19 12t-20 15q-22 19 -55 46.5t-70.5 59t-75.5 63t-72.5 59.5t-61.5 49q82 -9 169.5 -16t174 -12t164.5 -5v49q-74 -4 -140.5 -2.5t-110.5 8.5
q-38 5 -74.5 24t-67 47.5t-48 63.5t-17.5 73q0 56 27 89.5t69.5 50t87.5 24.5q46 6 79 5.5t60 -2.5l-11 51q-178 7 -269.5 -47.5t-91.5 -163.5q0 -50 23.5 -91.5t56 -71.5t62.5 -45q-86 8 -190.5 19.5t-202.5 27.5l-5 -47q41 -5 87.5 -10.5t84.5 -9.5q45 -33 97 -74.5
t103 -84.5t93 -79.5t66 -57.5q-14 1 -44 2.5t-67.5 3.5l-75 4t-67 3.5t-43.5 2.5q-19 1 -38 2.5t-31 2.5zM727.5 217.102q17 25 40 61t40 72l-38 18q-16 -32 -36.5 -68t-42.5 -65zM829.5 180.102q17 23 41 60t42 71l-37 19q-16 -32 -37.5 -68t-43.5 -65z" />
</svg>
