<svg xmlns="http://www.w3.org/2000/svg" xmlns:xlink="http://www.w3.org/1999/xlink" version="1.1" viewBox="0 0 1000 1000">
   <path 
d="M711 133q-1 9 -2 20.5t-1.5 23t-0.5 21.5q0 29 -0.5 63t-1 66.5t-1.5 58.5q-1 34 -2.5 78t-4 84.5t-8.5 67.5q-5 30 -21.5 41.5t-48.5 11.5q-19 0 -43 -2.5t-45.5 -6t-32.5 -5.5l1 -45q28 6 57 9.5t47 3.5q21 0 30.5 -5.5t12.5 -23.5q4 -20 6 -55t4.5 -75.5t2.5 -76.5
q1 -29 1 -62.5v-66.5v-59q0 -11 -1 -23t-1.5 -23.5t-2.5 -19.5h56zM314 166q-1 12 -2 30.5t-1 36.5q0 35 -0.5 86.5t-1 109t-0.5 111v95t1 60.5q2 42 5.5 72.5t20 49.5t55 28.5t107.5 9.5q58 0 114.5 -3t104.5 -8t78 -11l-2 54q-33 3 -82 7t-104 7t-108 3q-80 0 -127 -11
t-69.5 -34.5t-30 -62.5t-9.5 -96q0 -21 -0.5 -60.5t-0.5 -89v-101t0.5 -97t0.5 -77v-41.5q0 -17 -1 -32.5t-4 -35.5h56zM36 413q25 0 48 -1.5t43 -3.5q34 -3 96.5 -9t141 -13.5t163 -15t165 -14t143.5 -9.5q20 -1 36.5 -2t31.5 -2v53q-7 -1 -18 -1h-24h-26q-40 1 -98.5 4.5
t-126 9t-138 12t-136 13.5t-119 12.5t-86.5 9.5q-16 2 -31.5 4t-30 4t-28.5 4zM802 127q9 17 20.5 42.5t23.5 51.5t19 47l-39 14q-7 -22 -17.5 -48t-21.5 -51.5t-21 -44.5zM900 96q10 18 21.5 43t23 50.5t19.5 47.5l-39 14q-12 -35 -29 -75.5t-33 -67.5z" />
</svg>
