<svg xmlns="http://www.w3.org/2000/svg" xmlns:xlink="http://www.w3.org/1999/xlink" version="1.1" viewBox="0 0 1000 1000">
   <path 
d="M358 133.815q-5 16 -9 36.5t-6 36.5q-5 24 -12 62.5t-17 84t-21 91.5t-23 86.5t-23 68.5q68 -54 142 -77t158 -23q80 0 133.5 24.5t81 66.5t27.5 98q0 74 -37 126t-104.5 82t-159.5 38t-202 -3l-12 -50q89 11 172.5 7t149 -26.5t104 -64.5t38.5 -108q0 -63 -49.5 -104
t-145.5 -41q-91 0 -172.5 30t-134.5 92q-9 11 -17 22.5t-16 24.5l-48 -18q28 -56 52 -126.5t42.5 -142t30 -130.5t15.5 -94q3 -20 4 -37.5t0 -35.5zM69 267.815q35 5 85.5 10t93.5 5q64 0 146 -5t168 -16.5t162 -28.5l1 52q-56 9 -118.5 17.5t-126 14t-122.5 8.5t-109 3
q-47 0 -91.5 -2.5t-87.5 -6.5zM740 98.8154q13 17 28 41.5t29.5 50t25.5 46.5l-39 18q-9 -20 -23 -45.5t-29.5 -50.5t-29.5 -43zM845 61.8154q14 18 30 43t31.5 49.5t24.5 44.5l-38 18q-17 -33 -40 -71.5t-45 -66.5z" />
</svg>
