<svg xmlns="http://www.w3.org/2000/svg" xmlns:xlink="http://www.w3.org/1999/xlink" version="1.1" viewBox="0 0 1000 1000">
   <path 
d="M420.5 99.5q-5 14 -9 35.5t-7 34.5q-7 38 -16 84.5t-20.5 97t-25.5 99.5q-13 54 -32 117t-40 126t-42 118t-41 94l-57 -19q23 -39 46.5 -93.5t45 -115.5t40.5 -122.5t33 -114.5q9 -34 18.5 -74t18 -79t14 -71.5t8.5 -50.5q3 -17 4 -37t0 -34zM218.5 276.5q51 0 115 -5.5
t131.5 -16t127.5 -26.5v51q-62 13 -129.5 23t-131 15.5t-115.5 5.5q-30 0 -57.5 -1t-55.5 -3l-2 -50q34 4 63 5.5t54 1.5zM535.5 405.5q38 -4 84 -6t93 -2q45 0 89.5 1.5t82.5 6.5l-2 50q-39 -5 -81 -8t-86 -3q-43 0 -88.5 2.5t-91.5 7.5v-49zM536.5 643.5q-7 26 -11 49
t-4 45q0 19 7 36.5t26.5 32.5t56.5 24t98 9q49 0 98 -5t91 -14l-2 53q-40 6 -88 10t-100 4q-112 0 -173 -33.5t-61 -106.5q0 -26 3.5 -51t10.5 -58z" />
</svg>
