<svg xmlns="http://www.w3.org/2000/svg" xmlns:xlink="http://www.w3.org/1999/xlink" version="1.1" viewBox="0 0 1000 1000">
   <path 
d="M386 100q-5 14 -9.5 35.5t-6.5 34.5q-7 38 -16 84.5t-20.5 97t-25.5 99.5q-13 54 -32 116.5t-40 126t-42 118.5t-41 94l-57 -19q23 -39 46 -93.5t45 -116t41 -122.5t33 -114q9 -34 18.5 -74.5t18 -79.5t14 -71t8.5 -50q3 -17 4 -37.5t0 -34.5zM184 277q51 0 115 -5.5
t131.5 -16t127.5 -26.5v51q-62 13 -129.5 23t-131 15.5t-115.5 5.5q-31 0 -58 -1t-55 -3l-2 -50q34 4 62.5 5.5t54.5 1.5zM501 405q38 -3 84 -5t93 -2q45 0 89.5 1.5t82.5 6.5l-2 50q-39 -5 -81 -8t-86 -3t-89 2.5t-91 7.5v-50zM502 644q-7 26 -11 49t-4 45q0 18 7 36
t26.5 33t56.5 24t98 9q48 0 97.5 -5t91.5 -14l-2 53q-40 6 -88 10t-100 4q-112 0 -173 -33.5t-61 -106.5q0 -26 3.5 -51t9.5 -58zM741 131q13 18 28 42t30 49.5t26 46.5l-39 18q-9 -20 -24 -45l-30 -50t-29 -44zM846 94q14 18 30 43t31.5 50t25.5 44l-39 18q-17 -34 -40 -72
t-45 -66z" />
</svg>
