<svg xmlns="http://www.w3.org/2000/svg" xmlns:xlink="http://www.w3.org/1999/xlink" version="1.1" viewBox="0 0 1000 1000">
   <path 
d="M429 98.9883q-5 16 -8.5 36.5t-6.5 37.5q-4 24 -11.5 62t-17.5 83.5t-21 92t-23 86.5t-23 68q68 -54 142 -77t158 -23q80 0 133.5 24.5t81 67t27.5 97.5q0 74 -37 126t-104.5 82t-159.5 38.5t-202 -3.5l-12 -50q89 11 172.5 7t149 -26.5t104.5 -64.5t39 -107
q0 -64 -49.5 -105t-145.5 -41q-91 0 -173 30.5t-135 91.5q-9 11 -16.5 22.5t-15.5 25.5l-49 -19q29 -56 53 -126.5t42 -141.5t29.5 -130.5t15.5 -94.5q3 -20 4.5 -37.5t0.5 -34.5zM140 232.988q35 6 85.5 10.5t94.5 4.5q48 0 107.5 -3t124 -9t129 -15.5t121.5 -22.5v51
q-56 10 -119.5 18.5t-128 14t-124.5 9t-109 3.5q-48 0 -92.5 -3t-87.5 -7z" />
</svg>
