<svg xmlns="http://www.w3.org/2000/svg" xmlns:xlink="http://www.w3.org/1999/xlink" version="1.1" viewBox="0 0 1000 1000">
   <path 
d="M66.5 420q27 -5 50 -12t52 -15q34 -11 84 -28t108.5 -34t119.5 -28.5t115 -11.5q79 0 143 29.5t101.5 85t37.5 134.5q0 74 -28 130.5t-78.5 98.5t-117.5 69.5t-146 43t-164 20.5l-22 -53q97 -3 186.5 -20.5t161 -54t113 -94.5t41.5 -141q0 -56 -27 -101.5t-78 -72.5
t-123 -27q-52 0 -112.5 12t-121.5 30.5t-115.5 38.5t-95 36t-59.5 23zM741.5 135q13 18 28.5 42t30.5 49t25 48l-38 18q-15 -31 -39 -71.5t-44 -68.5zM847.5 98q14 18 30 42.5t31.5 49.5t24.5 45l-38 18q-17 -34 -40 -72t-45 -66z" />
</svg>
