<svg xmlns="http://www.w3.org/2000/svg" xmlns:xlink="http://www.w3.org/1999/xlink" version="1.1" viewBox="0 0 1000 1000">
   <path 
d="M280.5 125.102q16 1 33 2t38 1q14 0 44.5 -1t70 -2.5t80 -3.5t73 -4t49.5 -4q14 -1 26 -3t19 -5l34 37q-7 4 -19 12t-20 15q-22 19 -55 46.5t-70 59t-75.5 63t-73 59.5t-61.5 49q82 -9 169.5 -16.5t174 -12t164.5 -4.5v48q-74 -3 -140.5 -1.5t-110.5 7.5q-38 6 -74.5 25
t-67 47.5t-48 63.5t-17.5 73q0 56 27 89.5t69.5 50t87.5 24.5q46 6 79.5 5t59.5 -3l-11 52q-178 7 -269.5 -47.5t-91.5 -164.5q0 -50 23.5 -91.5t56 -71t62.5 -44.5q-86 8 -190.5 19.5t-202.5 27.5l-5 -48q41 -4 87.5 -10t84.5 -10q45 -32 97 -73.5t103 -84.5t93 -79.5
t66 -57.5q-14 1 -44 2.5t-67.5 3.5t-75 3.5t-67 3t-43.5 2.5q-19 1 -38 3t-31 3z" />
</svg>
