<svg xmlns="http://www.w3.org/2000/svg" xmlns:xlink="http://www.w3.org/1999/xlink" version="1.1" viewBox="0 0 1000 1000">
   <path 
d="M675.5 304.5q-12 8 -28 16.5t-35 18.5q-35 18 -84.5 43t-104 55t-105.5 64q-74 48 -114.5 101.5t-40.5 113.5q0 66 63.5 107.5t190.5 41.5q57 0 116.5 -4t112.5 -11.5t88 -16.5v57q-35 6 -85 12t-108.5 9t-120.5 3q-67 0 -123.5 -11t-97.5 -34t-63.5 -59.5t-22.5 -88.5
q0 -49 20 -93t60 -84.5t98 -79.5q53 -36 109 -67t106 -56t84 -44q17 -11 31 -19.5t28 -20.5zM192.5 129.5q23 62 49 123.5t53 115t50 92.5l-42 27q-23 -39 -50.5 -94t-56 -118t-54.5 -124zM695.5 122.5q13 18 28 42t30 49t25 48l-38 18q-15 -31 -38.5 -71.5t-44.5 -68.5z
M801.5 85.5q14 18 29.5 42.5t31 49.5t24.5 45l-38 18q-17 -34 -39.5 -72t-45.5 -66z" />
</svg>
