<svg xmlns="http://www.w3.org/2000/svg" xmlns:xlink="http://www.w3.org/1999/xlink" version="1.1" viewBox="0 0 1000 1000">
   <path 
d="M547.5 159.5q-9 78 -24 163t-38 160q-30 103 -65.5 170t-74 99.5t-80.5 32.5q-37 0 -75 -29.5t-63 -86t-25 -137.5q0 -79 32.5 -150t91 -126t135.5 -86.5t165 -31.5q85 0 153 28t117 76.5t75 113t26 136.5q0 105 -45.5 183.5t-129 126t-197.5 61.5l-29 -49q21 -1 43 -4
t38 -6q48 -10 95.5 -34.5t87 -62.5t63.5 -92t24 -125q0 -62 -21.5 -117t-63 -97t-101 -67t-135.5 -25q-84 0 -153 31t-119 81.5t-76.5 111.5t-26.5 120q0 70 19 114.5t46 65.5t52 21t53 -25t57.5 -82t57.5 -151q22 -73 37 -153.5t22 -157.5h52z" />
</svg>
