<svg xmlns="http://www.w3.org/2000/svg" xmlns:xlink="http://www.w3.org/1999/xlink" version="1.1" viewBox="0 0 1000 1000">
   <path 
d="M446.5 199.5q38 7 91 10.5t110.5 3t110 -4t87.5 -9.5v53q-36 4 -88.5 6.5t-110 2.5t-110.5 -2.5t-90 -6.5v-53zM460.5 595.5q-7 28 -11 51.5t-4 44.5q0 18 7 35.5t26.5 32.5t56 24t95.5 9q68 0 128.5 -6.5t117.5 -19.5l1 54q-45 10 -107.5 16t-136.5 6q-124 0 -179.5 -38
t-55.5 -104q0 -22 4 -48.5t11 -61.5zM234.5 116.5q-3 7 -5.5 16.5l-5 19t-4.5 18.5q-6 32 -13.5 70.5t-14 80t-11.5 83.5t-8 82.5t-3 76.5q0 50 2.5 92t9.5 92q9 -26 20.5 -57l23 -62t20.5 -53l30 23q-12 31 -27 72t-27 79t-16 60q-2 11 -4 23t-1 21q1 7 2 16t2 15l-46 4
q-15 -55 -25.5 -136.5t-10.5 -182.5q0 -55 5.5 -112t13.5 -111.5t16 -101t12 -78.5q3 -16 4.5 -29.5t1.5 -25.5z" />
</svg>
