<svg xmlns="http://www.w3.org/2000/svg" xmlns:xlink="http://www.w3.org/1999/xlink" version="1.1" viewBox="0 0 1000 1000">
   <path 
d="M370.5 290.5q42 4 82.5 6t83.5 2q90 0 178 -7t162 -21v49q-81 13 -168 19.5t-174 6.5q-43 0 -81.5 -1.5t-82.5 -4.5v-49zM701.5 104.5q-2 16 -3.5 29.5t-2.5 28.5q-1 19 -1.5 47t-0.5 59v57q0 50 2 106t5 111.5t5 106t2 91.5q0 25 -7 51.5t-24.5 49t-48.5 36t-79 13.5
q-99 0 -148 -36t-49 -97q0 -36 22 -67.5t66 -51t108 -19.5q59 0 109.5 13.5t95 36.5t83 51t71.5 58l-29 43q-49 -47 -101 -83t-109 -57t-125 -21q-64 0 -105 26t-41 67q0 43 38 67t101 24q49 0 75.5 -15.5t37.5 -42.5t11 -62q0 -28 -2 -75.5t-5 -104t-5 -114t-2 -104.5
v-91.5v-71.5v-30t-2 -29h58zM205.5 108.5q-3 7 -5.5 16.5t-4.5 19.5t-4 19q-7 32 -14 72.5t-14 85t-12 89.5t-8 87t-3 78q0 49 3 91t10 92q9 -25 20.5 -57t23.5 -63t21 -53l29 22q-11 30 -26 71t-27.5 78.5t-17.5 60.5q-2 10 -3.5 22.5t-0.5 22.5q1 7 2 15.5t2 14.5l-46 4
q-14 -55 -25.5 -134.5t-11.5 -180.5q0 -54 6 -114.5t14 -118.5t16 -107.5t13 -81.5q2 -16 3.5 -30t1.5 -26z" />
</svg>
