<svg xmlns="http://www.w3.org/2000/svg" xmlns:xlink="http://www.w3.org/1999/xlink" version="1.1" viewBox="0 0 1000 1000">
   <path 
d="M91.5 259q25 3 53 4.5t64 1.5q50 0 105.5 -4t116 -15.5t123.5 -31.5l2 50q-53 14 -111 25t-118 16.5t-119 5.5q-26 0 -56.5 -0.5t-55.5 -1.5zM425.5 88q-6 23 -14 58.5t-18.5 73.5t-20.5 70q-25 72 -62 151t-79 152.5t-84 127.5l-51 -27q33 -38 66.5 -87.5t63.5 -105
t55 -110t41 -100.5q15 -44 29 -101.5t16 -107.5zM662.5 395q-1 31 -2 51.5t0 44.5q1 26 2.5 64t3.5 81t3.5 82.5t1.5 66.5q0 36 -17.5 66.5t-53.5 48.5t-93 18q-51 0 -93 -13.5t-67.5 -42.5t-25.5 -75q0 -45 26 -75.5t69 -46t91 -15.5q83 0 151 23t122.5 58t95.5 69l-28 44
q-31 -26 -67 -53.5t-79 -49.5t-91.5 -35.5t-103.5 -13.5q-62 0 -100.5 26t-38.5 65q0 40 32.5 64t101.5 24q46 0 73 -14t38.5 -37.5t11.5 -49.5q0 -33 -1.5 -79t-4 -98t-4.5 -103.5t-4 -94.5h51zM878.5 406q-25 -23 -65 -48.5t-82 -48.5t-74 -38l25 -38q27 12 59.5 28.5
t64 35t58.5 36.5t44 31z" />
</svg>
