<svg xmlns="http://www.w3.org/2000/svg" xmlns:xlink="http://www.w3.org/1999/xlink" version="1.1" viewBox="0 0 1000 1000">
   <path 
d="M776.5 269.5q-13 9 -28.5 17t-34.5 18q-26 15 -65 34t-83.5 42t-88.5 48.5t-82 51.5q-74 48 -114.5 101t-40.5 113q0 67 63.5 108t190.5 41q57 0 116.5 -4t112.5 -11.5t88 -16.5v57q-35 6 -85 12t-108.5 9t-120.5 3q-67 0 -123.5 -11t-97.5 -34t-63.5 -59.5t-22.5 -88.5
q0 -48 20 -92t60 -85t98 -80q40 -27 85.5 -53t90 -49.5t82.5 -43t64 -33.5q18 -11 32 -19.5t27 -19.5zM268.5 107.5q23 62 49 123.5t53 115t50 92.5l-42 27q-23 -39 -50.5 -94t-56 -118t-54.5 -123z" />
</svg>
