<svg xmlns="http://www.w3.org/2000/svg" xmlns:xlink="http://www.w3.org/1999/xlink" version="1.1" viewBox="0 0 1000 1000">
   <path 
d="M106.5 195q28 -1 48.5 -2.5t35.5 -2.5l65 -6.5t106.5 -11t131.5 -12.5t139 -12q56 -5 103.5 -8.5t86.5 -5.5t71 -3v51q-29 -1 -65.5 0t-71.5 4.5t-60 12.5q-58 19 -103 57.5t-75.5 87t-46 99t-15.5 94.5q0 64 21.5 111t58.5 79t83 52t96.5 29.5t98.5 10.5l-19 50
q-51 -1 -105 -13t-105 -36t-91 -61.5t-63.5 -89.5t-23.5 -120q0 -82 30 -152t78 -122.5t101 -80.5q-34 3 -86 8.5t-111 11.5t-118 13t-108.5 13.5t-80.5 13.5z" />
</svg>
