<svg xmlns="http://www.w3.org/2000/svg" xmlns:xlink="http://www.w3.org/1999/xlink" version="1.1" viewBox="0 0 1000 1000">
   <path 
d="M921 830.5q-48 -55 -94.5 -92t-96 -56t-109.5 -19q-28 0 -53.5 10t-41 29t-15.5 43q0 44 34.5 65.5t82.5 21.5q56 0 89.5 -26t51.5 -71t24.5 -105t6.5 -128t-20 -117.5t-55 -76t-80 -26.5q-37 0 -83.5 19t-95 50.5t-93 70t-77.5 76.5l2 -65q32 -30 74 -64t89.5 -64
t97 -49t95.5 -19q65 0 108 37t64.5 99.5t21.5 140.5q0 86 -10.5 153.5t-35.5 114t-67 71t-104 24.5q-43 0 -80.5 -13t-60.5 -41t-23 -75q0 -38 21 -66.5t57 -44t81 -15.5q90 0 166 39t159 126zM299 308.5q-9 1 -33.5 4.5t-57 7.5t-66.5 9t-64 9l-5 -55q13 1 26 0.5t26 -1.5
q19 -1 48 -4t61.5 -7.5t61.5 -9.5t47 -11l23 25q-8 14 -19 30.5t-21.5 34t-18.5 31.5l-14 106q-18 28 -43.5 65.5t-54.5 79.5t-58.5 83.5t-55.5 77.5l-32 -43q18 -24 44.5 -59.5t55.5 -75.5t57 -79.5t49 -71.5t31 -49l5 -66zM291 157.5v-31.5t-3 -33.5l63 3q-4 16 -9 59
t-10.5 101.5t-10.5 124t-8 129.5t-3 116v83.5t1 69.5t2 78l2 26t2 25h-57q1 -7 2 -22.5t1 -27.5q0 -48 0.5 -82.5t0.5 -69.5v-85q0 -23 2 -62.5t5 -88.5t6.5 -99.5t6.5 -95.5t5 -76t2 -41z" />
</svg>
