<svg xmlns="http://www.w3.org/2000/svg" xmlns:xlink="http://www.w3.org/1999/xlink" version="1.1" viewBox="0 0 1000 1000">
   <path 
d="M80.5 195.5q28 -1 49 -2.5t36 -2.5q20 -2 65 -7t106 -11t131 -12.5t139 -12.5q57 -5 104 -8.5t86.5 -5.5t71.5 -3v51q-29 -1 -66 0t-72 4.5t-59 12.5q-59 20 -103.5 58.5t-75 86.5t-46.5 98.5t-16 94.5q0 64 22 111t59 79t83 52t96.5 29.5t97.5 10.5l-18 51
q-51 -1 -105.5 -13t-105 -36t-91 -62t-64 -90t-23.5 -120q0 -82 30.5 -152t78.5 -122.5t101 -80.5q-35 4 -86.5 9t-111 11.5t-118 13t-108 13.5t-80.5 13zM723.5 318.5q11 15 26.5 39.5t31 51t26.5 50.5l-38 18q-15 -34 -38 -73.5t-45 -68.5zM830.5 278.5q13 16 28.5 40
t32 50.5t28.5 50.5l-38 19q-17 -34 -40 -73t-46 -70z" />
</svg>
