<svg xmlns="http://www.w3.org/2000/svg" xmlns:xlink="http://www.w3.org/1999/xlink" version="1.1" viewBox="0 0 1000 1000">
   <path 
d="M553.5 112.5q-2 14 -5 35.5t-5 38.5q-6 53 -13.5 109t-19.5 113t-33 114q-24 67 -56.5 128.5t-70 108.5t-80.5 74t-91 27q-32 0 -57.5 -17.5t-40.5 -49.5t-15 -75q0 -73 22.5 -134.5t57.5 -110.5q25 -39 64.5 -78.5t92 -72t118 -53t143.5 -20.5q57 0 108.5 19t92.5 54.5
t64.5 88.5t23.5 121q0 80 -14 145.5t-43 113t-72.5 73t-103.5 25.5q-67 0 -106 -32.5t-39 -87.5q0 -33 19 -60.5t52.5 -44t77.5 -16.5q55 0 102.5 17.5t86.5 44t69 55.5t51 53l-33 42q-19 -24 -47 -53.5t-63 -56t-76.5 -44t-89.5 -17.5q-52 0 -78.5 24.5t-26.5 52.5
q0 34 26.5 56t73.5 22q53 0 88 -25.5t56.5 -69.5t31 -100t9.5 -115q0 -47 -15 -90.5t-46 -77.5t-76.5 -54t-105.5 -20q-82 0 -153.5 26.5t-128 73t-97.5 107.5q-23 36 -38.5 71t-23.5 70t-8 72q0 45 22 71.5t46 26.5q36 0 71 -23t68 -65t63.5 -98t53.5 -121q17 -48 29 -104
t19 -111.5t10 -98.5q2 -22 2 -40t-2 -39zM173.5 204.5q10 43 25 91t32.5 93.5t33.5 84.5t27 64q18 38 42.5 79t49.5 73l-29 39q-16 -19 -34.5 -46t-34.5 -56t-29 -56q-14 -31 -33 -76.5t-36 -93t-29 -82.5q-5 -18 -10.5 -34.5t-11 -31.5t-12.5 -30z" />
</svg>
