<svg xmlns="http://www.w3.org/2000/svg" xmlns:xlink="http://www.w3.org/1999/xlink" version="1.1" viewBox="0 0 1000 1000">
   <path 
d="M669.5 165q8 44 21.5 98t37 110.5t60.5 111.5t91 103l-35 44q-56 -58 -96.5 -125t-71.5 -148t-59 -179zM63.5 220q22 2 52 0q32 -1 76.5 -6t90.5 -12t84.5 -15.5t58.5 -16.5l15 47q-10 2 -27 6.5t-28 9.5q-18 13 -46 42t-59 71.5t-57.5 95t-44 112t-17.5 123.5
q0 59 17.5 98t47.5 62t67.5 33.5t76.5 10.5q123 0 193.5 -81.5t88.5 -229.5t-16 -347l47 102q14 89 15 176t-17 164.5t-56.5 137.5t-102 94.5t-153.5 34.5q-58 0 -105.5 -16.5t-81.5 -47.5t-51.5 -76.5t-17.5 -104.5q0 -75 19 -141.5t49 -123t65 -102t67 -78.5
q-28 5 -65.5 10.5t-71.5 10t-54 7.5q-14 1 -27 3t-28 4zM759.5 175q0 29 20 49.5t50 20.5q29 0 49.5 -20.5t20.5 -49.5q0 -30 -20.5 -50.5t-49.5 -20.5q-30 0 -50 20.5t-20 50.5zM722.5 175q0 -30 14.5 -54.5t38.5 -38.5t54 -14q29 0 53 14t39 38.5t15 54.5q0 29 -15 53.5
t-39 38.5t-53 14q-30 0 -54 -14t-38.5 -38.5t-14.5 -53.5z" />
</svg>
