<svg xmlns="http://www.w3.org/2000/svg" xmlns:xlink="http://www.w3.org/1999/xlink" version="1.1" viewBox="0 0 1000 1000">
   <path 
d="M781 267q0 29 20.5 50.5t50.5 21.5t51.5 -21.5t21.5 -50.5q0 -30 -21.5 -52t-51.5 -22t-50.5 22t-20.5 52zM743 267q0 -31 15 -56t39.5 -39.5t54.5 -14.5q31 0 56 14.5t39.5 39.5t14.5 56q0 30 -14.5 55t-39.5 39.5t-56 14.5q-30 0 -54.5 -14.5t-39.5 -39.5t-15 -55z
M513 331q21 -14 41.5 -29t32.5 -25q-22 -20 -60 -43.5t-81 -46t-81 -38.5l29 -37q37 16 82.5 39.5t88.5 49t70 48.5l12 36q-8 7 -20 16.5t-26 20l-28 21t-28 20.5zM306 818q36 11 74.5 17t91.5 6q22 0 47.5 -8t44 -28.5t18.5 -58.5q0 -27 -12.5 -56.5t-32.5 -60t-44 -60
t-47 -55.5q-15 -18 -35 -37t-38 -37l36 -33q16 17 34 37t35 38q43 46 78 91t56.5 89.5t21.5 89.5q0 43 -16.5 70.5t-41.5 41.5t-52 19t-47 5q-51 0 -91.5 -4.5t-72.5 -11.5zM897 833q-12 -35 -30.5 -77t-41.5 -84.5t-48.5 -80.5t-52.5 -66l41 -25q27 32 53.5 71t50.5 81.5
t43 82.5t31 71zM324 635q-29 29 -71.5 66t-90.5 72t-94 62l-30 -42q30 -16 66 -40t71.5 -51.5t67 -54.5t51.5 -50z" />
</svg>
