<svg xmlns="http://www.w3.org/2000/svg" xmlns:xlink="http://www.w3.org/1999/xlink" version="1.1" viewBox="0 0 1000 1000">
   <path 
d="M521.5 331q22 -13 42.5 -28.5t32.5 -25.5q-22 -19 -60 -42.5t-81 -46.5t-82 -39l30 -37q37 16 82.5 40t88.5 49.5t69 47.5l13 36q-9 7 -21 16.5t-25.5 20t-28 21.5t-27.5 20zM315.5 819q36 10 74 16t92 6q22 0 47.5 -8t44 -28.5t18.5 -58.5q0 -27 -12.5 -56.5
t-32.5 -59.5t-44 -60t-47 -56q-15 -18 -35 -37t-38 -36l36 -34q16 17 34 37t35 38q42 46 77.5 91t56.5 89.5t21 89.5q0 43 -16.5 70.5t-41 41.5t-51.5 19t-47 5q-51 0 -91.5 -4.5t-72.5 -10.5zM905.5 833q-11 -35 -29.5 -76.5t-41.5 -84.5t-48.5 -81t-52.5 -66l41 -25
q27 32 53.5 71t50.5 81.5t43 82.5t31 72zM333.5 635q-30 30 -72 66.5t-90 72t-94 61.5l-30 -42q30 -16 66 -40t71.5 -51.5t67 -54.5t51.5 -50z" />
</svg>
