<svg xmlns="http://www.w3.org/2000/svg" xmlns:xlink="http://www.w3.org/1999/xlink" version="1.1" viewBox="0 0 1000 1000">
   <path 
d="M512.5 331q21 -14 41.5 -29t32.5 -25q-22 -20 -60 -43.5t-81 -46t-81 -38.5l29 -37q37 16 82.5 39.5t88.5 49t70 48.5l12 36q-8 7 -20 16.5t-26 20l-28 21t-28 20.5zM305.5 818q36 11 74.5 17t91.5 6q22 0 47.5 -8t44 -28.5t18.5 -58.5q0 -27 -12.5 -56.5t-32.5 -60
t-44 -60t-47 -55.5q-15 -18 -35 -37t-38 -37l36 -33q16 17 34 37t35 38q43 46 78 91t56.5 89.5t21.5 89.5q0 43 -16.5 70.5t-41.5 41.5t-52 19t-47 5q-51 0 -91.5 -4.5t-72.5 -11.5zM896.5 833q-12 -35 -30.5 -77t-41.5 -84.5t-48.5 -80.5t-52.5 -66l41 -25q27 32 53.5 71
t50.5 81.5t43 82.5t31 71zM323.5 635q-29 29 -71.5 66t-90.5 72t-94 62l-30 -42q30 -16 66 -40t71.5 -51.5t67 -54.5t51.5 -50zM770.5 207q13 18 28.5 42t30 49t25.5 47l-39 18q-14 -31 -38 -71t-44 -68zM876.5 170q13 18 29.5 42.5t31.5 49.5t25 44l-38 19q-17 -34 -40 -72
t-45 -66z" />
</svg>
