<svg xmlns="http://www.w3.org/2000/svg" xmlns:xlink="http://www.w3.org/1999/xlink" version="1.1" viewBox="0 0 1000 1000">
   <path 
d="M697 117q8 44 22 97.5t37.5 110.5t60.5 112t91 103l-35 44q-56 -58 -97 -125t-72 -148t-58 -179zM92 172q21 2 52 0q32 -1 76.5 -6t90 -12.5t84 -15.5t58.5 -16l15 47q-9 2 -26.5 6.5t-28.5 8.5q-17 14 -45.5 43t-59 71t-57.5 95t-44 112.5t-17 123.5q0 59 17.5 98t47 62
t67 33.5t77.5 10.5q123 0 193 -81.5t88.5 -229.5t-16.5 -347l48 102q14 89 14.5 176t-17 164.5t-56.5 137.5t-102 94t-153 34q-59 0 -106 -16t-81 -47t-52 -77t-18 -104q0 -75 19 -141.5t49.5 -123t65.5 -102t67 -78.5q-29 5 -66 10.5t-71 10t-55 7.5q-13 1 -26 3t-28 4z
" />
</svg>
