<svg xmlns="http://www.w3.org/2000/svg" xmlns:xlink="http://www.w3.org/1999/xlink" version="1.1" viewBox="0 0 1000 1000">
   <path 
d="M62 631q17 -13 32 -27t33 -32q22 -22 47.5 -53t53.5 -66.5t54 -68.5t48 -60q38 -46 74.5 -51.5t82.5 43.5q28 30 61 69t68.5 80t68.5 77q21 25 51 57t64.5 66.5t69.5 69t68 63.5l-41 45q-39 -38 -82 -83t-84 -91.5t-77 -85.5q-34 -37 -69 -79t-67 -79.5t-55 -62.5
q-23 -26 -39.5 -32.5t-31 3t-32.5 32.5q-19 24 -44.5 55.5t-52.5 65.5t-52.5 66.5t-46.5 56.5q-14 18 -29.5 36.5t-26.5 32.5zM687 205q12 17 30 45.5t36 59t30 55.5l-42 19q-11 -24 -27 -53t-33.5 -58t-33.5 -50zM813 157q13 16 31.5 44t37 58.5t30.5 53.5l-40 20
q-12 -23 -29 -52t-34.5 -57.5t-33.5 -48.5z" />
</svg>
