<svg xmlns="http://www.w3.org/2000/svg" xmlns:xlink="http://www.w3.org/1999/xlink" version="1.1" viewBox="0 0 1000 1000">
   <path 
d="M343.5 328q42 4 82.5 6t83.5 2q90 0 178 -7t162 -21v49q-80 14 -167.5 20.5t-174.5 6.5q-42 0 -81 -2t-83 -5v-49zM675.5 142q-2 16 -3.5 29.5t-2.5 28.5q-1 19 -2 47.5t-1 59v56.5q0 50 2 106t5.5 112t5.5 106t2 91q0 26 -7 52t-24.5 48.5t-48.5 36t-80 13.5
q-98 0 -147.5 -36t-49.5 -96q0 -37 22.5 -68.5t66 -50.5t107.5 -19q59 0 110 13.5t95 36t82.5 50.5t71.5 58l-29 44q-49 -47 -100.5 -83.5t-109 -57.5t-125.5 -21q-64 0 -104.5 26t-40.5 67q0 43 38 67t100 24q49 0 76 -15.5t37.5 -42t10.5 -62.5q0 -27 -2 -75t-5 -104.5
t-5 -114t-2 -103.5v-92t1 -72q0 -13 -0.5 -29.5t-2.5 -29.5h59zM178.5 147q-2 7 -5 16t-5 19t-4 19q-6 33 -13.5 73t-14.5 84.5t-12 89.5t-8 87.5t-3 77.5q0 49 3.5 91.5t10.5 92.5q8 -26 19.5 -57.5t23.5 -62.5t21 -54l29 22q-11 31 -26 71.5t-27.5 78t-17.5 60.5
q-2 10 -3.5 22.5t-0.5 22.5q1 7 2 16t2 15l-45 4q-15 -55 -26 -134.5t-11 -180.5q0 -55 5.5 -115t14 -118.5t16 -108t12.5 -81.5q2 -15 3.5 -29.5t1.5 -26.5zM762.5 168q0 28 19 47t47 19t47.5 -19t19.5 -47t-19.5 -47.5t-47.5 -19.5t-47 19.5t-19 47.5zM726.5 168
q0 -43 29.5 -73t72.5 -30t73.5 30t30.5 73t-30.5 73t-73.5 30t-72.5 -30t-29.5 -73z" />
</svg>
