<svg xmlns="http://www.w3.org/2000/svg" xmlns:xlink="http://www.w3.org/1999/xlink" version="1.1" viewBox="0 0 1000 1000">
   <path 
d="M672.5 164.5q8 44 21.5 98t37 110.5t60.5 111.5t91 103l-35 44q-56 -58 -96.5 -125t-71.5 -148t-59 -179zM66.5 219.5q22 2 52 0q32 -1 76.5 -6t90.5 -12t84.5 -15.5t58.5 -16.5l15 47q-10 2 -27 6.5t-28 9.5q-18 13 -46 42t-59 71.5t-57.5 95t-44 112t-17.5 123.5
q0 59 17.5 98t47.5 62t67.5 33.5t76.5 10.5q123 0 193.5 -81.5t88.5 -229.5t-16 -347l47 102q14 89 15 176t-17 164.5t-56.5 137.5t-102 94.5t-153.5 34.5q-58 0 -105.5 -16.5t-81.5 -47.5t-51.5 -76.5t-17.5 -104.5q0 -75 19 -141.5t49 -123t65 -102t67 -78.5
q-28 5 -65.5 10.5t-71.5 10t-54 7.5q-14 1 -27 3t-28 4zM758.5 107.5q10 17 24 42t27.5 50t22.5 46l-39 16q-9 -22 -22 -47.5t-25.5 -50.5t-23.5 -42zM857.5 68.5q16 25 38 65t38 71l-39 17q-15 -34 -35 -73t-38 -65z" />
</svg>
