<svg xmlns="http://www.w3.org/2000/svg" xmlns:xlink="http://www.w3.org/1999/xlink" version="1.1" viewBox="0 0 1000 1000">
   <path 
d="M352.5 91q-1 13 -3 36.5t-2 40.5v59v88v92v69l-46 -35v-55v-80t-0.5 -81t-0.5 -57t-1 -41.5t-4 -35.5h57zM710.5 198q22 15 48 36.5t53 46.5t51 50t41 47l-36 36q-22 -31 -56.5 -66t-69.5 -66t-63 -50zM96.5 231q46 8 82 11t75 3q69 0 146.5 -11.5t147.5 -29.5v51
q-46 10 -97 18t-101 13t-94 5q-33 0 -75 -2.5t-82 -8.5zM320.5 674q0 10 -2 29t-3 39.5t-1 35.5q0 23 6 39.5t23 26t53 14t96 4.5q30 0 65 -2.5t66 -6.5t48 -8q39 -12 64 -37t25 -81q0 -30 -1 -55t-4 -52l54 18q1 16 1 32t0.5 32.5t-0.5 37.5q-1 48 -15.5 77.5t-40 46.5
t-63.5 26q-22 5 -57 9.5t-73.5 7t-71.5 2.5q-54 0 -92.5 -4t-64 -12.5t-39 -21t-19.5 -30.5t-6 -41q0 -28 1 -53.5t4 -52.5zM371.5 531q0 28 -6 63.5t-21 68.5t-43 55t-74 22q-23 0 -50.5 -14t-47 -45.5t-19.5 -86.5q0 -46 18 -89.5t52.5 -71.5t80.5 -28q51 0 80.5 36
t29.5 90zM233.5 692q34 0 53.5 -24t28 -60.5t8.5 -72.5q0 -41 -17.5 -64t-47.5 -23q-27 0 -51 19t-38 51.5t-14 75.5q0 47 23.5 72.5t54.5 25.5z" />
</svg>
