<svg xmlns="http://www.w3.org/2000/svg" xmlns:xlink="http://www.w3.org/1999/xlink" version="1.1" viewBox="0 0 1000 1000">
   <path 
d="M62 624.5q17 -13 32 -27t33 -32q22 -22 47.5 -53t53.5 -66.5t54 -68.5t48 -60q38 -46 74.5 -51.5t82.5 43.5q28 30 61 69t68.5 80t68.5 77q21 25 51 57t64.5 66.5t69.5 69t68 63.5l-41 45q-39 -38 -82 -83t-84 -91.5t-77 -85.5q-34 -37 -69 -79t-67 -79.5t-55 -62.5
q-23 -26 -39.5 -32.5t-31 3t-32.5 32.5q-19 24 -44.5 55.5t-52.5 65.5t-52.5 66.5t-46.5 56.5q-14 18 -29.5 36.5t-26.5 32.5zM695 280.5q0 33 23.5 56.5t56.5 23.5t56 -23.5t23 -56.5t-23 -56t-56 -23t-56.5 23t-23.5 56zM658 280.5q0 -33 16 -59t42.5 -42t58.5 -16t59 16
t42.5 42t15.5 59q0 32 -15.5 59t-42.5 43t-59 16t-58.5 -16t-42.5 -43t-16 -59z" />
</svg>
