<svg xmlns="http://www.w3.org/2000/svg" xmlns:xlink="http://www.w3.org/1999/xlink" version="1.1" viewBox="0 0 1000 1000">
   <path 
d="M637.5 241v77v80.5v71.5q0 44 2 93t4.5 96.5t4.5 88t2 68.5q0 57 -40 87.5t-111 30.5q-53 0 -94.5 -15t-64.5 -43.5t-23 -71.5q0 -30 18 -59t58.5 -47.5t105.5 -18.5q62 0 115 13t97.5 34.5t82 49t69.5 54.5l-28 47q-48 -49 -102.5 -84t-113.5 -54.5t-120 -19.5t-99 23.5
t-38 59.5q0 43 37 65t98 22q45 0 68 -14t31 -37.5t8 -51.5q0 -20 -1.5 -57t-4.5 -81.5t-5 -90t-2 -84.5v-75.5v-85v-71.5h46zM341.5 447q88 6 176 5t169.5 -7t147.5 -13v48q-63 6 -145.5 11.5t-171.5 7t-176 -3.5v-48zM357.5 216q75 5 150.5 5t145.5 -5t126 -12v46
q-55 5 -125 9.5t-146 5.5t-151 -2v-47zM165.5 169q-3 7 -5.5 16t-4.5 18.5t-4 18.5q-7 33 -14 72.5t-13.5 83t-11.5 87t-8 85t-3 77.5q0 49 3.5 91.5t9.5 92.5q8 -26 19.5 -58.5t23.5 -63.5t22 -53l28 23q-11 30 -25.5 71t-27 79t-17.5 61q-2 10 -3.5 22t-1.5 21q1 8 2 16.5
t2 14.5l-46 4q-15 -55 -25.5 -134.5t-10.5 -180.5q0 -54 5.5 -113t13.5 -116t16 -105t12 -81q3 -15 4 -29t2 -26zM775.5 155q0 28 19 47t48 19q27 0 47 -19t20 -47q0 -27 -20 -47t-47 -20q-29 0 -48 20t-19 47zM739.5 155q0 -43 29.5 -73t73.5 -30q42 0 72.5 30t30.5 73
t-30.5 72.5t-72.5 29.5q-44 0 -73.5 -29.5t-29.5 -72.5z" />
</svg>
