<svg xmlns="http://www.w3.org/2000/svg" xmlns:xlink="http://www.w3.org/1999/xlink" version="1.1" viewBox="0 0 1000 1000">
   <path 
d="M448.5 95q-4 16 -6 29.5t-4 29.5q-4 31 -9.5 75t-12 94t-12.5 102.5t-11.5 102t-9 90.5t-3.5 69q0 79 44.5 126t136.5 47q80 0 140 -21t94 -62.5t34 -99.5q0 -50 -27 -106.5t-86 -103.5l57 -11q52 53 79 107t27 119q0 73 -40.5 124t-112 77t-164.5 26q-61 0 -114 -20.5
t-85 -67.5t-32 -127q0 -33 4.5 -85t12 -114t16 -125.5t15 -120.5t9.5 -98q3 -21 3 -35t-2 -25zM149.5 233q42 13 91.5 21.5t99.5 13t90 4.5q57 0 108.5 -3t99.5 -9l-1 49q-51 4 -99 6.5t-108 2.5q-40 0 -90 -5t-101 -13t-94 -19zM123.5 482q45 16 96.5 25.5t103 13.5t95.5 4
q55 0 106.5 -2.5t106.5 -10.5l-1 50q-55 6 -105 8t-102 2q-72 0 -153.5 -9t-149.5 -31z" />
</svg>
