<svg xmlns="http://www.w3.org/2000/svg" xmlns:xlink="http://www.w3.org/1999/xlink" version="1.1" viewBox="0 0 1000 1000">
   <path 
d="M644.5 216.5v77v80.5v71.5q0 44 2 93t4.5 96.5t4.5 88t2 68.5q0 57 -40 87.5t-111 30.5q-53 0 -94.5 -15t-64.5 -43.5t-23 -71.5q0 -30 18 -59t58.5 -47.5t105.5 -18.5q62 0 115 13t97.5 34.5t82 49t69.5 54.5l-28 47q-48 -49 -102.5 -84t-113.5 -54.5t-120 -19.5
t-99 23.5t-38 59.5q0 43 37 65t98 22q45 0 68 -14t31 -37.5t8 -51.5q0 -20 -1.5 -57t-4.5 -81.5t-5 -90t-2 -84.5v-75.5v-85v-71.5h46zM348.5 422.5q88 6 176 5t169.5 -7t147.5 -13v48q-63 6 -145.5 11.5t-171.5 7t-176 -3.5v-48zM364.5 191.5q75 5 150.5 5t145.5 -5
t126 -12v46q-55 5 -125 9.5t-146 5.5t-151 -2v-47zM172.5 144.5q-3 7 -5.5 16t-4.5 18.5t-4 18.5q-7 33 -14 72.5t-13.5 83t-11.5 87t-8 85t-3 77.5q0 49 3.5 91.5t9.5 92.5q8 -26 19.5 -58.5t23.5 -63.5t22 -53l28 23q-11 30 -25.5 71t-27 79t-17.5 61q-2 10 -3.5 22
t-1.5 21q1 8 2 16.5t2 14.5l-46 4q-15 -55 -25.5 -134.5t-10.5 -180.5q0 -54 5.5 -113t13.5 -116t16 -105t12 -81q3 -15 4 -29t2 -26zM775.5 107.5q9 18 21 43t23.5 51t18.5 47l-38 14q-7 -22 -18 -48t-22 -51.5t-21 -43.5zM874.5 76.5q10 17 21.5 42.5t23 51.5t19.5 47
l-39 14q-12 -34 -29 -74.5t-33 -67.5z" />
</svg>
