<svg xmlns="http://www.w3.org/2000/svg" xmlns:xlink="http://www.w3.org/1999/xlink" version="1.1" viewBox="0 0 1000 1000">
   <path 
d="M679 185.5v77v81v71q0 44 2 93t4.5 96.5t4.5 88t2 68.5q0 57 -40.5 87.5t-111.5 30.5q-53 0 -94 -15t-64.5 -43.5t-23.5 -71.5q0 -30 18.5 -59t58.5 -47.5t106 -18.5q61 0 114 13t97.5 34.5t82.5 49t70 55.5l-29 47q-47 -49 -101.5 -84.5t-113.5 -54.5t-121 -19
q-60 0 -98 23t-38 60q0 43 36.5 64.5t97.5 21.5q46 0 68.5 -14t31 -37.5t8.5 -51.5q0 -20 -2 -56.5t-5 -81.5t-4.5 -90.5t-1.5 -84.5v-75.5v-84.5v-72h46zM383 391.5q87 6 175.5 5t169.5 -7t147 -13v48q-63 7 -145 12t-171.5 6.5t-175.5 -3.5v-48zM398 160.5q56 4 117.5 5
t122.5 -1.5t116 -7t98 -11.5v47q-42 4 -96.5 8t-116 6.5t-123.5 3t-118 -2.5v-47zM206 113.5q-2 7 -5 16t-5 18.5t-4 18.5q-6 33 -13.5 72.5t-13.5 83t-11.5 87t-8.5 85t-3 77.5q0 49 3.5 91.5t9.5 92.5q9 -26 20.5 -58t23.5 -63.5t21 -53.5l29 24q-12 29 -26.5 70.5t-27 79
t-17.5 60.5q-2 10 -3.5 22t-0.5 22q1 7 1.5 15.5t1.5 14.5l-45 4q-15 -55 -26 -134.5t-11 -180.5q0 -54 5.5 -113t13.5 -116t16 -105t13 -80q2 -16 3.5 -30t1.5 -26z" />
</svg>
