<svg xmlns="http://www.w3.org/2000/svg" xmlns:xlink="http://www.w3.org/1999/xlink" version="1.1" viewBox="0 0 1000 1000">
   <path 
d="M655.5 100.5q-2 11 -4.5 23t-4.5 23t-4 19q-12 60 -31.5 126t-42.5 130.5t-49.5 120t-52.5 95.5q-33 49 -70.5 92.5t-78.5 69.5t-87 26q-36 0 -65 -19t-46 -57t-17 -92q0 -61 23 -121t63 -111t89 -85q71 -50 144 -71.5t148 -21.5q95 0 169.5 40t116.5 111t42 165
q0 95 -43.5 166.5t-123.5 115.5t-189 59l-29 -45q76 -7 138 -30t106 -61t67.5 -90t23.5 -117q0 -77 -35 -138t-99.5 -96.5t-149.5 -35.5q-70 0 -137.5 22.5t-129.5 69.5q-44 32 -77.5 78t-52 96t-18.5 98q0 56 23.5 89t61.5 33q27 0 55 -16.5t54.5 -43t50 -58t42.5 -62.5
q22 -36 45.5 -86t45.5 -109t40 -121t28 -121q3 -11 4.5 -30t1.5 -35zM253.5 153.5q4 18 9.5 40.5t11.5 43.5q8 33 22.5 76t31.5 87.5t34.5 83.5t32.5 65q26 46 59 93.5t69 81.5l-39 34q-31 -33 -62 -75.5t-61 -97.5q-16 -27 -33.5 -66t-36 -84.5t-34.5 -92.5t-29 -89
q-6 -22 -14 -45t-15 -38z" />
</svg>
