<svg xmlns="http://www.w3.org/2000/svg" xmlns:xlink="http://www.w3.org/1999/xlink" version="1.1" viewBox="0 0 1000 1000">
   <path 
d="M215.5 121q18 2 36.5 2.5t33.5 0.5q19 0 52 -1.5t69.5 -3t68 -3.5t46.5 -3q12 -1 21 -3t17 -5l33 27q-5 6 -10.5 13t-11.5 16q-15 24 -37 70.5t-47 102t-49 106.5q-15 33 -33 73.5t-36.5 83t-37 78.5t-35.5 59q-24 34 -50.5 46.5t-57.5 12.5q-50 0 -83 -34t-33 -89
q0 -54 24 -100.5t68 -81.5t105 -54t135 -19q82 0 159 19.5t145 49.5t124 64t97 64l-25 54q-43 -36 -98 -72.5t-120.5 -67t-138.5 -48.5t-150 -18q-88 0 -150.5 29.5t-95 76.5t-32.5 99q0 38 21.5 58t48.5 20q19 0 34 -7.5t31 -27.5q18 -22 36 -54.5t35 -71.5t34 -77.5
t31 -70.5q22 -47 44 -96t43.5 -95t39.5 -84q-15 1 -45.5 2t-66.5 3t-67.5 3.5t-48.5 2.5t-35 2t-35 4zM821.5 330q-6 107 -21.5 193.5t-49 154.5t-89.5 121.5t-142 95.5l-42 -36q86 -36 140.5 -87t86 -112t45.5 -126t19 -127q1 -19 1.5 -40.5t-1.5 -41.5z" />
</svg>
