<svg xmlns="http://www.w3.org/2000/svg" xmlns:xlink="http://www.w3.org/1999/xlink" version="1.1" viewBox="0 0 1000 1000">
   <path 
d="M533.5 89q-1 12 -2 26.5t-2 38.5q-1 12 -1 40v64v73v69q0 55 2 112t4.5 109t5 93t2.5 64q0 30 -14 61t-50 51.5t-101 20.5q-101 0 -155.5 -34t-54.5 -102q0 -43 27 -74.5t77 -49t119 -17.5q77 0 145.5 19t126 47.5t101.5 58.5t71 52l-30 47q-33 -30 -77 -61.5
t-97.5 -58.5t-115 -43.5t-130.5 -16.5q-83 0 -126 27.5t-43 67.5q0 25 15.5 46.5t50.5 34t92 12.5q31 0 57.5 -8t43 -29t16.5 -58q0 -33 -1.5 -82.5t-3 -104.5t-3 -103.5t-1.5 -80.5v-65v-65.5v-64.5v-61q0 -12 -0.5 -29.5t-2.5 -25.5h55zM170.5 207q23 4 56.5 8t70.5 7.5
t72 5t61 1.5q92 0 190 -8t188 -22v48q-59 7 -122.5 13t-127.5 9.5t-127 3.5q-36 0 -85.5 -2.5t-97 -7t-78.5 -7.5v-49zM165.5 417q29 4 62 7.5t67.5 5.5t67.5 3.5t61 1.5q61 0 125.5 -3t131.5 -10t134 -17v50q-50 6 -100 11t-98.5 8.5t-96.5 5t-96 1.5q-37 0 -82.5 -2
t-91 -5t-83.5 -7z" />
</svg>
