<svg xmlns="http://www.w3.org/2000/svg" xmlns:xlink="http://www.w3.org/1999/xlink" version="1.1" viewBox="0 0 1000 1000">
   <path 
d="M554.5 279q-21 -23 -50 -50t-58 -46l36 -28q13 9 32.5 25.5t39.5 34t35 33.5zM291.5 228q6 10 11 20l10 20q15 25 35 64.5t41 83.5t38 83q18 40 35 84.5t32.5 88.5t29 84.5t23.5 72.5l-51 16q-13 -46 -30 -101t-37 -113.5t-44 -111.5q-21 -46 -41.5 -89.5t-38 -78.5
t-29.5 -53q-7 -10 -17 -25t-19 -24zM148.5 464q19 -4 34.5 -9t25.5 -9q28 -11 70.5 -30.5t94 -42.5t105 -43t103.5 -33.5t89 -13.5q63 0 103 21t59 55t19 76q0 68 -45.5 112.5t-143.5 44.5q-35 0 -68.5 -8t-54.5 -17l3 -48q22 10 53.5 19t66.5 9q56 0 87 -17t43.5 -43
t12.5 -53q0 -23 -12 -48t-41 -42t-83 -17q-40 0 -93 15.5t-110.5 39t-113 50t-101.5 49t-75 36.5z" />
</svg>
