<svg xmlns="http://www.w3.org/2000/svg" xmlns:xlink="http://www.w3.org/1999/xlink" version="1.1" viewBox="0 0 1000 1000">
   <path 
d="M322.5 90q-9 33 -17 76t-14.5 88t-11 86t-6.5 70q14 -44 41 -90.5t64.5 -86t83.5 -64.5t97 -25q64 0 113 41.5t76.5 117t27.5 177.5t-31 177t-87 126t-131 82.5t-164 46.5l-31 -46q81 -12 151.5 -37.5t125 -70.5t85 -113t30.5 -164q0 -80 -18.5 -146t-56.5 -105.5
t-97 -39.5q-48 0 -94 30.5t-83.5 78.5t-61.5 103t-30 104q-5 33 -5 63t6 70l-51 4q-3 -28 -6.5 -67.5t-3.5 -86.5q0 -36 4 -81t9 -91.5t10.5 -87t9.5 -65.5q3 -20 4.5 -37.5t3.5 -38.5z" />
</svg>
