<svg xmlns="http://www.w3.org/2000/svg" xmlns:xlink="http://www.w3.org/1999/xlink" version="1.1" viewBox="0 0 1000 1000">
   <path 
d="M585 240q-20 -20 -46 -44t-53 -47t-49 -39l36 -28q17 12 44 34t55.5 47t48.5 46zM240 166q4 7 9.5 18t12 22t11.5 21q28 50 63 121t68 143q22 49 43 104.5t40 110.5t35.5 105t29.5 91l-55 16q-15 -57 -36 -125.5t-46 -140.5t-55 -141q-26 -55 -50 -106t-44.5 -90.5
t-35.5 -63.5q-8 -14 -20 -32t-23 -31zM86 457q17 -4 38 -11t34 -13q34 -13 84 -35.5t109 -49t122 -51t123 -39.5t110 -15q65 0 111.5 21.5t71.5 61t25 91.5q0 50 -21.5 93t-69 69t-127.5 26q-42 0 -80 -9t-66 -19l1 -52q27 13 63.5 23t80.5 10q65 0 102 -21t52.5 -54
t15.5 -68q0 -33 -17 -62t-52 -47t-91 -18q-52 0 -114.5 18t-130.5 45.5t-133 58t-120.5 58t-93.5 44.5z" />
</svg>
