<svg xmlns="http://www.w3.org/2000/svg" xmlns:xlink="http://www.w3.org/1999/xlink" version="1.1" viewBox="0 0 1000 1000">
   <path 
d="M534 93.5q-1 9 -3 25.5t-3 34t-1 29.5v86.5v109.5q0 40 2 93t4.5 108.5t4.5 105t2 82.5q0 29 -10 54t-30 44t-51.5 30t-73.5 11q-67 0 -118.5 -14.5t-80 -46.5t-28.5 -82q0 -41 24.5 -75t77.5 -54.5t136 -20.5q72 0 139 16t127.5 43.5t111 61.5t88.5 68l-31 49
q-37 -38 -86 -72.5t-106.5 -61.5t-120 -43t-126.5 -16q-89 0 -137 28.5t-48 75.5q0 44 44 70.5t128 26.5q59 0 90 -27.5t31 -81.5q0 -28 -2 -74.5t-4 -100t-4 -105.5t-2 -92v-65.5v-73.5v-57q0 -14 -1 -31.5t-2.5 -33.5t-3.5 -24h63zM496 301.5q28 0 69 -1t87.5 -3.5
t93.5 -6t87 -8.5l2 49q-40 4 -86.5 7.5t-93.5 5.5t-88.5 3.5t-69.5 1.5z" />
</svg>
