<svg xmlns="http://www.w3.org/2000/svg" xmlns:xlink="http://www.w3.org/1999/xlink" version="1.1" viewBox="0 0 1000 1000">
   <path 
d="M262.5 202.5q-2 6 -4 15t-5 18q-4 22 -9.5 58.5t-9.5 77.5t-6 78.5t0 64.5q25 -77 79.5 -135t124.5 -90.5t143 -32.5q82 0 135.5 29.5t80 78t26.5 107.5q0 65 -26 119.5t-81.5 86.5t-144.5 32q-48 0 -91 -17.5t-77 -50t-57 -78.5l29 -38q29 65 79.5 101.5t120.5 36.5
q68 0 113 -25t67 -67.5t22 -96.5q0 -47 -19.5 -86.5t-62.5 -64t-114 -24.5q-66 0 -121.5 23t-97.5 62t-70 86t-39 94q-2 10 -5 25.5t-2 31.5q1 10 3.5 24.5t5 28.5t4.5 24l-43 7q-11 -34 -19.5 -90t-8.5 -114q0 -36 3 -76.5t6.5 -78.5t7.5 -68t6 -46q1 -11 1.5 -19.5
t-0.5 -15.5zM554.5 157.5q6 28 12 73.5t10.5 100t4.5 112.5q0 92 -16 168t-54.5 134t-102.5 97l-44 -30q48 -25 81 -60.5t53 -82t29.5 -103.5t9.5 -124q0 -96 -8.5 -154.5t-13.5 -86.5q-3 -11 -6.5 -22t-7.5 -20z" />
</svg>
