<svg xmlns="http://www.w3.org/2000/svg" xmlns:xlink="http://www.w3.org/1999/xlink" version="1.1" viewBox="0 0 1000 1000">
   <path 
d="M955.5 786.5q-42 45 -88.5 66.5t-91.5 21.5q-46 0 -74.5 -28t-28.5 -83q0 -43 6 -94t13 -104.5t13 -102.5t6 -87q0 -48 -23 -68t-65 -20q-35 0 -78 18.5t-88.5 51t-89.5 74t-83 86.5l3 -66q19 -21 48.5 -48.5t66 -56t76.5 -53t79.5 -39t74.5 -14.5q43 0 72 14.5t43.5 43
t14.5 68.5q0 36 -6.5 86.5t-14 105t-14 105t-6.5 88.5q0 28 14.5 49.5t46.5 21.5q40 0 81.5 -23t82.5 -67zM295.5 307.5q-9 1 -33.5 4.5t-57 7.5t-66.5 9t-64 9l-5 -54q13 1 26 0.5t26 -1.5q19 -2 48 -5t61.5 -7t61.5 -9t47 -11l23 24q-9 14 -19.5 30.5t-21 34t-18.5 32.5
l-14 106q-18 28 -43.5 66t-54.5 79.5t-58 83.5t-55 77l-34 -43q18 -24 44.5 -59t56 -75t57.5 -79.5t49 -71.5t31 -50l5 -66zM287.5 157.5q0 -14 -0.5 -31.5t-3.5 -33.5l64 3q-4 16 -9 59t-10.5 101.5t-10.5 124t-8 129.5t-3 116v83.5t1 69.5t2 78l2 26t2 25h-57
q2 -12 2.5 -25t0.5 -25q0 -48 0.5 -82.5t0.5 -69.5v-85q0 -23 2 -62.5t5 -88.5t6.5 -99.5t6.5 -95.5t5 -76t2 -41z" />
</svg>
