<svg xmlns="http://www.w3.org/2000/svg" xmlns:xlink="http://www.w3.org/1999/xlink" version="1.1" viewBox="0 0 1000 1000">
   <path 
d="M264.5 130.5q14 1 30.5 1.5t28.5 0.5q15 0 50.5 -0.5t81 -2.5l91 -4t80.5 -3.5t51 -2.5q17 -3 25.5 -4t15.5 -3l36 39q-12 8 -24.5 17.5t-25.5 20.5q-17 14 -51.5 43.5t-77 65.5t-84 71.5t-74.5 63.5q40 -15 82.5 -20.5t82.5 -5.5q82 0 144.5 29.5t97.5 80t35 115.5
q0 81 -43.5 138t-118.5 87t-172 30q-67 0 -112.5 -17.5t-69 -46.5t-23.5 -66q0 -30 17 -56.5t48.5 -42.5t73.5 -16q66 0 108.5 27.5t65.5 71t27 92.5l-46 10q-6 -70 -46 -115.5t-110 -45.5q-37 0 -64 21t-27 51q0 41 42.5 64t109.5 23q85 0 150.5 -24t102.5 -71t37 -115
q0 -51 -30 -92.5t-83 -66t-122 -24.5q-65 0 -116 12t-95 36t-88.5 61.5t-96.5 87.5l-38 -37q34 -29 74 -62t79.5 -65.5t73 -61t54.5 -46.5q21 -17 54 -45.5t70 -59.5t69.5 -59t51.5 -45q-16 1 -51 2t-78.5 3.5t-86.5 4t-77 3t-50 2.5l-28 2t-30 3z" />
</svg>
