<svg xmlns="http://www.w3.org/2000/svg" xmlns:xlink="http://www.w3.org/1999/xlink" version="1.1" viewBox="0 0 1000 1000">
   <path 
d="M529 166.5q-2 9 -4 32.5t-2 39.5v46.5v63.5v63q0 33 1.5 75t4 86t4 83.5t1.5 65.5q0 30 -14.5 55.5t-44 41t-77.5 15.5q-58 0 -100.5 -13.5t-66 -40.5t-23.5 -66q0 -57 53 -91t152 -34q61 0 116.5 14t104 37t88.5 50t70 54l-28 47q-30 -30 -70 -59t-86 -52t-96.5 -36.5
t-102.5 -13.5q-68 0 -112 21t-44 62q0 33 36.5 55.5t103.5 22.5q45 0 69 -23.5t24 -60.5q0 -23 -1.5 -60t-3.5 -79.5t-3.5 -83.5t-1.5 -74v-55.5v-66v-49.5t-1.5 -40t-3.5 -32h58zM498 324.5q22 0 57 -1.5t75.5 -3t81 -5t71.5 -7.5l1 46q-31 3 -70.5 6t-80.5 5.5t-76 3.5
t-58 1z" />
</svg>
