<svg xmlns="http://www.w3.org/2000/svg" xmlns:xlink="http://www.w3.org/1999/xlink" version="1.1" viewBox="0 0 1000 1000">
   <path 
d="M321 98.917q30 10 80 22t106 24t108 20t85 12l-13 49q-27 -4 -66.5 -11t-84.5 -15.5t-89 -17.5t-80.5 -18t-59.5 -15zM281 270.917q-5 28 -10.5 70t-11 87t-11.5 85t-10 66q75 -71 161.5 -104.5t182.5 -33.5q70 0 124.5 25t86 70t31.5 103q0 66 -31.5 118.5t-95 87
t-159.5 48.5t-226 4l-15 -53q163 18 268 -5.5t156.5 -77t51.5 -124.5q0 -44 -25.5 -78.5t-68.5 -53.5t-99 -19q-106 0 -189.5 38t-138.5 105q-10 11 -16 23t-10 22l-50 -12q6 -26 12.5 -65.5t12.5 -85.5t11.5 -92t9.5 -87t6 -68z" />
</svg>
