<svg xmlns="http://www.w3.org/2000/svg" xmlns:xlink="http://www.w3.org/1999/xlink" version="1.1" viewBox="0 0 1000 1000">
   <path 
d="M208.5 160.5q-2 7 -5 16.5t-5 22.5q-5 27 -11 72t-11 95.5t-7 97.5t1 80q20 -70 61.5 -129t98 -103t122 -68t135.5 -24q92 0 156 34.5t98 92t34 128.5q0 79 -32.5 143t-98.5 101.5t-167 37.5q-58 0 -108.5 -20.5t-91.5 -59t-69 -94.5l34 -36q24 52 58 88.5t79 55.5
t102 19q72 0 128 -27.5t87.5 -79.5t31.5 -125q0 -59 -27 -107.5t-80 -77.5t-133 -29q-79 0 -144.5 28t-116.5 75t-85 104t-49 114q-4 13 -6.5 32t-1.5 38q1 12 3 28.5t5 33.5t6 29l-44 8q-12 -44 -21.5 -111t-9.5 -137q0 -43 3.5 -89.5t8 -89.5t9 -78.5t6.5 -54.5
q1 -12 1.5 -21t-0.5 -18zM555.5 79.5q8 35 16.5 91.5t14 125.5t5.5 141q0 83 -10 155.5t-33 133.5t-62.5 110t-98.5 84l-45 -29q57 -30 96 -74t62.5 -101t33.5 -126.5t10 -151.5q0 -69 -4.5 -128.5t-11 -105t-11.5 -67.5q-3 -15 -7 -30t-9 -26z" />
</svg>
