<svg xmlns="http://www.w3.org/2000/svg" xmlns:xlink="http://www.w3.org/1999/xlink" version="1.1" viewBox="0 0 1000 1000">
   <path 
d="M262 133.13q13 1 28.5 1.5t33.5 0.5q16 0 50 -0.5t77 -1.5t86 -3t78.5 -3.5t54.5 -2.5q10 -1 23.5 -2.5t22.5 -5.5l36 42q-7 3 -19 11t-18 14q-31 27 -69.5 60.5t-80 68t-79.5 66.5t-69 58q51 -20 93.5 -27t78.5 -7q80 0 141 27t94.5 76.5t33.5 116.5q0 93 -62 155
t-175.5 88.5t-268.5 14.5l-14 -52q104 12 190 3t148.5 -36t96.5 -71.5t34 -103.5q0 -80 -61 -128t-164 -48q-68 0 -120.5 14.5t-96.5 41.5t-87.5 65.5t-94.5 85.5l-41 -40q46 -36 103.5 -83.5t118.5 -98.5t118.5 -100.5t103 -91.5t73.5 -68q-21 1 -55 2t-76 3t-82.5 3.5
t-72 3t-47.5 2.5q-15 1 -32 2.5t-31 3.5z" />
</svg>
