<svg xmlns="http://www.w3.org/2000/svg" xmlns:xlink="http://www.w3.org/1999/xlink" version="1.1" viewBox="0 0 1000 1000">
   <path 
d="M257.5 115q8 0 17.5 1t19.5 1.5t19 0.5q7 0 35 -0.5t67 -2t79.5 -2.5t73 -2t46.5 -2q21 -1 39 -4t25 -6l33 39q-17 6 -48 22t-68 37t-74.5 42.5t-67.5 38.5q32 -7 64 -10.5t61 -3.5q59 0 111 18t84 54.5t32 90.5q0 45 -23 79.5t-63 57.5t-91 34.5t-108 11.5
q-71 0 -117 -13.5t-69 -39t-23 -58.5q0 -31 21 -52.5t53.5 -33t64.5 -11.5q57 0 93.5 24t36.5 66q0 31 -25 55t-62 40q-6 1 -17 0.5t-13 0.5q-21 12 -50 32.5t-56 42.5t-46 38q46 -8 81.5 5.5t61 42.5t39.5 67q19 -38 48.5 -69.5t68 -50t79.5 -18.5q53 0 97 26t79.5 71.5
t60.5 103.5l-51 22q-34 -91 -83 -135.5t-107 -44.5q-32 0 -64 17t-57 46.5t-39 67.5q-4 9 -5.5 20.5t-2.5 19.5h-51l-2.5 -20t-4.5 -20q-18 -57 -51.5 -86.5t-81.5 -29.5q-37 0 -72.5 23.5t-69.5 60.5t-65 78l-46 -28q37 -41 81.5 -84.5t89.5 -84t87.5 -74t75.5 -56.5
q3 -1 10.5 -0.5t15 0t9.5 -0.5q25 -8 45.5 -20t33.5 -27t13 -31q0 -26 -26 -39.5t-61 -13.5q-20 0 -42 6t-36.5 19t-14.5 33t16.5 36t53 25.5t97.5 9.5q60 0 114 -17t87.5 -48t33.5 -74q0 -42 -26.5 -70t-69.5 -43t-93 -15q-42 0 -92.5 7.5t-90.5 25.5q-42 18 -92.5 50
t-113.5 80l-33 -39q40 -29 97.5 -65.5t122 -75t125 -73.5t104.5 -60q-11 0 -42 1t-72.5 2.5t-84.5 3t-79.5 3t-56.5 3.5z" />
</svg>
