<svg xmlns="http://www.w3.org/2000/svg" xmlns:xlink="http://www.w3.org/1999/xlink" version="1.1" viewBox="0 0 1000 1000">
   <path 
d="M225.5 125.5q12 1 29.5 2t31.5 0q19 0 56.5 -1.5t78.5 -3.5t71 -4q16 -2 28 -4.5t22 -6.5l39 27q-5 7 -10.5 17t-8.5 20q-11 38 -29 98.5t-41.5 133t-49.5 145.5q-20 56 -42 105t-45 86t-44 61q-22 24 -46 33.5t-56 9.5q-25 0 -47 -12.5t-36 -38.5t-14 -66
q0 -61 24.5 -120.5t68 -113t102 -95t128.5 -65t146 -23.5q97 0 165.5 40t104.5 107.5t36 149.5q0 55 -16 106t-51 91.5t-90.5 64.5t-133.5 24q-51 0 -87.5 -15t-56.5 -42.5t-20 -64.5q0 -34 18 -59.5t48 -39.5t66 -14q58 0 96.5 25t61 63t32.5 78l-43 19
q-14 -63 -50.5 -103.5t-95.5 -40.5q-36 0 -62 19t-26 50q0 39 34 60t82 21q77 0 132 -30.5t84 -85t29 -125.5q0 -69 -30 -126t-87.5 -92t-142.5 -35q-73 0 -137 23t-116 61.5t-89 86.5t-57.5 98t-20.5 95q0 36 17.5 54.5t37.5 18.5q16 0 32 -5.5t34 -22.5q18 -19 35 -46.5
t32.5 -59.5t29.5 -66.5t26 -67.5q24 -64 46.5 -132.5t40 -129t26.5 -101.5q-22 1 -57 3.5t-77 5t-82 5.5t-71 6z" />
</svg>
