<svg xmlns="http://www.w3.org/2000/svg" xmlns:xlink="http://www.w3.org/1999/xlink" version="1.1" viewBox="0 0 1000 1000">
   <path 
d="M532.5 765.5q78 -11 140.5 -39.5t99 -78t36.5 -121.5q0 -24 -10 -51.5t-31 -52t-55 -39.5t-81 -15q-50 0 -100 19t-95.5 51.5t-83.5 72.5v-50q47 -46 97 -76t98.5 -45t88.5 -15q59 0 108 25t79 70t30 107q0 82 -37 139.5t-103.5 93t-157.5 50.5zM350.5 218.5
q1 -11 1 -28.5t-1 -23.5l58 1q-4 16 -10.5 60t-13.5 102.5t-11.5 120.5t-4.5 116v75.5t1.5 74.5t2.5 76q1 10 1.5 20.5t1.5 20.5h-53q1 -6 1.5 -18.5t0.5 -21.5v-97t1 -121t4 -115q2 -28 5 -63t6.5 -70t6 -64t3.5 -45zM356.5 351.5q-9 1 -31 4.5t-50 8t-55.5 9t-50.5 8.5
l-6 -49q13 0 22.5 -0.5t16.5 -0.5q16 -1 42 -4t55.5 -7t55 -8.5t40.5 -9.5l22 22q-10 16 -27 43t-28 47l-12 65q-14 22 -36 54.5t-45.5 69t-47.5 72t-44 64.5l-31 -41q15 -18 36.5 -48t46 -64t48 -67.5t41.5 -60t26 -40.5l2 -43z" />
</svg>
