<svg xmlns="http://www.w3.org/2000/svg" xmlns:xlink="http://www.w3.org/1999/xlink" version="1.1" viewBox="0 0 1000 1000">
   <path 
d="M546.982 817.5q62 -8 121.5 -29t107 -55t75.5 -85t27 -118q0 -29 -11.5 -62.5t-36.5 -64t-65.5 -50t-97.5 -19.5q-96 0 -184.5 47t-160.5 122l-1 -57q92 -86 183.5 -122t168.5 -36q65 0 123.5 29t95 83.5t36.5 130.5q1 75 -26.5 131.5t-76.5 96.5t-114 66t-141 41z
M321.982 307.5q-8 2 -33 5t-57.5 7.5t-66.5 9.5t-64 9l-5 -55q13 1 26 0.5t26 -1.5q19 -2 48 -5t61 -7t61.5 -9t46.5 -11l24 24q-9 14 -19.5 30.5t-21 34t-18.5 32.5l-14 106q-18 28 -43.5 66t-54.5 79.5t-58 83.5t-55 77l-33 -43q18 -24 44.5 -59.5t55.5 -75.5t57 -79.5
t49 -71.5t31 -49l5 -66zM313.982 157.5q0 -14 -0.5 -31.5t-3.5 -33.5l64 3q-3 16 -8.5 59t-11 101.5t-10.5 124t-8 129.5t-3 116v83.5t1 69.5t2 78l2 26t2 25h-57q1 -7 2 -22.5t1 -27.5q0 -48 0.5 -82.5t0.5 -69.5v-85q0 -23 2 -62.5t5 -88.5t6.5 -99.5t6.5 -95.5t5 -76
t2 -41z" />
</svg>
