<svg xmlns="http://www.w3.org/2000/svg" xmlns:xlink="http://www.w3.org/1999/xlink" version="1.1" viewBox="0 0 1000 1000">
   <path 
d="M456 91.5q-7 31 -16 70t-28 88q-20 50 -50.5 103t-65.5 97q23 -16 49.5 -26.5t54 -16t51.5 -5.5q55 0 93.5 31t38.5 87v48.5t0.5 63t1.5 64.5t1 54h-52q1 -21 1.5 -50.5t1 -61.5t0.5 -60.5v-47.5q-1 -41 -28.5 -63t-71.5 -22q-51 0 -97.5 21t-84.5 55q-21 19 -43 45.5
t-47 55.5l-46 -33q77 -76 125.5 -140t76.5 -115t42 -86q18 -42 28 -84t12 -76zM134 208.5q41 5 86.5 7.5t78.5 2.5q68 0 144 -3.5t153 -10.5t146 -20v50q-52 8 -109.5 14t-116.5 9.5t-115 5t-105 1.5q-22 0 -49 -0.5t-56 -2t-57 -2.5v-51zM881 424.5q-11 4 -23 8t-24 9
t-23 10q-56 21 -127 50.5t-144 69.5q-52 27 -94 56.5t-67.5 62.5t-25.5 73q0 34 16.5 54t44.5 30.5t64.5 13.5t76.5 3q55 0 127.5 -5.5t138.5 -15.5l-1 51q-40 5 -87 9t-93.5 6.5t-87.5 2.5q-67 0 -124 -11.5t-91 -42.5t-34 -90q0 -41 19.5 -76t52.5 -64t74.5 -55t85.5 -48
q49 -26 94.5 -46.5t87.5 -38t76 -34.5q19 -9 34 -15.5t31 -15.5z" />
</svg>
