<svg xmlns="http://www.w3.org/2000/svg" xmlns:xlink="http://www.w3.org/1999/xlink" version="1.1" viewBox="0 0 1000 1000">
   <path 
d="M515.5 126.5q-5 8 -14 21.5t-18 28.5q-15 25 -40.5 69.5t-54.5 96.5t-56.5 103t-47.5 89q41 -42 85 -61t84 -19q47 0 79.5 29t34.5 87q1 34 1.5 68.5t0.5 67.5t1 59q2 43 28 62t62 19q48 0 85 -24.5t65 -63.5t46 -82t27 -79l42 34q-26 78 -63 137.5t-88 94t-121 34.5
q-52 0 -80.5 -19.5t-39.5 -47t-12 -53.5q-1 -31 -1.5 -64.5t-0.5 -68t-2 -66.5q-1 -36 -22.5 -57t-59.5 -21q-43 0 -85 25.5t-75.5 64t-54.5 77.5q-12 22 -26 54t-27.5 65.5t-23.5 63t-15 46.5l-54 -19q18 -51 47.5 -116t65 -137t72.5 -143t70.5 -133.5t59.5 -110t40 -71.5
q9 -17 16 -32t13 -32z" />
</svg>
