<svg xmlns="http://www.w3.org/2000/svg" xmlns:xlink="http://www.w3.org/1999/xlink" version="1.1" viewBox="0 0 1000 1000">
   <path 
d="M834 226q-3 5 -7.5 10t-7.5 11l-29 43.5t-45.5 62.5t-60 67t-71.5 58l-44 -31q39 -22 76.5 -58t67 -74t45.5 -64h-55h-94.5t-113 -0.5t-110.5 -0.5h-87.5h-43.5q-21 0 -44.5 0.5t-43.5 2.5v-56q19 2 43 3.5t45 1.5h44.5h90.5h113.5h115h96h52.5q5 0 12 -0.5l14 -1
t12 -2.5zM502 328q-1 69 -6 127t-18.5 107.5t-39.5 92t-66.5 79t-100.5 69.5l-49 -38q15 -5 31.5 -12.5t30.5 -16.5q73 -49 108 -106.5t46 -120t11 -128.5q0 -12 -1 -25.5t-3 -27.5h57z" />
</svg>
