<svg xmlns="http://www.w3.org/2000/svg" xmlns:xlink="http://www.w3.org/1999/xlink" version="1.1" viewBox="0 0 1000 1000">
   <path 
d="M513.5 92q-2 18 -3.5 35.5t-1.5 29.5v35v49.5v43.5h-52v-45v-49v-34q0 -12 -0.5 -29.5t-3.5 -35.5h61zM857.5 276q-3 8 -6.5 21.5t-5.5 27.5q-4 27 -12 64.5t-20 80.5t-29.5 85.5t-39.5 79.5q-36 61 -91 113.5t-129.5 93t-167.5 66.5l-42 -47q20 -3 41 -9t40 -12
q56 -17 112 -49t104.5 -76t80.5 -95q29 -46 49.5 -102.5t33 -112t16.5 -96.5h-596v45v59v56.5v36.5q0 12 1 27t3 24h-57q2 -10 2.5 -25.5t0.5 -26.5v-36v-52v-52v-37q0 -15 -0.5 -35.5t-2.5 -36.5q19 2 41 3.5t47 1.5h532q26 0 39 -2.5t21 -4.5z" />
</svg>
