<svg xmlns="http://www.w3.org/2000/svg" xmlns:xlink="http://www.w3.org/1999/xlink" version="1.1" viewBox="0 0 1000 1000">
   <path 
d="M893.5 167q-5 5 -10.5 12t-10.5 14q-17 31 -54 80t-87.5 101.5t-112.5 95.5l-44 -36q37 -20 73.5 -51.5t69 -66t57.5 -68t39 -59.5h-54.5h-90h-110h-116h-106h-81h-40.5q-27 0 -55 1t-54 3v-61q24 3 53 5.5t56 2.5h41h82h107h116h110h88.5h50.5q7 0 16.5 -0.5t19 -2
t14.5 -2.5zM497.5 297q0 85 -5.5 157t-22 133t-47.5 111.5t-81 92.5t-123 77l-48 -40q19 -5 41.5 -16t39.5 -22q64 -37 102.5 -85t57.5 -104t25.5 -117.5t6.5 -124.5q0 -15 -0.5 -30t-2.5 -32h57z" />
</svg>
