<svg xmlns="http://www.w3.org/2000/svg" xmlns:xlink="http://www.w3.org/1999/xlink" version="1.1" viewBox="0 0 1000 1000">
   <path 
d="M513.5 162.5q-2 14 -2.5 28t-0.5 24v31v46v37h-51v-37.5v-45.5v-31q0 -10 -0.5 -24t-3.5 -28h58zM807.5 311.5q-1 6 -4 18t-5 23q-4 27 -13.5 70.5t-25 91t-38.5 87.5q-27 48 -73 93t-112.5 82t-155.5 61l-43 -45q14 -2 28 -5t27.5 -7t22.5 -7q75 -27 141.5 -69
t112.5 -118q23 -38 38.5 -80.5t25 -85.5t11.5 -77h-500v36.5v47.5v44.5v28.5t1 22t2 20h-55q2 -8 3 -21t1 -22v-28v-42v-42.5v-29.5q0 -12 -1 -31.5t-3 -32.5q15 1 36.5 2t41.5 1h455q21 0 32 -1.5t17 -2.5z" />
</svg>
