<svg xmlns="http://www.w3.org/2000/svg" xmlns:xlink="http://www.w3.org/1999/xlink" version="1.1" viewBox="0 0 1000 1000">
   <path 
d="M647.5 104.5q-2 19 -3.5 36.5t-1.5 36.5t0.5 62.5t1.5 101.5t2 124l2 132t1.5 125.5t0.5 104.5q0 34 -20.5 51t-58.5 17q-33 0 -75.5 -2t-76.5 -4l-4 -54q37 6 76.5 9t69.5 3q23 0 31 -10t8 -29q0 -37 -0.5 -91.5t-1 -119t-1.5 -130t-1.5 -124.5t-1.5 -103t-2 -63
q-1 -27 -3 -43.5t-5 -29.5h63zM130.5 284.5q23 2 42 3.5t40 1.5h43.5h86h111h119.5h112.5h88.5h47q17 0 39.5 -2t35.5 -3v56q-15 -1 -35.5 -2t-38.5 -1h-46.5h-88h-112.5h-120.5h-112h-86h-43.5q-23 0 -41.5 1t-40.5 3v-57zM104.5 746.5q80 -40 154 -92.5t137 -110
t111.5 -113t75.5 -102.5h26l1 44q-27 44 -75 99t-110 113t-134.5 110.5t-148.5 93.5z" />
</svg>
