<svg xmlns="http://www.w3.org/2000/svg" xmlns:xlink="http://www.w3.org/1999/xlink" version="1.1" viewBox="0 0 1000 1000">
   <path 
d="M507.5 103.5q-1 16 -2 37t-2 39q-5 155 -29 269.5t-65.5 197.5t-97.5 143t-125 107l-47 -38q20 -10 43.5 -27t41.5 -33q46 -38 86.5 -91.5t71.5 -126t49.5 -171.5t19.5 -229q0 -12 -0.5 -25t-1.5 -27t-3 -25h61zM860.5 306.5q-2 13 -3.5 24.5t-2.5 22.5q-1 26 -3 74
t-6.5 106t-11.5 116t-16.5 106.5t-23.5 76.5t-36.5 39.5t-58.5 11.5q-34 0 -75.5 -1.5t-81.5 -3.5l-6 -54q42 4 81 7t72 3q20 0 35.5 -6.5t23.5 -24.5q13 -26 22.5 -70.5t16 -99t10.5 -110t5.5 -104t1.5 -80.5h-550q-32 0 -57 0.5t-49 2.5v-56q24 1 50 2.5t55 1.5h512
q21 0 34 -1t23 -2z" />
</svg>
