<svg xmlns="http://www.w3.org/2000/svg" xmlns:xlink="http://www.w3.org/1999/xlink" version="1.1" viewBox="0 0 1000 1000">
   <path 
d="M616.5 172q-2 14 -2.5 28.5t-0.5 29.5q0 16 0.5 52t1 85.5t1.5 105.5t1.5 111.5t1.5 103.5t1 83q0 28 -18 42.5t-44 14.5q-17 0 -43 -1t-51.5 -2.5t-44.5 -2.5l-3 -50q31 5 67 8t60 3q14 0 21 -8t7 -21q0 -30 -0.5 -76.5t-1 -100t-1.5 -108t-1.5 -103t-1 -84.5t-2.5 -52
q0 -12 -1.5 -28t-3.5 -30h58zM184.5 320q17 2 32.5 3t32.5 1h37h74h96h104h97h76.5h40.5q13 0 31 -1.5t27 -2.5v54q-10 -1 -27 -2t-31 -1h-39h-76.5h-97.5h-104.5h-96.5h-74h-36q-19 0 -34.5 0.5t-31.5 2.5v-54zM167.5 699q60 -30 120 -71.5t113 -88.5t93 -94t64 -88l26 1
l1 39q-21 37 -59.5 82.5t-90.5 93t-111 90.5t-119 75z" />
</svg>
