<svg xmlns="http://www.w3.org/2000/svg" xmlns:xlink="http://www.w3.org/1999/xlink" version="1.1" viewBox="0 0 1000 1000">
   <path 
d="M750.5 105q13 17 27.5 41.5t29.5 49.5t26 46l-39 18q-14 -30 -38 -70t-44 -68zM854.5 68q14 18 30 43t31 49.5t25 43.5l-39 18q-16 -33 -39 -71t-45 -66zM369.5 135q-5 16 -10.5 32t-10.5 32q-6 21 -15 45.5t-20.5 51.5t-25.5 56q-19 39 -49 83t-63.5 83.5t-64.5 63.5
l-51 -30q27 -20 54 -47.5t51 -59.5t43.5 -61.5t31.5 -52.5q21 -39 35 -76t21 -65q5 -17 7.5 -33t3.5 -34zM263.5 316h44.5h79h99h105h97.5h75h37q19 0 43.5 -0.5t44.5 -3.5v56q-21 -1 -46 -1.5t-42 -0.5h-47.5h-95h-120.5h-123h-102h-59zM616.5 341q-4 118 -27.5 210.5
t-63 162.5t-93 123.5t-117.5 94.5l-55 -39q18 -6 37.5 -17t35.5 -24q37 -27 76 -68.5t73.5 -102t56.5 -144.5t24 -196h53z" />
</svg>
