<svg xmlns="http://www.w3.org/2000/svg" xmlns:xlink="http://www.w3.org/1999/xlink" version="1.1" viewBox="0 0 1000 1000">
   <path 
d="M685.5 89.5q11 15 26.5 39.5t30.5 49t25 43.5l-39 19q-10 -21 -24.5 -45.5t-29.5 -48.5t-27 -41zM807.5 62.5q12 16 27 39.5t30 47.5t26 45l-40 17q-16 -31 -39 -69t-43 -63zM122.5 266.5q23 2 50.5 3.5t50.5 1.5h486h33t33 -1q-1 16 -1.5 34.5t-0.5 33.5v516
q0 27 1.5 53t1.5 30h-57q0 -4 1 -28t1 -51v-537h-497q-26 0 -56.5 1t-45.5 3v-59zM109.5 823.5q16 1 45 3t58 2h534v52h-533q-31 0 -58.5 0.5t-45.5 2.5v-60z" />
</svg>
