<svg xmlns="http://www.w3.org/2000/svg" xmlns:xlink="http://www.w3.org/1999/xlink" version="1.1" viewBox="0 0 1000 1000">
   <path 
d="M724.5 117.5q13 17 27.5 41.5t29.5 49.5t26 46l-39 18q-14 -30 -38 -70t-44 -68zM828.5 80.5q14 18 30 43t31 49.5t25 43.5l-39 18q-16 -33 -39 -71t-45 -66zM453.5 125.5q-1 17 -2 38t-2 39q-5 155 -29 269.5t-65.5 197.5t-97.5 143t-125 107l-47 -38q20 -10 43.5 -27
t41.5 -33q46 -39 86.5 -92t71.5 -126t49.5 -171.5t19.5 -228.5q0 -12 -0.5 -25.5t-1.5 -27.5t-3 -25h61zM806.5 329.5q-2 13 -3.5 24.5t-2.5 22.5q-1 26 -3 74t-6.5 106t-11.5 116t-16.5 106.5t-23.5 75.5q-14 29 -36.5 40.5t-58.5 11.5q-34 0 -75.5 -2t-81.5 -4l-6 -53
q42 4 81 7t72 3q20 0 35.5 -6.5t23.5 -25.5q13 -25 22.5 -69.5t16 -99t10.5 -110t5.5 -104t1.5 -81.5h-550q-32 0 -57 1t-49 3v-57q24 2 50 3.5t55 1.5h512q21 0 34 -1t23 -3z" />
</svg>
