<svg xmlns="http://www.w3.org/2000/svg" xmlns:xlink="http://www.w3.org/1999/xlink" version="1.1" viewBox="0 0 1000 1000">
   <path 
d="M405.5 168q-4 -18 -8 -34t-9 -30l58 -11q1 13 4 31t6 33q1 7 8 43t17.5 91.5t24 120.5t26.5 130.5t24.5 122.5t20 95t9.5 47q5 22 11.5 45t13.5 42l-61 13q-4 -24 -7.5 -46t-8.5 -44q-1 -10 -8.5 -48t-18.5 -94t-24 -121.5t-26 -130t-24.5 -119.5t-18.5 -91.5t-9 -44.5z
M117.5 322q16 -1 35 -2.5t43 -3.5q24 -3 65 -8.5t93 -13.5t107.5 -17t107.5 -18t94.5 -16t66.5 -11q21 -5 35.5 -8.5t23.5 -5.5l11 56q-8 1 -24.5 3.5t-34.5 5.5q-25 4 -68 10.5t-95 15t-107.5 17t-107.5 17t-93 15.5t-65 10q-19 4 -36.5 7t-38.5 8zM112.5 608
q17 -1 39.5 -3t39.5 -5q27 -3 73 -10t104 -16.5t120 -19t121 -20t108 -19t80 -13.5q29 -5 47.5 -9t31.5 -9l11 56q-12 1 -32.5 4.5t-48.5 8.5q-34 5 -84 13t-109 17.5t-119.5 19t-116.5 19t-100.5 17t-70.5 12.5q-27 4 -46.5 8t-35.5 9z" />
</svg>
