<svg xmlns="http://www.w3.org/2000/svg" xmlns:xlink="http://www.w3.org/1999/xlink" version="1.1" viewBox="0 0 1000 1000">
   <path 
d="M748.5 95.5q13 17 28 41.5t29.5 49.5t25.5 46l-39 18q-14 -30 -38 -70t-44 -68zM852.5 58.5q14 18 30 43t31 49.5t25 43.5l-39 18q-16 -33 -39 -71t-45 -66zM800.5 282.5q-5 8 -9.5 21t-7.5 21q-13 54 -38.5 115t-60.5 121.5t-80 114.5q-66 81 -160.5 148.5t-234.5 117.5
l-45 -42q86 -25 158 -63t132.5 -86t106.5 -104q42 -50 76 -108.5t58.5 -117.5t35.5 -110h-390l23 -47h46.5h80h91h79h42.5q18 0 31 -1.5t21 -6.5zM460.5 135.5q-9 16 -18 34t-16 31q-27 52 -69.5 114.5t-104 125.5t-147.5 120l-44 -33q64 -38 116 -84t91 -93.5t66.5 -92
t42.5 -78.5q6 -10 13 -29.5t10 -34.5z" />
</svg>
