<svg xmlns="http://www.w3.org/2000/svg" xmlns:xlink="http://www.w3.org/1999/xlink" version="1.1" viewBox="0 0 1000 1000">
   <path 
d="M869.5 253.5q-5 9 -9.5 22t-7.5 21q-13 54 -38.5 114.5t-60.5 121.5t-80 115q-66 80 -160.5 147.5t-234.5 118.5l-45 -43q86 -24 158 -62t132.5 -86.5t106.5 -103.5q42 -50 76 -109t58.5 -117.5t35.5 -109.5h-390l23 -47h46.5h80h91h79h42.5q18 0 31 -2t21 -6z
M529.5 107.5q-9 15 -18 33t-16 31q-27 52 -69.5 114.5t-104 126t-147.5 119.5l-44 -33q64 -37 116 -83t91 -93.5t66.5 -92t42.5 -78.5q6 -10 13 -29.5t10 -35.5z" />
</svg>
