<svg xmlns="http://www.w3.org/2000/svg" xmlns:xlink="http://www.w3.org/1999/xlink" version="1.1" viewBox="0 0 1000 1000">
   <path 
d="M730 89q13 18 28 42t30 49t25 46l-39 19q-14 -31 -38 -70.5t-44 -68.5zM835 52q14 18 29.5 43t31 49.5t24.5 43.5l-38 18q-17 -33 -40 -71t-44 -66zM372 209q-3 -18 -7.5 -34t-9.5 -30l59 -11q1 14 4 31.5t5 33.5q1 6 8 42t18 92t24 120.5t26.5 130t25 122.5t19.5 95
t10 48q5 21 11 44t13 43l-61 12q-4 -24 -7 -46t-8 -44q-2 -10 -9.5 -48t-18 -94t-24 -121.5t-26 -130t-24 -119.5t-18.5 -91.5t-10 -44.5zM85 363q16 -1 35 -2.5t43 -3.5q23 -3 64.5 -8.5t93.5 -13.5t107.5 -17t107.5 -17.5t94 -15.5t67 -12q20 -4 34.5 -8t23.5 -6l12 56
q-8 1 -25 3.5t-35 5.5q-25 4 -67.5 10.5t-95 15t-108 17t-107.5 17t-93 15.5t-65 11q-19 3 -36.5 6.5l-37.5 7.5zM80 649q16 -1 38.5 -3t40.5 -4q27 -4 72.5 -11l104 -16t120.5 -19t121 -20.5t108 -19t79 -13.5q29 -5 47.5 -9t32.5 -8l11 55q-13 1 -33 4.5t-48 8.5
q-35 5 -85 13.5t-108.5 18t-119.5 19t-116.5 19t-100.5 16.5t-71 12q-27 4 -46 8t-35 9z" />
</svg>
