<svg xmlns="http://www.w3.org/2000/svg" xmlns:xlink="http://www.w3.org/1999/xlink" version="1.1" viewBox="0 0 1000 1000">
   <path 
d="M710 395.5q0 104 -12.5 182.5t-43 137t-84.5 103.5t-137 83l-43 -41q65 -27 115.5 -60t84.5 -83t51.5 -126t17.5 -188v-230q0 -29 -2 -50.5t-2 -24.5h59q0 3 -2 24.5t-2 50.5v222zM350 103.5q0 2 -2 20t-2 41v372q0 16 1 34.5t2 32t1 15.5h-58q0 -2 1 -15t2 -31.5
t1 -35.5v-371q0 -13 -1 -31t-3 -31h58zM79 305.5q2 0 17.5 1.5t37.5 2.5t40 1h667q29 0 52.5 -2t27.5 -3v57q-3 0 -27 -1.5t-53 -1.5h-667q-19 0 -40.5 1t-37 1.5t-17.5 0.5v-57z" />
</svg>
