<svg xmlns="http://www.w3.org/2000/svg" xmlns:xlink="http://www.w3.org/1999/xlink" version="1.1" viewBox="0 0 1000 1000">
   <path 
d="M395.5 107.5q-5 16 -10.5 32t-10.5 31q-7 21 -16 46t-20 52t-26 56q-19 38 -49 82.5t-63 84t-64 63.5l-51 -31q27 -19 54 -47t51 -59.5t43.5 -61.5t31.5 -52q21 -40 34.5 -76.5t21.5 -65.5q5 -16 7.5 -32.5t3.5 -33.5zM289.5 288.5h43.5h78.5h98.5h105h97.5h75.5h38.5
q19 0 43 -1t45 -4v57q-21 -1 -46 -1.5t-42 -0.5h-49h-95.5h-120.5h-122.5h-101.5h-59zM641.5 313.5q-3 118 -26.5 210t-63 162.5t-93 123.5t-117.5 95l-55 -39q18 -6 37.5 -17.5t35.5 -23.5q37 -27 76 -68.5t73 -102.5t56 -144.5t25 -196.5z" />
</svg>
