<svg xmlns="http://www.w3.org/2000/svg" xmlns:xlink="http://www.w3.org/1999/xlink" version="1.1" viewBox="0 0 1000 1000">
   <path 
d="M732 100.5q13 17 28 41.5t29.5 49.5t25.5 46l-39 18q-14 -30 -38 -70t-44 -68zM838 65.5q14 18 29.5 42.5l31 49t25.5 44.5l-39 18q-17 -34 -39.5 -71.5t-44.5 -65.5zM742 253.5q-4 5 -9.5 15t-8.5 18q-20 50 -51 110.5t-69 118t-78 102.5q-56 61 -120.5 118
t-136.5 106.5t-153 85.5l-40 -43q81 -32 154.5 -80t139 -105.5t119.5 -117.5q35 -39 70.5 -91.5t64 -107t41.5 -99.5h-39h-77h-94.5h-94.5h-75.5h-38.5q-16 0 -36.5 1t-36.5 2t-18 1v-60q3 1 19 2t36 2.5t36 1.5h38h73.5h90.5h90.5h74h38.5q20 0 34.5 -1.5t23.5 -4.5z
M539 582.5q42 35 85 76t84.5 84t77 82.5t62.5 71.5l-43 38q-36 -46 -85.5 -101.5t-105.5 -112t-111 -103.5z" />
</svg>
