<svg xmlns="http://www.w3.org/2000/svg" xmlns:xlink="http://www.w3.org/1999/xlink" version="1.1" viewBox="0 0 1000 1000">
   <path 
d="M350 752.5v-68v-98.5v-112.5v-113v-98.5v-67.5v-27t-1 -25.5t-4 -26.5h62q-3 21 -4.5 40t-1.5 39v66v97v111v110.5v95.5v65q0 36 13 57t47 29.5t96 8.5t113 -2.5t99 -9t98 -15.5l-3 56q-46 7 -93.5 11.5t-101.5 7t-121 2.5q-61 0 -99.5 -8.5t-60 -25.5t-30 -41.5
t-8.5 -56.5zM902 301.5q-4 6 -9.5 15t-10.5 17q-17 31 -39.5 67t-48 75t-55 77t-61.5 71l-45 -27q40 -37 77.5 -85.5t67 -95t44.5 -78.5q-3 0 -37 7.5t-89 18.5t-123 24.5t-139 28t-136 27.5t-115 23.5t-74 15.5l-11 -56q27 -3 75 -11t110.5 -20t130.5 -25.5t134.5 -26.5
t123.5 -25t97 -20t54 -11q13 -3 24.5 -7t17.5 -8z" />
</svg>
