<svg xmlns="http://www.w3.org/2000/svg" xmlns:xlink="http://www.w3.org/1999/xlink" version="1.1" viewBox="0 0 1000 1000">
   <path 
d="M784 110.5q10 17 21.5 42t22.5 51t19 47l-38 13q-7 -21 -18 -47t-22 -51.5t-21 -43.5zM882 80.5q10 18 21.5 42.5t23 50t19.5 46.5l-39 14q-13 -34 -29.5 -74t-32.5 -67zM684 413.5q0 104 -12 182.5t-43 137t-84.5 103.5t-136.5 83l-44 -41q66 -27 116 -60t84.5 -83
t52 -126t17.5 -188v-230q0 -29 -2 -50.5t-3 -24.5h60q-1 3 -3 24.5t-2 50.5v222zM325 121.5q-1 3 -2.5 20.5t-1.5 40.5v372q0 16 1 34.5t1.5 32t0.5 15.5h-58q1 -2 2 -15t2 -31.5t1 -35.5v-371q0 -13 -1 -31t-3 -31h58zM54 323.5q2 0 17.5 1.5t37 2.5t40.5 1h666
q30 0 53.5 -2t27.5 -3v57q-3 0 -27 -1.5t-54 -1.5h-666q-19 0 -40.5 0.5t-37 1.5t-17.5 1v-57z" />
</svg>
