<svg xmlns="http://www.w3.org/2000/svg" xmlns:xlink="http://www.w3.org/1999/xlink" version="1.1" viewBox="0 0 1000 1000">
   <path 
d="M780 172.5q-4 5 -9.5 15.5t-8.5 17.5q-20 50 -51 110.5t-69 118.5t-78 102q-56 61 -120.5 118.5t-136.5 106.5t-153 85l-40 -43q81 -32 154.5 -79.5t139 -105.5t119.5 -117q35 -40 70.5 -92t64 -107t41.5 -100h-39h-77h-94.5h-94.5h-75.5h-38.5q-16 0 -36.5 1t-36.5 2
t-18 1v-59q3 0 19 1t36 2.5t36 1.5h38h73.5h90.5h90.5h74h38.5q20 0 34.5 -1.5t23.5 -4.5zM577 502.5q42 35 85 76t84.5 83.5t77 82t62.5 71.5l-43 38q-36 -46 -85.5 -101.5t-105.5 -112t-111 -103.5z" />
</svg>
