<svg xmlns="http://www.w3.org/2000/svg" xmlns:xlink="http://www.w3.org/1999/xlink" version="1.1" viewBox="0 0 1000 1000">
   <path 
d="M755.5 116q13 17 27.5 41.5t29.5 49.5t26 46l-39 18q-14 -30 -38 -70t-44 -68zM859.5 79q14 18 30 42.5t31 49t25 44.5l-39 18q-16 -33 -39 -71t-45 -66zM306.5 790v-68v-98.5v-113v-113v-98v-68.5v-26.5t-1.5 -25t-4.5 -26.5h63q-3 21 -4.5 40t-1.5 38v67v97v111v110.5
v95.5v65q0 36 13 57t46.5 29.5t96.5 8.5q61 0 112.5 -3t99 -9t97.5 -15l-2 56q-47 7 -94 11.5t-101 6.5t-122 2q-60 0 -99 -8.5t-60.5 -25t-29.5 -41t-8 -56.5zM858.5 339q-5 6 -10.5 15t-9.5 17q-18 31 -40 67t-47.5 75t-55 77t-61.5 71l-46 -28q41 -37 78 -85t66.5 -94.5
t45.5 -78.5q-3 0 -37 7t-89.5 18.5t-123.5 25t-138.5 28t-136 27.5t-115 23t-74.5 15l-10 -55q26 -3 74.5 -11.5t110.5 -20t130.5 -25t134.5 -27t123.5 -25t97 -19.5t53.5 -12q13 -2 25 -6t18 -8z" />
</svg>
