<svg xmlns="http://www.w3.org/2000/svg" xmlns:xlink="http://www.w3.org/1999/xlink" version="1.1" viewBox="0 0 1000 1000">
   <path 
d="M688 144.5q12 16 30 44t35.5 58t29.5 55l-40 19q-11 -24 -27 -52.5t-33 -57t-33 -48.5zM814 97.5q13 16 31 43.5t36.5 57.5t30.5 54l-40 19q-11 -24 -27.5 -52.5t-34.5 -56t-34 -47.5zM265 132.5q21 12 50 31.5t61 40.5t59 39.5t41 29.5l-31 43q-16 -13 -42.5 -32
t-57.5 -40t-60 -39.5t-49 -29.5zM135 850.5q55 -10 113 -27t115 -40.5t105 -50.5q82 -48 151 -105.5t125 -122t97 -134.5l31 51q-63 99 -161 192.5t-216 163.5q-50 30 -108.5 54t-116 42t-105.5 29zM116 356.5q21 10 51 28.5t62 38t59.5 36.5t41.5 28l-29 45
q-17 -12 -44 -30.5t-58 -38t-60.5 -37t-50.5 -27.5z" />
</svg>
