<svg xmlns="http://www.w3.org/2000/svg" xmlns:xlink="http://www.w3.org/1999/xlink" version="1.1" viewBox="0 0 1000 1000">
   <path 
d="M284.5 115q21 12 50.5 31.5t61 40.5t58.5 39.5t42 29.5l-32 43q-16 -13 -42.5 -32t-57 -40t-59.5 -39.5t-49 -29.5zM155.5 833q54 -10 112.5 -27t115 -40.5t105.5 -50.5q82 -48 151 -105.5t124.5 -122t96.5 -134.5l32 51q-63 99 -161 192.5t-217 163.5q-50 30 -108.5 54
t-115.5 42.5t-106 28.5zM136.5 339q20 10 50.5 28.5t62.5 38t59 36.5t42 28l-30 45q-17 -12 -44 -30.5t-58 -38t-60 -36.5t-51 -28z" />
</svg>
