<svg xmlns="http://www.w3.org/2000/svg" xmlns:xlink="http://www.w3.org/1999/xlink" version="1.1" viewBox="0 0 1000 1000">
   <path 
d="M231.5 901.5q105 -44 180.5 -102t128.5 -123t86.5 -131t52.5 -126.5t29 -107.5q3 -11 5.5 -29t2.5 -29l62 11q-5 14 -9 30t-7 23q-18 77 -49 162t-85 169t-139 159.5t-210 133.5zM144.5 223.5q16 23 39 60t47.5 79t45.5 79t34 60l-49 28q-14 -29 -36 -69t-47 -81.5
t-46.5 -76t-35.5 -54.5zM699.5 85.5q11 15 26.5 39.5t30 49t25.5 43.5l-40 19q-9 -21 -23.5 -45.5t-29.5 -48.5t-28 -41zM820.5 58.5q12 16 27 39.5t30.5 47.5t25.5 45l-39 17q-17 -31 -39.5 -69t-42.5 -63z" />
</svg>
