<svg xmlns="http://www.w3.org/2000/svg" xmlns:xlink="http://www.w3.org/1999/xlink" version="1.1" viewBox="0 0 1000 1000">
   <path 
d="M423 432q50 28 101.5 61.5t102.5 69.5t97.5 70.5t84.5 66.5l-37 43q-35 -31 -81 -67.5t-98 -73t-104 -71.5t-100 -65zM873 242q-5 8 -9.5 21.5t-7.5 20.5q-14 54 -40 115t-61.5 121.5t-79.5 114.5q-66 80 -167 154.5t-242 126.5l-46 -41q87 -25 163 -67t139.5 -94
t109.5 -108q42 -50 76 -108.5t59 -117.5t37 -109h-390l24 -48h337q19 0 31.5 -1.5t21.5 -5.5zM532 103q-9 16 -18.5 34t-15.5 31q-28 51 -72.5 115.5t-108 130.5t-147.5 124l-43 -33q85 -53 149 -118.5t107.5 -129t65.5 -110.5q6 -10 13.5 -29t10.5 -34z" />
</svg>
