<svg xmlns="http://www.w3.org/2000/svg" xmlns:xlink="http://www.w3.org/1999/xlink" version="1.1" viewBox="0 0 1000 1000">
   <path 
d="M173.5 180q38 1 95.5 0t121 -5t116.5 -11q32 -4 70 -10t75 -14t67.5 -16t48.5 -16l35 46q-10 3 -21.5 6t-21.5 6q-28 6 -68 15t-85 17t-86 13q-55 7 -115 10.5t-116.5 5.5t-102.5 3zM237.5 856q83 -39 139.5 -94.5t85.5 -135t29 -188.5v-32v-85.5v-120.5l51 -9v53.5v65.5
v63v47v18q0 110 -26 193t-82 146t-148 115zM94.5 416q14 1 38 3t47 2h52h95h119h126h117.5h93h50.5q11 0 24.5 -1t26 -1.5t22.5 -1.5v55q-14 -2 -33.5 -2.5t-37.5 -0.5h-51h-93h-118h-126h-119h-94.5h-52.5q-24 0 -46.5 0.5t-39.5 2.5v-56z" />
</svg>
