<svg xmlns="http://www.w3.org/2000/svg" xmlns:xlink="http://www.w3.org/1999/xlink" version="1.1" viewBox="0 0 1000 1000">
   <path 
d="M746.5 221q17 24 40 60.5t40 71.5l-38 18q-10 -22 -23 -45t-26.5 -46t-29.5 -42zM847.5 184q18 23 41.5 60t42.5 71l-38 19q-11 -23 -24 -46t-27.5 -45t-29.5 -41zM147.5 179q38 2 95.5 1t121 -5t116.5 -11q32 -4 70 -10t75 -14t67.5 -16.5t48.5 -15.5l35 46
q-10 3 -21.5 6t-21.5 6q-28 6 -68 14.5t-85 16.5t-86 14q-55 7 -115 10.5t-116.5 5t-102.5 2.5zM211.5 856q83 -40 139.5 -95.5t85.5 -134.5t29 -188v-32v-85.5v-120.5l51 -9v53.5v65.5v63v47v18q0 109 -26 192.5t-82 146.5t-148 115zM68.5 416q14 1 38 2.5t47 1.5h52h95
h119h126h117.5h93h50.5q11 0 24.5 -0.5t26 -1t22.5 -1.5v55q-14 -2 -33.5 -2.5t-37.5 -0.5h-51h-93h-118h-126h-119h-94.5h-52.5q-24 0 -46.5 0.5t-39.5 2.5v-56z" />
</svg>
