<svg xmlns="http://www.w3.org/2000/svg" xmlns:xlink="http://www.w3.org/1999/xlink" version="1.1" viewBox="0 0 1000 1000">
   <path 
d="M405 187.5q8 17 21.5 52t28.5 75.5t28 76.5t18 55l-49 17q-6 -20 -18 -56t-26.5 -76.5t-28 -75.5t-22.5 -52zM833 285.5q-3 9 -7 22t-6 22q-24 85 -59.5 167t-97.5 163q-50 67 -114.5 123t-135 98t-141.5 65l-43 -43q74 -23 144.5 -62t134 -92.5t112.5 -116.5
q41 -53 72 -112.5t52 -123t30 -125.5zM126 245.5q9 19 24 54t31.5 76.5t31.5 79t24 61.5l-51 18q-6 -18 -16.5 -47t-24 -63t-27 -66.5t-24.5 -57.5t-18 -36zM719 81.5q12 15 27 39t30 48.5t25 44.5l-39 18q-10 -20 -24 -45t-29.5 -48.5t-27.5 -40.5zM841 54.5q12 16 27 39
t30 47.5t26 45.5l-39 17q-17 -31 -40 -69.5t-43 -62.5z" />
</svg>
