<svg xmlns="http://www.w3.org/2000/svg" xmlns:xlink="http://www.w3.org/1999/xlink" version="1.1" viewBox="0 0 1000 1000">
   <path 
d="M218 119.5q20 1 38.5 3t41.5 2h58h93.5h105h93.5h57q19 0 42 -1.5t43 -3.5v56q-21 -2 -43.5 -2.5t-41.5 -0.5h-56.5h-93h-105h-93.5h-57q-24 0 -44.5 0.5t-37.5 2.5v-56zM97 368.5q19 1 38.5 2t42.5 1h50.5h94.5h120h128.5h120h93h48.5q16 0 34.5 -1t35.5 -2v54
q-15 -1 -34 -1.5t-36 -0.5h-48.5h-93h-120h-128.5h-120h-94.5h-50.5h-41.5t-39.5 2v-54zM543 391.5q0 91 -11 170.5t-46 142.5q-18 33 -48.5 65t-67.5 61t-78 50l-48 -36q61 -27 112.5 -68.5t80.5 -90.5q38 -61 46 -135.5t9 -158.5h51z" />
</svg>
