<svg xmlns="http://www.w3.org/2000/svg" xmlns:xlink="http://www.w3.org/1999/xlink" version="1.1" viewBox="0 0 1000 1000">
   <path 
d="M180.5 182.5q20 2 38.5 3.5t41.5 1.5h53h81.5h90.5h80.5h52.5q18 0 41.5 -1t43.5 -4v56q-21 -2 -43.5 -2.5t-41.5 -0.5h-52.5h-80.5h-90h-81h-52q-24 0 -44.5 0.5t-37.5 2.5v-56zM59.5 431.5q20 1 39.5 2.5t42.5 1.5h49.5h94.5h120h128.5h120h93h48.5q16 0 34.5 -1.5
t35.5 -2.5v55q-15 -2 -34 -2.5t-36 -0.5h-48.5h-93h-120h-128.5h-120h-94.5h-49.5q-23 0 -42.5 0.5t-39.5 2.5v-55zM506.5 454.5q0 92 -11.5 171t-46.5 142q-18 33 -48 65.5t-67 61t-79 49.5l-48 -36q61 -27 112.5 -68t80.5 -91q38 -61 46 -135.5t9 -158.5h52zM750.5 93.5
q13 18 28 42t29.5 49t25.5 46l-39 19q-14 -31 -38 -70.5t-44 -68.5zM854.5 56.5q14 18 30 43t31 49.5t25 43.5l-39 18q-16 -33 -39 -71t-45 -66z" />
</svg>
