<svg xmlns="http://www.w3.org/2000/svg" xmlns:xlink="http://www.w3.org/1999/xlink" version="1.1" viewBox="0 0 1000 1000">
   <path 
d="M445.5 121q9 17 22 52t28 75.5t28 76.5t18 55l-49 17q-6 -20 -18 -56t-26.5 -76.5t-28 -75.5t-22.5 -52zM883.5 175q-3 9 -7 22t-6 22q-16 67 -39 132.5t-54.5 126.5t-73.5 115q-50 67 -114.5 123t-135 98t-141.5 65l-43 -43q74 -23 144.5 -62t134 -92.5t112.5 -116.5
q41 -53 74 -119t56 -140t34 -148zM166.5 179q9 20 24 55t31.5 76t31.5 78.5t24 61.5l-51 18q-6 -18 -16.5 -47t-24 -63t-27 -66t-24.5 -57.5t-18 -36.5z" />
</svg>
