<svg xmlns="http://www.w3.org/2000/svg" xmlns:xlink="http://www.w3.org/1999/xlink" version="1.1" viewBox="0 0 1000 1000">
   <path 
d="M746.5 92.5q13 17 28 41t29.5 49t25.5 47l-39 18q-14 -30 -38 -70t-44 -68zM850.5 55.5q14 18 30 42.5t31 49t25 44.5l-39 18q-16 -34 -39 -71.5t-45 -65.5zM360.5 460.5q49 29 101 62t102.5 69t97.5 70.5t85 66.5l-37 43q-36 -31 -82 -67.5t-97.5 -73t-103.5 -71.5
t-100 -64zM809.5 270.5q-5 9 -9.5 22t-7.5 21q-14 54 -40 114.5t-61.5 121t-79.5 114.5q-66 81 -167 155t-242 126l-45 -41q86 -25 162.5 -67t139.5 -94t109 -108q42 -50 76 -108.5t59 -117t37 -109.5h-389l23 -47h338q18 0 31 -2t22 -6zM469.5 131.5q-9 16 -18.5 34
t-16.5 31q-28 51 -72.5 115.5t-107.5 130.5t-148 125l-43 -33q85 -54 149.5 -119.5t107.5 -129t65 -110.5q6 -10 14 -29t11 -34z" />
</svg>
