<svg xmlns="http://www.w3.org/2000/svg" xmlns:xlink="http://www.w3.org/1999/xlink" version="1.1" viewBox="0 0 1000 1000">
   <path 
d="M461 185.5q6 14 16.5 43t23 62t22.5 63t14 45l-47 18q-4 -16 -13.5 -45.5t-21.5 -63t-23.5 -62t-18.5 -44.5zM819 231.5q-4 10 -6.5 19t-5.5 16q-19 87 -54 167.5t-90 149.5q-69 86 -154 143t-167 88l-43 -44q60 -18 118 -48.5t110.5 -72.5t93.5 -93q36 -44 65.5 -99
t49 -116.5t28.5 -126.5zM228 234.5q7 14 18.5 43t25.5 64t26.5 66.5t19.5 50.5l-48 18q-6 -19 -18 -51.5t-26 -68t-26 -64t-19 -39.5z" />
</svg>
