<svg xmlns="http://www.w3.org/2000/svg" xmlns:xlink="http://www.w3.org/1999/xlink" version="1.1" viewBox="0 0 1000 1000">
   <path 
d="M560 154q12 16 29 42t34 55t28 53l-40 19q-11 -23 -26 -50.5t-31 -54t-32 -46.5zM675 106q12 16 29.5 42t35 54.5t29.5 52.5l-40 19q-11 -23 -26.5 -50t-32.5 -53t-33 -47zM237 787v-52v-100v-125v-128.5v-110.5v-69q0 -18 -1.5 -45.5t-4.5 -49.5h64q-2 21 -4 49.5
t-2 45.5v104.5v121.5t0.5 123.5t0.5 111v84v40.5v36.5t1.5 37.5t2.5 33h-61q2 -21 3 -50.5t1 -56.5zM278 372q49 15 107.5 35.5t119 44t116.5 47.5t100 46l-22 53q-43 -24 -98 -49t-114 -48t-113.5 -42t-95.5 -31v-56z" />
</svg>
