<svg xmlns="http://www.w3.org/2000/svg" xmlns:xlink="http://www.w3.org/1999/xlink" version="1.1" viewBox="0 0 1000 1000">
   <path 
d="M743.5 135.5q13 18 28 42t29.5 49t25.5 46l-39 19q-14 -31 -38 -70.5t-44 -68.5zM847.5 98.5q14 19 30 43.5t31 49t25 43.5l-38 19q-17 -34 -40 -72t-44 -66zM219.5 610.5q16 -38 31.5 -84t29.5 -95.5t24 -97.5t15 -89l56 11q-2 9 -4.5 18t-5 19t-5.5 20
q-5 21 -13.5 58.5t-21 82.5t-27.5 91.5t-32 87.5q-18 44 -41.5 90t-50 91.5t-56.5 87.5l-52 -23q48 -63 87.5 -136t65.5 -132zM711.5 561.5q-16 -38 -34 -80.5t-37.5 -84.5t-38 -79.5t-35.5 -64.5l50 -18q15 26 32.5 62t37.5 77.5t39 85t36 85.5q16 39 33.5 84.5t34 91.5
t30.5 88t24 75l-54 17q-11 -47 -31 -105.5t-42.5 -120t-44.5 -113.5z" />
</svg>
