<svg xmlns="http://www.w3.org/2000/svg" xmlns:xlink="http://www.w3.org/1999/xlink" version="1.1" viewBox="0 0 1000 1000">
   <path 
d="M819 167.5q-5 9 -10.5 21.5t-10.5 26.5q-18 65 -46.5 131t-62.5 124.5t-69 102.5q-55 68 -122 123t-139 97t-144 68l-46 -44q79 -24 154 -65.5t140 -96t114 -113.5q41 -49 74.5 -107.5t58 -120.5t37.5 -119h-48h-79.5h-94h-93h-78h-46.5q-17 0 -33 0.5t-31.5 0.5t-29.5 1
v-56q21 1 44.5 2.5t49.5 1.5h46.5h79h94.5h93h76h42q14 0 25 -1.5t19 -5.5zM303 352.5q70 37 143.5 84t144 98t132.5 100t108 90l-38 44q-37 -35 -83.5 -74.5t-99.5 -80t-110 -81t-115 -76.5t-114 -65z" />
</svg>
