<svg xmlns="http://www.w3.org/2000/svg" xmlns:xlink="http://www.w3.org/1999/xlink" version="1.1" viewBox="0 0 1000 1000">
   <path 
d="M244 542.5q16 -38 32 -84t29.5 -95.5t24 -97.5t15.5 -89l56 11q-2 9 -5 18t-5.5 19t-4.5 20q-5 21 -14 58.5t-21 82.5t-27 92t-32 87q-19 44 -42 90t-50 91.5t-56 87.5l-53 -23q48 -63 88 -136t65 -132zM737 493.5q-16 -38 -34 -80.5t-37.5 -84.5t-38.5 -79.5t-35 -64.5
l50 -18q14 26 32 62t37.5 77.5t38.5 85t37 85.5q16 39 33 84.5t34 91.5t31 88t24 75l-54 17q-12 -47 -32 -105.5t-42.5 -120t-43.5 -113.5z" />
</svg>
