<svg xmlns="http://www.w3.org/2000/svg" xmlns:xlink="http://www.w3.org/1999/xlink" version="1.1" viewBox="0 0 1000 1000">
   <path 
d="M537 87q-3 16 -4 41t-1 44v31v36v25h-51v-25v-35.5v-31.5q0 -19 -1 -44t-4 -41h61zM809 273q-10 10 -22 22.5t-22 23.5q-24 30 -60.5 67.5t-80.5 75.5t-93 71q-54 37 -114 68.5t-131.5 59t-162.5 55.5l-32 -49q141 -35 238 -80.5t166 -90.5q49 -31 93 -68.5t78.5 -73.5
t52.5 -61h-44h-79.5h-98h-98.5h-81h-46q-16 0 -38.5 0.5t-43 1t-35.5 2.5v-57q21 2 56 3.5t61 1.5h44.5h79.5h96.5h97.5h82.5h50.5t28.5 -1t23.5 -4zM530 512v69.5t-0.5 82t-0.5 81.5v67q0 16 0.5 33.5t1.5 35t2 32.5h-60q2 -15 3 -32t1.5 -35t0.5 -34v-65t0.5 -77
t0.5 -75.5v-59.5zM874 730q-43 -31 -79.5 -55.5t-74.5 -47.5t-87 -48l34 -37q48 25 85.5 46.5t74 44.5t82.5 54z" />
</svg>
