<svg xmlns="http://www.w3.org/2000/svg" xmlns:xlink="http://www.w3.org/1999/xlink" version="1.1" viewBox="0 0 1000 1000">
   <path 
d="M757 213.5q0 29 20.5 50t49.5 21q30 0 51 -21t21 -50q0 -30 -21 -51t-51 -21q-29 0 -49.5 21t-20.5 51zM720 213.5q0 -30 14.5 -54.5t39 -39t53.5 -14.5q30 0 54.5 14.5t39 39t14.5 54.5t-14.5 54t-39 38.5t-54.5 14.5q-29 0 -53.5 -14.5t-39 -38.5t-14.5 -54zM218 603.5
q16 -38 31.5 -84t29.5 -95.5t24 -97.5t15 -89l56 11q-2 9 -4.5 18t-5 19t-5.5 20q-5 21 -13.5 58.5t-21 82.5t-27.5 91.5t-32 87.5q-18 44 -41.5 90t-50 91.5t-56.5 87.5l-52 -23q48 -63 87.5 -136t65.5 -132zM710 554.5q-16 -38 -34 -80.5t-37.5 -84.5t-38 -79.5
t-35.5 -64.5l50 -18q15 26 32.5 62t37.5 77.5t39 85t36 85.5q16 39 33.5 84.5t34 91.5t30.5 88t24 75l-54 17q-11 -47 -31 -105.5t-42.5 -120t-44.5 -113.5z" />
</svg>
