<svg xmlns="http://www.w3.org/2000/svg" xmlns:xlink="http://www.w3.org/1999/xlink" version="1.1" viewBox="0 0 1000 1000">
   <path 
d="M256 125.5q-1 15 -3 31.5t-2 36.5v51.5v94.5v116.5v118.5v100v61q0 42 17.5 57.5t55.5 23.5q25 4 64.5 6.5t77.5 2.5q40 0 86 -1.5t92 -5.5t88 -10t73 -14v59q-41 6 -100 10.5t-122.5 7.5t-117.5 3q-42 0 -83.5 -1.5t-72.5 -6.5q-53 -10 -81 -35.5t-28 -83.5v-67v-104
v-120.5v-117v-94.5v-51q0 -13 -0.5 -25t-1.5 -23t-3 -20h61zM227 446.5q44 -9 100.5 -24.5t117.5 -34t119 -39.5t103 -41q21 -9 40.5 -19.5t35.5 -20.5l24 53q-17 7 -39 16.5t-43 17.5q-48 20 -108.5 41t-124.5 41t-122 36.5t-102 28.5z" />
</svg>
