<svg xmlns="http://www.w3.org/2000/svg" xmlns:xlink="http://www.w3.org/1999/xlink" version="1.1" viewBox="0 0 1000 1000">
   <path 
d="M490.5 193.5q0 -22 -2.5 -50.5t-4.5 -38.5h65q-2 10 -4 39t-2 50v69v80.5v69.5q0 83 -16 154t-49.5 131t-84.5 109t-122 89l-51 -38q67 -32 117.5 -75t84.5 -97.5t51.5 -122.5t17.5 -150v-68.5v-81v-69.5zM93.5 338.5q11 2 34 3t47 1h48h95h122.5h131h121.5h93.5h46.5
q20 0 42.5 -1t31.5 -2v55q-9 -2 -32 -2h-43h-46.5h-93.5h-121h-130.5h-122h-94.5h-47q-26 0 -49 0.5t-34 1.5v-56z" />
</svg>
