<svg xmlns="http://www.w3.org/2000/svg" xmlns:xlink="http://www.w3.org/1999/xlink" version="1.1" viewBox="0 0 1000 1000">
   <path 
d="M697.5 282.5q0 32 23 55.5t56 23.5t56 -23.5t23 -55.5q0 -33 -23 -56t-56 -23t-56 23t-23 56zM659.5 282.5q0 -32 16 -58.5t42.5 -42t58.5 -15.5t58 15.5t42 42t16 58.5t-16 58.5t-42 42t-58 15.5t-58.5 -15.5t-42.5 -42t-16 -58.5zM67.5 624.5q18 -15 32 -29l31 -31
q19 -19 44 -48.5t53 -63.5t55 -67t49 -60q37 -43 71.5 -48.5t81.5 39.5q28 26 65 64t74.5 77t65.5 69q34 35 76 80.5t85.5 92.5t81.5 89l-44 45q-36 -44 -77.5 -90.5t-81 -91.5t-73.5 -82q-21 -24 -48 -53t-55 -58.5t-53 -55t-42 -41.5q-32 -30 -50.5 -27.5t-47.5 35.5
q-19 24 -44.5 55.5t-52.5 65t-52 63.5t-43 51q-14 17 -28.5 36t-25.5 32z" />
</svg>
