<svg xmlns="http://www.w3.org/2000/svg" xmlns:xlink="http://www.w3.org/1999/xlink" version="1.1" viewBox="0 0 1000 1000">
   <path 
d="M741 188q0 29 20.5 49.5t50.5 20.5t50.5 -20.5t20.5 -49.5q0 -30 -20.5 -51t-50.5 -21t-50.5 21t-20.5 51zM705 188q0 -30 14.5 -54.5t38.5 -39t54 -14.5t54.5 14.5t39 39t14.5 54.5t-14.5 54t-39 38.5t-54.5 14.5t-54 -14.5t-38.5 -38.5t-14.5 -54zM771 248q-4 8 -6 16
t-5 23q-7 40 -20.5 89.5t-32.5 100.5t-43 97.5t-52 83.5q-46 57 -100.5 106t-125 88t-163.5 68l-44 -48q96 -26 167 -61.5t125.5 -82t96.5 -101.5q37 -47 65.5 -109.5t47.5 -126.5t26 -115h-55.5h-98.5h-119h-118h-96h-52q-26 0 -47 1t-41 2v-58q14 1 28 2.5t29.5 2.5
t31.5 1h41h76h96.5h103h95.5h74h38q10 0 19.5 -1t20.5 -3z" />
</svg>
