<svg xmlns="http://www.w3.org/2000/svg" xmlns:xlink="http://www.w3.org/1999/xlink" version="1.1" viewBox="0 0 1000 1000">
   <path 
d="M67 569.556q18 -15 32.5 -29t31.5 -31q19 -19 43.5 -48.5t52.5 -63.5t55.5 -67.5t49.5 -59.5q37 -43 71 -48.5t81 38.5q29 27 66 65t74 76.5t66 69.5q34 35 75.5 80t85.5 92.5t82 88.5l-45 46q-36 -44 -77 -91t-80.5 -91.5t-73.5 -82.5q-21 -23 -48.5 -52t-55.5 -58.5
t-52.5 -55t-41.5 -41.5q-32 -31 -51 -28t-47 36q-20 24 -45.5 55t-52.5 65t-51.5 64t-42.5 51q-14 17 -28.5 36t-25.5 32z" />
</svg>
