<svg xmlns="http://www.w3.org/2000/svg" xmlns:xlink="http://www.w3.org/1999/xlink" version="1.1" viewBox="0 0 1000 1000">
   <path 
d="M746.5 170.5q0 29 20 49t50 20q29 0 49.5 -20t20.5 -49q0 -30 -20.5 -50t-49.5 -20q-30 0 -50 20t-20 50zM710.5 170.5q0 -30 14.5 -54t38.5 -38.5t53 -14.5t53 14.5t38.5 38.5t14.5 54q0 28 -14.5 52t-38.5 38.5t-53 14.5t-53 -14.5t-38.5 -38.5t-14.5 -52zM525.5 142.5
q-1 7 -2 18t-1.5 22.5t-0.5 21.5v57.5v65v53.5v59v88.5v101.5v100v84v52q0 37 -17 54t-58 17q-17 0 -41 -1t-47.5 -2.5t-41.5 -2.5l-4 -54q34 6 66 9t52 3q21 0 30.5 -10t9.5 -30v-53v-85.5v-101.5v-100.5v-81.5v-46v-49.5v-68v-58.5q0 -15 -2 -33.5t-4 -28.5h61z
M100.5 316.5q20 2 37 3t40 1h50h90.5h114.5h122h113.5h89h47.5q15 0 34.5 -1t37.5 -3v55q-18 -2 -36 -2h-35h-47.5h-89h-113.5h-122h-114.5h-90.5h-50q-23 0 -41 0.5t-37 2.5v-56zM315.5 530.5q-16 32 -39 69.5t-50.5 75t-54.5 70.5t-48 57l-46 -31q25 -22 53 -55
t54.5 -69.5t49 -72.5t36.5 -66zM726.5 511.5q20 24 44 57t48.5 70t45.5 71.5t36 61.5l-48 27q-14 -28 -34.5 -63.5t-44 -72.5t-47.5 -70.5t-44 -57.5z" />
</svg>
