<svg xmlns="http://www.w3.org/2000/svg" xmlns:xlink="http://www.w3.org/1999/xlink" version="1.1" viewBox="0 0 1000 1000">
   <path 
d="M701 88.5q12 16 27 40t30 48.5t25 43.5l-39 19q-10 -20 -24 -45t-29.5 -48.5t-27.5 -40.5zM824 63.5q12 16 27 39t30 47.5t26 45.5l-39 17q-17 -31 -39.5 -69.5t-43.5 -62.5zM784 264.5q-4 8 -6.5 16t-4.5 23q-7 40 -20.5 89.5t-32.5 100.5t-43 97.5t-52 83.5
q-46 57 -100.5 106t-125 88t-163.5 68l-44 -48q96 -26 167 -61.5t125 -82t97 -101.5q37 -47 65.5 -109.5t47.5 -126.5t26 -115h-56h-98h-119h-118h-96h-52q-27 0 -48 1t-40 2v-58q14 1 28 2.5t29.5 2.5t31.5 1h41h76h96.5h103h95.5h74h38q10 0 19.5 -1t19.5 -3z" />
</svg>
