<svg xmlns="http://www.w3.org/2000/svg" xmlns:xlink="http://www.w3.org/1999/xlink" version="1.1" viewBox="0 0 1000 1000">
   <path 
d="M684.5 205q0 29 20.5 50t50.5 21q29 0 50 -21t21 -50q0 -30 -21 -51t-50 -21q-30 0 -50.5 21t-20.5 51zM648.5 205q0 -30 14 -54.5t38.5 -39t54.5 -14.5t54.5 14.5t39 39t14.5 54.5t-14.5 54t-39 38.5t-54.5 14.5t-54.5 -14.5t-38.5 -38.5t-14 -54zM197.5 154
q-1 15 -2.5 31t-1.5 37v51.5v94.5v116.5v118.5v100v61q0 42 17.5 57.5t54.5 22.5q25 4 64.5 7t78.5 3t85 -2t92.5 -5.5t88 -9.5t72.5 -14v59q-40 6 -99.5 10.5t-123 7.5t-117.5 3q-42 0 -83.5 -2t-71.5 -7q-53 -9 -81.5 -34.5t-28.5 -84.5v-66v-104v-120.5v-117v-94.5v-51
q0 -13 -0.5 -24.5t-1.5 -22.5t-3 -21h61zM169.5 475q43 -10 97.5 -24.5t112.5 -31.5t113.5 -37t100.5 -40q21 -9 40.5 -19.5t35.5 -21.5l24 53q-17 7 -39 16.5t-42 18.5q-49 20 -107 40t-119 39t-117 34.5t-100 26.5v-54z" />
</svg>
