<svg xmlns="http://www.w3.org/2000/svg" xmlns:xlink="http://www.w3.org/1999/xlink" version="1.1" viewBox="0 0 1000 1000">
   <path 
d="M536.5 103q-1 7 -2 18t-1.5 22.5t-0.5 21.5v57v64.5v53.5v59.5v89v101.5v99.5v84v52.5q0 37 -17 54t-58 17q-17 0 -41 -1t-47.5 -2.5t-41.5 -3.5l-4 -53q33 6 65 9t53 3t30.5 -10t9.5 -30v-53v-86v-101.5v-100v-82v-46.5v-49.5v-67.5v-58q0 -15 -2 -33.5t-4 -28.5h61z
M110.5 276q21 3 37.5 4t40.5 1h49.5h91h114h122h114h89h47.5q15 0 34.5 -1t37.5 -3v54q-18 -1 -36 -1h-35h-47.5h-89h-113.5h-122h-114.5h-90.5h-50q-23 0 -41 0.5t-38 2.5v-57zM326.5 491q-16 31 -39 68.5t-50.5 75.5t-54.5 71t-49 57l-45 -31q25 -23 53 -55.5t54.5 -69.5
t49 -73t36.5 -65zM736.5 471q21 24 45 57.5t48.5 70.5t45.5 71.5t36 61.5l-48 27q-14 -28 -34.5 -63.5t-44 -72.5t-47.5 -70.5t-44 -57.5z" />
</svg>
