<svg xmlns="http://www.w3.org/2000/svg" xmlns:xlink="http://www.w3.org/1999/xlink" version="1.1" viewBox="0 0 1000 1000">
   <path 
d="M737.5 107q19 27 42.5 65.5t39.5 70.5l-39 18q-14 -30 -37.5 -69t-43.5 -68zM848.5 79q13 18 29 42.5t31 49t25 43.5l-39 18q-17 -33 -39.5 -70.5t-43.5 -65.5zM514.5 127q-1 7 -2 18t-1.5 22.5t-0.5 21.5v57.5v65v53.5v59v88.5v101.5v100v84v52q0 37 -17 54t-58 17
q-17 0 -41 -1t-47.5 -2.5t-41.5 -2.5l-4 -54q34 6 66 9t52 3q21 0 30.5 -10t9.5 -30v-53v-85.5v-101.5v-100.5v-81.5v-46v-49.5v-68v-58.5q0 -15 -2 -33.5t-4 -28.5h61zM89.5 301q20 2 37 3t40 1h50h90.5h114.5h122h113.5h89h47.5q15 0 34.5 -1t37.5 -3v55q-18 -2 -36 -2
h-35h-47.5h-89h-113.5h-122h-114.5h-90.5h-50q-23 0 -41 0.5t-37 2.5v-56zM304.5 515q-16 32 -39 69.5t-50.5 75t-54.5 70.5t-48 57l-46 -31q25 -22 53 -55t54.5 -69.5t49 -72.5t36.5 -66zM715.5 496q20 24 44 57t48.5 70t45.5 71.5t36 61.5l-48 27q-14 -28 -34.5 -63.5
t-44 -72.5t-47.5 -70.5t-44 -57.5z" />
</svg>
