<svg xmlns="http://www.w3.org/2000/svg" xmlns:xlink="http://www.w3.org/1999/xlink" version="1.1" viewBox="0 0 1000 1000">
   <path 
d="M683.5 211q12 16 30 44t35.5 58.5t29.5 54.5l-40 20q-11 -24 -27 -53t-33.5 -57.5t-33.5 -48.5zM809.5 162q12 16 30 43.5t37 58t30 54.5l-40 20q-11 -23 -27.5 -52t-34.5 -57t-34 -48zM67.5 629q18 -15 32 -29l31 -31q19 -19 44 -48.5t53 -63.5t55 -67t49 -60
q37 -43 71.5 -48.5t81.5 39.5q28 26 65 64t74.5 77t65.5 69q34 35 76 80.5t85.5 92.5t81.5 89l-44 45q-36 -44 -77.5 -90.5t-81 -91.5t-73.5 -82q-21 -24 -48 -53t-55 -58.5t-53 -55t-42 -41.5q-32 -30 -50.5 -27.5t-47.5 35.5q-19 24 -44.5 55.5t-52.5 65t-52 63.5t-43 51
q-14 17 -28.5 36t-25.5 32z" />
</svg>
