<svg xmlns="http://www.w3.org/2000/svg" xmlns:xlink="http://www.w3.org/1999/xlink" version="1.1" viewBox="0 0 1000 1000">
   <path 
d="M175 151q19 1 40 2t46 1h51h84h100h100h84.5h51.5q25 0 43.5 -1t34.5 -2v53q-16 -1 -33.5 -1.5t-44.5 -0.5h-52h-86h-101.5h-100h-82.5h-49q-25 0 -46 0.5t-40 1.5v-53zM459 454v73.5v77v67v42.5q0 36 30 60.5t104 24.5t136.5 -3t128.5 -11l-2 53q-43 3 -86 5.5t-88 4
t-94 1.5q-65 0 -105.5 -14.5t-58 -41.5t-17.5 -62v-63v-71v-74v-71v-40v-60v-67v-61.5v-41.5l52 1v41.5v62v68.5v60.5v38.5zM109 433q20 2 43.5 3t41.5 1h50h89h112h120h112.5h89h49.5q11 0 24.5 -0.5l27 -1t23.5 -1.5v54q-15 -1 -36 -1.5t-38 -0.5h-50.5h-89h-112.5h-120
h-112h-89h-50q-18 0 -41.5 0.5t-43.5 2.5v-56z" />
</svg>
