<svg xmlns="http://www.w3.org/2000/svg" xmlns:xlink="http://www.w3.org/1999/xlink" version="1.1" viewBox="0 0 1000 1000">
   <path 
d="M902 183q-6 5 -11 11.5t-9 12.5q-27 45 -66 98t-88.5 110t-109.5 113.5t-132 107.5l-40 -34q67 -46 125 -100t106 -108.5t83.5 -103.5t55.5 -85h-60.5h-94.5h-114h-118.5h-108.5h-84h-44q-19 0 -37 0.5t-32.5 1t-24.5 2.5v-60q14 2 29 3.5t31.5 2t33.5 0.5h42.5h83h107
h117.5h114h95h62q33 0 47 -5zM464 655q-23 -23 -55 -52t-66 -58t-64 -53.5t-49 -36.5l41 -33q15 11 44 34t63.5 51.5t68.5 59t59 55.5q31 31 65 66.5t64 68.5t50 58l-46 36q-17 -24 -46.5 -58t-63.5 -70t-65 -68z" />
</svg>
