<svg xmlns="http://www.w3.org/2000/svg" xmlns:xlink="http://www.w3.org/1999/xlink" version="1.1" viewBox="0 0 1000 1000">
   <path 
d="M767 225q-2 6 -3.5 13t-2.5 13q-3 30 -10 81.5t-16 113.5t-18.5 123t-17 110t-11.5 75h-56q4 -21 11 -60.5t14.5 -88.5t15.5 -101.5t14 -100.5t10.5 -85.5t4.5 -56.5h-75.5h-102.5h-106.5h-89h-48.5q-26 0 -45 1t-40 3v-59q21 2 40.5 4t43.5 2h36.5h66.5h82.5h85.5h76h53
q8 0 17 -1.5t16 -2.5t11 -3zM81 735q21 3 41 4t40 1h680q21 0 39.5 -1.5t37.5 -3.5v60q-19 -3 -41 -3.5t-36 -0.5h-680q-20 0 -39.5 0.5t-41.5 3.5v-60z" />
</svg>
