<svg xmlns="http://www.w3.org/2000/svg" xmlns:xlink="http://www.w3.org/1999/xlink" version="1.1" viewBox="0 0 1000 1000">
   <path 
d="M367.5 160q2 9 5.5 23.5t7.5 33.5q4 15 15.5 57t27 99t33 118.5t33.5 118.5t28 98.5t16 56.5q4 10 7 20.5t6.5 20.5t6.5 19l-57 15q-1 -15 -4 -31t-8 -33q-5 -15 -16.5 -57.5t-27.5 -100t-33 -119t-33 -118.5t-27 -98t-16 -55q-5 -19 -10 -32t-11 -22zM847.5 287
q-15 31 -41 69.5t-56 78t-60.5 74t-56.5 58.5l-46 -24q35 -29 70 -68t66 -80t50 -73q-9 1 -42.5 7.5t-83.5 16.5t-109 21.5t-119 23.5t-112 22.5t-89.5 18t-51.5 10.5l-14 -51q20 -2 38.5 -4.5t39.5 -6.5q10 -2 42.5 -8t79 -15t100.5 -18.5t108.5 -20t101 -19.5t79.5 -15.5
t43 -9.5q7 -2 16 -4.5t15 -5.5z" />
</svg>
