<svg xmlns="http://www.w3.org/2000/svg" xmlns:xlink="http://www.w3.org/1999/xlink" version="1.1" viewBox="0 0 1000 1000">
   <path 
d="M721 284q-2 5 -3.5 12t-1.5 12q-2 24 -7.5 64.5t-12.5 89t-14 96t-13 86.5t-10 59h-53q3 -14 9 -51.5t13.5 -86t14.5 -98.5t11.5 -90t5.5 -59h-60h-83.5h-89h-74h-38.5q-21 0 -36.5 0.5t-32.5 1.5v-55l22 2t22.5 1.5t23.5 0.5h40h72.5h85.5h79.5h53.5q7 0 14 -0.5
t13 -1.5t9 -3zM150 682l36 2t38 1h54.5h100h122.5h123h101.5h56.5q15 0 34.5 -0.5t33.5 -1.5v52q-9 -1 -20.5 -1h-23h-21.5h-58h-102.5h-124h-123h-100h-53.5q-20 0 -37.5 0.5t-36.5 1.5v-54z" />
</svg>
