<svg xmlns="http://www.w3.org/2000/svg" xmlns:xlink="http://www.w3.org/1999/xlink" version="1.1" viewBox="0 0 1000 1000">
   <path 
d="M338.5 94q2 13 6 29.5t9 39.5q11 39 27.5 98t35.5 127t38 137t36 130t29.5 105.5t17.5 62.5q4 10 7.5 22t8 24t7.5 22l-60 15q-2 -15 -6 -34t-10 -37q-4 -16 -15 -56t-26 -97t-32.5 -121t-35 -127.5t-32.5 -118t-25.5 -92t-14.5 -47.5q-7 -25 -13 -41t-12 -26zM914.5 246
q-18 36 -48 81t-66 91.5t-72.5 87.5t-67.5 69l-52 -26q32 -25 66 -60t66 -73.5t57.5 -74.5t40.5 -61q-10 2 -51 9.5t-102.5 20t-133 26.5t-143.5 28t-136 27t-109 22.5t-62 13.5l-16 -57q25 -2 46.5 -4.5t46.5 -6.5q11 -2 50.5 -9.5t96 -18t122 -23t130.5 -24.5t121.5 -23
t95 -19t49.5 -10q9 -2 18.5 -5t16.5 -6z" />
</svg>
