<svg xmlns="http://www.w3.org/2000/svg" xmlns:xlink="http://www.w3.org/1999/xlink" version="1.1" viewBox="0 0 1000 1000">
   <path 
d="M239.5 207q7 1 25 2t36.5 1.5t28.5 0.5h47.5h84h99h93h66.5q18 0 31.5 -0.5t22.5 -0.5q-1 6 -1 16.5v23.5v42v82v104v108.5v95.5v65q0 12 0.5 24t0.5 22h-52q1 -8 1 -19.5v-27.5v-70v-97v-106.5v-99.5v-77v-38h-36h-70h-86.5h-87.5h-73h-40q-10 0 -28.5 0.5t-36.5 1
t-25 0.5v-53zM258.5 447q13 1 33.5 2.5t44.5 1.5h46h77.5h92h90h71.5h37v47h-37h-71.5h-90h-92h-77.5h-45q-25 0 -45 0.5t-34 1.5v-53zM226.5 699q12 1 33.5 2.5t46.5 1.5h48.5h80.5h96.5h96h78.5h44v48h-44h-79h-96h-96h-80.5h-47.5q-24 0 -46.5 1t-34.5 1v-54z" />
</svg>
