<svg xmlns="http://www.w3.org/2000/svg" xmlns:xlink="http://www.w3.org/1999/xlink" version="1.1" viewBox="0 0 1000 1000">
   <path 
d="M501.5 122.5q-6 16 -13 33.5t-17 48.5q-7 24 -21 69t-32.5 101.5t-39 117.5t-40 118t-35.5 101.5t-27 69.5l-57 2q12 -27 29.5 -73.5t37.5 -104.5t40 -120t39 -119t32.5 -102.5t21.5 -69.5l12 -51t5 -34zM698.5 465.5q26 36 58 89.5t64.5 111.5t58.5 110.5t41 89.5
l-53 24q-14 -37 -39 -91.5t-55.5 -112.5t-62.5 -111t-59 -88zM163.5 771.5q36 -2 89.5 -6.5t116 -10.5t126.5 -13.5t124.5 -14.5t110 -13.5t79.5 -10.5l18 48q-33 4 -85 10.5t-113.5 13.5t-127.5 14.5t-129 14.5t-116.5 12.5t-89.5 8.5q-19 1 -37.5 3.5t-39.5 5.5l-10 -60
q21 1 42.5 0t41.5 -2z" />
</svg>
