<svg xmlns="http://www.w3.org/2000/svg" xmlns:xlink="http://www.w3.org/1999/xlink" version="1.1" viewBox="0 0 1000 1000">
   <path 
d="M801.5 138.5q-6 12 -14 30t-13 33q-18 50 -44.5 107.5t-59.5 114.5t-74 108q-48 62 -110 124.5t-138.5 120.5t-169.5 105l-44 -39q142 -68 243.5 -157t176.5 -184q64 -80 105 -163.5t66 -156.5q4 -12 9.5 -30.5t8.5 -32.5zM285.5 268.5q37 23 80 53.5l86 61t80.5 59.5
t64.5 51q72 60 141.5 122.5t127.5 127.5l-39 42q-61 -70 -126.5 -130t-137.5 -122q-27 -23 -64 -52t-79.5 -60t-85.5 -60.5t-81 -52.5z" />
</svg>
