<svg xmlns="http://www.w3.org/2000/svg" xmlns:xlink="http://www.w3.org/1999/xlink" version="1.1" viewBox="0 0 1000 1000">
   <path 
d="M305 123q38 5 90 14t109.5 21t115 25.5t108.5 27.5t89 27l-21 50q-38 -14 -88 -28t-106 -27.5t-113.5 -26t-109.5 -21.5t-93 -14zM259 384q50 9 115 22t135 28.5t133.5 33t110.5 35.5l-22 49q-43 -18 -106 -35.5t-132 -34.5t-135.5 -29.5t-118.5 -20.5zM203 678
q50 8 111 20.5t126 27.5t129 32t119.5 35t96.5 35l-22 49q-40 -18 -95 -36t-119 -35.5t-129.5 -33t-126.5 -27.5t-110 -19z" />
</svg>
