<svg xmlns="http://www.w3.org/2000/svg" xmlns:xlink="http://www.w3.org/1999/xlink" version="1.1" viewBox="0 0 1000 1000">
   <path 
d="M762 110q-1 17 -2 36.5t-1 41.5v44.5v54.5v42q0 95 -5 160.5t-17 109.5t-30.5 77.5t-45.5 66.5q-31 40 -72 68.5t-83.5 47t-79.5 31.5l-42 -44q65 -18 128 -50.5t110 -87.5q27 -33 44 -67t25.5 -77t11.5 -100.5t3 -135.5v-43.5v-54.5v-42q0 -22 -1 -41.5t-3 -36.5h60z
M297 117q-1 12 -2 33.5t-1 35.5v29v58.5v73.5v75v61.5v34.5q0 19 1 38.5t2 31.5h-59q2 -11 3 -30t1 -41v-34v-61.5v-74.5v-73.5v-58.5v-29q0 -13 -1 -35t-3 -34h59z" />
</svg>
