<svg xmlns="http://www.w3.org/2000/svg" xmlns:xlink="http://www.w3.org/1999/xlink" version="1.1" viewBox="0 0 1000 1000">
   <path 
d="M155.5 164.5q29 1 46 1.5t34 0.5h39.5h76.5h98h105h96.5h74.5h38q15 0 38.5 -0.5t43.5 -1.5q-1 16 -1.5 33t-0.5 33v38.5v72v92.5v99.5v91v69v32.5v26t0.5 33.5t1 31t0.5 19.5h-56q1 -7 1 -23t0.5 -35.5t0.5 -35.5v-36v-78.5v-102.5v-109.5v-99.5v-72v-27h-584v27v71.5
v98.5v109v102v78.5v38.5v22.5t0.5 27t1 26t0.5 18.5h-55q0 -6 0.5 -20t1 -31t0.5 -32.5v-26.5v-34.5v-71.5v-93v-99.5v-92v-70.5v-34v-32.5t-1 -33.5zM813.5 727.5v49h-628v-49h628z" />
</svg>
