<svg xmlns="http://www.w3.org/2000/svg" xmlns:xlink="http://www.w3.org/1999/xlink" version="1.1" viewBox="0 0 1000 1000">
   <path 
d="M184.5 147.5q9 1 30.5 2t44.5 1.5t35 0.5h45h78h95.5h100h90h65.5q21 0 35.5 -0.5t25.5 -1.5q-1 9 -1 19.5v28.5v49.5v99.5v126v132v116.5v79.5q0 16 0.5 28t1.5 24h-55q1 -6 1 -13v-17v-23v-87.5v-119v-130v-122v-94.5v-46h-44.5h-85.5h-105.5h-107h-89.5h-50t-35 0.5
t-45 1t-30 1.5v-56zM209.5 439.5q15 1 41 3t54 2h57.5h94h111h109h87h44.5v49h-44.5h-87h-109h-110.5h-93h-57q-30 0 -55 0.5t-42 1.5v-56zM169.5 747.5q14 1 40.5 2.5t57.5 1.5h59h98.5h117h116h96h54.5v49h-55.5h-96h-116h-116.5h-97.5h-58.5q-31 0 -58 1t-41 3v-57z" />
</svg>
