<svg xmlns="http://www.w3.org/2000/svg" xmlns:xlink="http://www.w3.org/1999/xlink" version="1.1" viewBox="0 0 1000 1000">
   <path 
d="M524 844.5q3 -11 4.5 -22.5t1.5 -24.5v-42.5v-86v-111.5v-120v-112v-88.5v-47.5q0 -25 -1.5 -42t-2.5 -25h59q-1 8 -2 25t-1 42v49.5v91.5v116.5v123v111.5v82.5v34.5q50 -24 108.5 -62.5t114 -91t95.5 -113.5l31 44q-44 61 -101.5 113.5t-119.5 94.5t-121 71
q-11 5 -18 10t-12 9zM69 845.5q62 -45 107.5 -108.5t69.5 -141.5q11 -36 17 -88.5t9 -110.5t3.5 -113t0.5 -95q0 -17 -1.5 -32t-4.5 -29h60q-1 8 -1.5 18t-1.5 20.5t-1 22.5q0 40 -1 96t-4.5 117.5t-9.5 116.5t-16 92q-23 78 -69 147.5t-109 119.5z" />
</svg>
