<svg xmlns="http://www.w3.org/2000/svg" xmlns:xlink="http://www.w3.org/1999/xlink" version="1.1" viewBox="0 0 1000 1000">
   <path 
d="M882.5 211.5q-5 8 -10.5 14.5t-10.5 14.5q-17 30 -41 62.5t-52 66t-59.5 64.5t-64.5 57l-46 -33q41 -27 80 -64t71.5 -76.5t52.5 -76.5h-65.5h-102.5h-120.5h-119h-98h-58.5t-41 1.5t-41.5 2l-17.5 0.5v-57q23 1 48 2.5t50 1.5h59.5h97.5h117h118.5h102.5h68
q13 0 26.5 -1.5t21.5 -4.5zM504.5 385.5v40v70.5v85v86v73v44.5h-52v-44.5v-73v-86v-85v-70.5v-40q0 -14 -0.5 -29t-2.5 -30h59q-1 15 -2.5 28.5t-1.5 30.5zM82.5 755.5q22 2 43 3t41 1h672q21 0 40.5 -1.5t38.5 -2.5v59q-19 -2 -42 -2.5t-37 -0.5h-672q-20 0 -40.5 0.5
t-43.5 2.5v-59z" />
</svg>
