<svg xmlns="http://www.w3.org/2000/svg" xmlns:xlink="http://www.w3.org/1999/xlink" version="1.1" viewBox="0 0 1000 1000">
   <path 
d="M230.5 119q19 2 38.5 3t42.5 1h53.5h90.5h103h93h59q23 0 43 -1t37 -3v55q-17 -2 -37 -2h-44h-57.5h-92h-102.5h-91h-55q-22 0 -42 0.5t-39 1.5v-55zM857.5 366q-3 5 -6 11.5t-5 11.5q-17 74 -52.5 150.5t-91.5 137.5q-80 87 -171.5 132.5t-186.5 71.5l-40 -46
q102 -21 195 -68.5t160 -119.5q49 -52 82 -120t47 -130h-44h-80.5h-102.5h-110h-102h-79h-42q-17 0 -39.5 0.5t-46.5 2.5v-57q25 3 46.5 4.5t39.5 1.5h40h77.5h100.5h108h100.5h78.5h41q13 0 25.5 -1.5t19.5 -4.5z" />
</svg>
