<svg xmlns="http://www.w3.org/2000/svg" xmlns:xlink="http://www.w3.org/1999/xlink" version="1.1" viewBox="0 0 1000 1000">
   <path 
d="M858 169q-2 3 -4 10t-3.5 13.5t-2.5 10.5q-9 63 -21 129t-31.5 129t-54.5 117q-60 95 -158.5 168.5t-219.5 110.5l-43 -42q78 -22 147.5 -58.5t127.5 -88t100 -116.5q30 -46 50 -105t31 -123.5t16 -126.5h-45h-83h-105.5h-113.5h-107.5h-87.5h-52v31v51v58v51v30
q0 10 0.5 23.5t1.5 29.5h-57q2 -16 2 -29.5v-23.5v-39v-63.5v-67v-45.5q0 -16 -0.5 -29.5t-2.5 -27.5q18 1 42 1.5t55 0.5h36.5h74h97.5h106h99.5h79h42.5q11 0 23 -1t21 -4z" />
</svg>
