<svg xmlns="http://www.w3.org/2000/svg" xmlns:xlink="http://www.w3.org/1999/xlink" version="1.1" viewBox="0 0 1000 1000">
   <path 
d="M805.5 226q-1 3 -2.5 8.5l-3 11t-2.5 9.5q-8 57 -20 116t-32.5 113t-52.5 97q-53 73 -128.5 128.5t-176.5 88.5l-43 -43q90 -23 167.5 -73t131.5 -122q40 -53 64.5 -128t34.5 -178h-46.5h-87.5h-107.5h-109h-91h-53.5v33v53v53v33q0 7 0.5 19.5t1.5 25.5h-55
q2 -12 2.5 -24.5t0.5 -20.5v-32v-51v-52.5v-36.5q0 -13 -0.5 -25.5t-2.5 -24.5q16 1 37 2t46 1h38h81.5h102.5h103.5h85h45.5q8 0 18.5 -1t18.5 -4z" />
</svg>
