<svg xmlns="http://www.w3.org/2000/svg" xmlns:xlink="http://www.w3.org/1999/xlink" version="1.1" viewBox="0 0 1000 1000">
   <path 
d="M686 110q-1 21 -2 39.5t-1 26.5v40.5v87.5v115.5v125.5v117v89.5v43.5q0 7 0.5 33.5t2.5 61.5h-57q3 -35 3.5 -60.5t0.5 -32.5v-44v-90v-117v-126v-116.5v-88v-39.5q0 -11 -1 -28.5t-3 -37.5h57zM310 648v-353h50v353h-50zM91 624q21 3 41.5 4t40.5 1h659q21 0 39.5 -1.5
t37.5 -3.5v56q-20 -2 -42 -2.5t-35 -0.5h-659q-20 0 -40 0.5t-42 2.5v-56zM127 263q21 1 42 2.5t41 1.5h596q21 0 39.5 -1.5t37.5 -2.5v54q-19 -2 -41 -2h-36h-596q-20 0 -40.5 0.5t-42.5 1.5v-54z" />
</svg>
