<svg xmlns="http://www.w3.org/2000/svg" xmlns:xlink="http://www.w3.org/1999/xlink" version="1.1" viewBox="0 0 1000 1000">
   <path 
d="M153 132q14 2 40.5 4.5t56.5 2.5h58.5h94.5h111.5h109.5h88.5h48.5q14 0 24.5 -1t18.5 -3l43 27l-5 12.5t-5 18.5q-10 62 -25.5 132.5t-37.5 135t-52 109.5q-49 73 -108.5 129t-133.5 97t-167 72l-42 -45q87 -21 161 -58.5t135 -91.5t108 -124q22 -32 39.5 -77t31 -95
t22.5 -99t14 -90h-55h-94h-113.5h-114.5h-96h-59q-23 0 -45.5 0.5t-51.5 2.5v-59zM758 442h-54h-89h-106h-105h-87.5h-51.5q-25 0 -45 1t-41 2v-55q20 1 40.5 2.5t44.5 1.5h52h89.5h107.5h107.5h90h54.5z" />
</svg>
