<svg xmlns="http://www.w3.org/2000/svg" xmlns:xlink="http://www.w3.org/1999/xlink" version="1.1" viewBox="0 0 1000 1000">
   <path 
d="M502 877.5q-56 0 -98 -14.5t-73.5 -37.5t-53.5 -48l32 -39q32 33 77 60.5t115 27.5q48 0 84 -19t57 -54t21 -82q0 -49 -24.5 -86t-77.5 -57t-140 -20v-50q81 0 127.5 -21t67 -56.5t20.5 -79.5q0 -58 -37 -93.5t-100 -35.5q-48 0 -89 21.5t-70 53.5l-34 -40q38 -35 85 -60
t109 -25q56 0 101 21t71 60t26 95q0 71 -38 116t-96 64v5q43 9 79.5 34t58 64t21.5 90q0 63 -29.5 109.5t-79.5 71.5t-112 25z" />
</svg>
