<svg xmlns="http://www.w3.org/2000/svg" xmlns:xlink="http://www.w3.org/1999/xlink" version="1.1" viewBox="0 0 1000 1000">
   <path 
d="M518.5 877.5q-53 0 -96 -23t-73.5 -68.5t-47.5 -111.5t-17 -153q0 -111 21.5 -187.5t58 -123t84 -67.5t98.5 -21t89 19.5t66 50.5l-35 37q-23 -27 -54 -42t-65 -15q-55 0 -102 33t-75.5 109.5t-28.5 206.5q0 92 19.5 161.5t59 107.5t99.5 38q40 0 71 -24t49 -66t18 -94
q0 -53 -15.5 -94.5t-48 -64.5t-84.5 -23q-38 0 -83.5 25t-88.5 85l-1 -56q25 -31 54 -53.5t61.5 -34.5t64.5 -12q62 0 106.5 25.5t68.5 76t24 126.5q0 68 -27 120.5t-72 82.5t-98 30z" />
</svg>
