<svg xmlns="http://www.w3.org/2000/svg" xmlns:xlink="http://www.w3.org/1999/xlink" version="1.1" viewBox="0 0 1000 1000">
   <path 
d="M504 876q-65 0 -116.5 -25.5t-80.5 -69t-29 -99.5q0 -50 21 -90.5t53 -70t65 -47.5v-4q-39 -26 -69.5 -67t-30.5 -99q0 -53 25 -93.5t67.5 -63.5t95.5 -23q61 0 104 25t66 68t23 98q0 39 -16.5 74.5t-39 62.5t-43.5 44v5q31 18 59.5 43.5t46 61t17.5 85.5
q0 51 -27.5 93.5t-76.5 67t-114 24.5zM556 480q43 -36 66 -77t23 -86q0 -40 -16.5 -73t-48 -53t-76.5 -20q-57 0 -94 37.5t-37 95.5q0 49 26.5 81.5t69 54t87.5 40.5zM505 829q48 0 84 -18.5t55.5 -50t19.5 -70.5q0 -42 -18 -71.5t-47.5 -51t-67.5 -38.5t-78 -33
q-52 31 -86 77t-34 106q0 42 22 76t61.5 54t88.5 20z" />
</svg>
