<svg xmlns="http://www.w3.org/2000/svg" xmlns:xlink="http://www.w3.org/1999/xlink" version="1.1" viewBox="0 0 1000 1000">
   <path 
d="M460 877.5q-54 0 -92.5 -19.5t-68.5 -50.5l35 -38q25 28 57.5 42.5t69.5 14.5q39 0 75 -18.5t63.5 -61.5t43.5 -113.5t16 -173.5q0 -87 -19.5 -152.5t-59 -101t-100.5 -35.5q-38 0 -69.5 24t-50 66t-18.5 95q0 52 15.5 93.5t48 65.5t83.5 24q40 0 85 -26.5t87 -85.5l2 57
q-24 29 -53 52t-61.5 36t-67.5 13q-61 0 -105 -26.5t-68 -77.5t-24 -125q0 -68 27.5 -121t72 -82.5t98.5 -29.5q53 0 96 22t73.5 64.5t47.5 105.5t17 145q0 116 -21 196t-57.5 129t-82 71t-95.5 22z" />
</svg>
