<svg xmlns="http://www.w3.org/2000/svg" xmlns:xlink="http://www.w3.org/1999/xlink" version="1.1" viewBox="0 0 1000 1000">
   <path 
d="M462.5 648q-9 -43 2.5 -77.5t36 -62t54.5 -52t57 -48.5t45 -50t18 -56q0 -37 -17.5 -67.5t-54 -48.5t-94.5 -18q-55 0 -107.5 23.5t-99.5 73.5l-37 -34q51 -51 109.5 -82t139.5 -31q70 0 119 23.5t75 63.5t26 93q0 38 -18 68.5t-45.5 56t-57.5 49.5t-55.5 49.5t-37.5 56
t-4 70.5h-54zM492.5 882q-20 0 -35 -13.5t-15 -38.5q0 -24 15 -39t35 -15q19 0 34.5 15t15.5 39q0 25 -15.5 38.5t-34.5 13.5z" />
</svg>
